<?xml version="1.0" encoding="utf-8"?>
<!-- Generator: Adobe Illustrator 22.1.0, SVG Export Plug-In . SVG Version: 6.00 Build 0)  -->
<svg version="1.1" id="Layer_1" xmlns="http://www.w3.org/2000/svg" xmlns:xlink="http://www.w3.org/1999/xlink" x="0px" y="0px"
	 viewBox="0 0 1366 1366" style="enable-background:new 0 0 1366 1366;" xml:space="preserve">
<style type="text/css">
	.st0{fill:#02354F;}
	.st1{fill:#FEFEFE;stroke:#FFFFFF;stroke-width:2;stroke-miterlimit:10;}
	.st2{fill:#FFFFFF;stroke:#02354F;stroke-width:2;stroke-miterlimit:10;}
	.st3{fill:#02354F;stroke:#02354F;stroke-width:2;stroke-miterlimit:10;}
	.st4{fill:#FEFEFE;stroke:#02354F;stroke-width:2;stroke-miterlimit:10;}
</style>
<g id="Layer_1_1_">
	<g>
		<path class="st0" d="M946.5,1275.2c-32.6-0.4-42.6-13.5-37.6-41.8c3.3-19,5.4-38.6,4.3-57.8c-3.9-69.2-9.5-138.2-14.4-207.3
			c-2.5-35.4-23.5-51.6-58.1-43.9c-32.2,7.2-64.3,19.8-99.3-6.4c3.6,78-4.9,150.1,5.5,221.2c-12.3-2.1-12.5-2.1-12.5-18.5
			c-0.1-62.8-0.3-125.5,0.3-188.3c0.1-13.2-4.1-19.5-19.2-19.1c0,69.7,0,139.2,0,213.3c-9.8-8.2-16.4-13.8-26.2-22
			c8.2,1.2,12.3,1.8,18.7,2.8c0-40.6,0-80.2,0-119.8c0-22.2,0.6-44.5-0.4-66.7c-0.3-5.8-4.4-14.6-9-16.4
			c-62.4-25-125.1-49-193.8-75.6c0,69.8,0,136,0,202.2c-22.8-59.6-6.7-120-8.7-179.8c-1-29.6,0.4-29.6-28.8-34.8
			c0,53.9,0.3,108-0.3,162.2c-0.1,9.4-2.4,19.1-5.7,28c-8.1,21.8,7.1,50.6,28.6,52.3c0.3,1.7,0.5,3.4,0.8,5.2
			c-8.5,0.7-18.8,4.7-24.9,1.2c-5.8-3.2-10-14.2-10.2-21.9c-1.2-74.8-1.1-149.5-2.7-224.3c-0.1-5.6-9-13.4-15.4-16
			c-47.8-19.3-96-37.8-144.4-55.9c-10.7-4-16.5-9.3-14.7-21.1c0.5-3.2,0.1-6.5,0.1-9.8c0.1-17-5.7-37.7,2-49.9
			c6.7-10.7,28.6-11.9,43.7-17.4c38.8-14,50.9-40.2,40.4-80.3c-4.5-17.1-3.3-35.7-4.8-55c45.9-4.8,88.6-9.4,131.2-13.9
			c0.2,1,0.3,2,0.5,3c-39.8,7.2-79.7,14.3-122.3,22c1.1,14.1,0.2,28,3.7,40.7c14.3,52.2-1.1,81.3-53.1,96.2
			c-10,2.9-20.3,4.6-32.1,7.3c0,20.3-0.6,41,0.5,61.6c0.2,3.9,6.7,9,11.3,10.8c158.1,60.1,316.2,120.3,474.8,179.1
			c10.8,4,25.3-1.2,37.9-3c22.2-3.2,43.6-13.9,66.8-2.6c19.5,9.5,30.6,23.6,31.9,45.4c4.6,80.9,9.3,161.8,13.7,242.7
			c0.3,5.7,0.3,11.9-1.6,17.1C909.6,1255.9,910.4,1258.5,946.5,1275.2z"/>
		<path class="st0" d="M924.7,463.7c43.9-21.2,87.8-42.4,132.4-63.9c-23.6-77.4-46.6-152.2-69.2-227.1c-2.2-7.5-2-15.7-2.8-23.6
			c2.5-0.4,4.9-0.9,7.4-1.3c24.4,81.2,48.7,162.4,73.9,246.2c54.7-31.2,108.4-59.3,150.5-104.4c5.7-6.1,10.5-13.6,13.6-21.3
			c6.9-16.7-1.1-30.8-18.6-36.2c-15.5-4.7-32-8-46-15.8c-10.8-6-18.3-17.8-24.8-29.9c24,21.6,53.3,27.9,82.8,34.6
			c18.1,4.1,27.6,17.5,21.1,35.3c-7.3,19.7-17.6,39.5-31.1,55.5c-34.2,40.6-78.9,68.2-126,91.4c-13.8,6.8-20.2,13.8-16.8,29.6
			c7.6,35.6,14.3,71.5,21.3,107.3c0.9,4.4,1.9,8.7,2.8,13c-1.8,0.4-3.6,0.9-5.4,1.3c-11.4-44.5-22.7-89.1-34.1-133.4
			c-32.9,11.7-68.9,24.9-105.2,37.3c-8.4,2.9-17.6,3.4-26.4,5L924.7,463.7z"/>
		<path class="st0" d="M822.7,802.1c-35,12.9-66.2,8.6-96.2-6.2c7.7-2.2,15.9-4.6,24.1-7c0-1.8,0.1-3.6,0.1-5.3
			c-32,13.5-61.1,3.2-91.3-7.4c9.5-2.4,18-4.7,26.6-6.9c0-0.8-0.1-1.6-0.1-2.3c-2.8-0.4-5.9-1.7-8.3-0.9
			c-38.3,12.7-71.6-8.7-106.9-16c-14.7-3-28.5-10.3-42.9-15c-17-5.5-34.2-10.2-53.4-15.9c10.1-2.8,18.9-5.3,27.7-7.8
			c0-0.7,0-1.5-0.1-2.2c-2.6-0.2-5.6-1.4-7.7-0.4c-26.2,12-50.1,0-74.5-6.7c-23.2-6.4-46.4-13-72.1-20.3
			c24.8-7.1,45.9-13.1,71.1-5.1c126.1,40.2,252.9,78.4,379.4,117.3C805.9,796.4,813.6,799.1,822.7,802.1z"/>
		<path class="st0" d="M643.5,395.5c26.9-23.4,53.7-46.8,80.6-70.2C828,234.7,931.7,143.9,1036,53.8c7.9-6.8,20.5-11.4,31-11.5
			c69.7-1,139.5-0.5,209.2-0.5c0.7,2.3,1.4,4.7,2.2,7c-30.8,27.3-61.5,54.6-92.3,81.9c-0.2-0.2-0.4-0.4-0.7-0.5
			c23.1-22.7,46.2-45.4,69.2-68c-1.2-2-2.3-3.9-3.5-5.9c-4.6-0.6-9.2-1.8-13.7-1.9c-56.2-0.6-112.4-1.5-168.5-0.9
			c-9.2,0.1-20,5.1-27.2,11.3C917.3,172.5,793.4,280.9,669.1,388.9c-6.2,5.4-14.7,8.3-22.1,12.4
			C645.8,399.3,644.6,397.4,643.5,395.5z"/>
		<path class="st0" d="M1317.9,516.6c-11,3.3-18.3,5.2-25.5,7.6c-28.3,9.8-57.2,18.2-84.4,30.4c-18.3,8.2-17.7,15.8-2.9,29.8
			c12.5,11.9,11.2,22.1-6.6,26.4c-27.8,6.7-56.4,10.6-84.8,14.1c-71.3,8.8-142.7,16.7-214.1,25.1c-5,0.6-9.9,2.1-18,3.9
			c2.9,17.1,3.2,34.5,9,49.8c22.2,58.5,3.5,101.8-55.3,123.1c-4.9,1.8-9.9,3.5-14.9,4.9c-24.9,7-24.9,7-34.1,32.7
			c0-12.8,0-22.6,0-31.9c17.3-6,34.4-10.4,50.2-17.8c42.6-19.9,56.9-54.5,45.6-100.3c-5.5-22.4-6.7-45.8-10.2-70.8
			c40.8-5,77.6-9.7,114.4-14.1c59-7,118.1-13.7,177.1-20.7c6.4-0.8,13-2.3,18.9-4.7c10.5-4.2,14.6-11.9,6.4-21.4
			c-14.1-16.2-5.4-28.2,8.8-34.2c26.8-11.5,55-19.9,82.6-29.4c2.9-1,6-1.4,9-2.1c0.3-2,0.6-4,1-6c-38.5-8.4-77.1-16.7-113.8-24.7
			C1201.1,482.9,1295.3,501.1,1317.9,516.6z"/>
		<path class="st0" d="M877.6,458.9c-9.7,52.5-18.8,102.1-28.3,153.3c-53-12.2-110-25.3-167-38.5c0.2-0.9,0.3-1.7,0.5-2.6
			c53,9.2,106.1,18.4,156.3,27c9-43.9,17.5-85.8,26.5-129.4c-51.3-23.9-106.9-39.9-164.8-46.8c-32.3-3.8-65.1-3.3-97.7-5.1
			c-12.9-0.7-19.3,3-23.1,16.9c-8.3,30.5-22.9,58.2-43.8,76.3c14.5-30.6,30.9-65.1,49.3-103.8C684.3,401.4,785.1,419.3,877.6,458.9z
			"/>
		<path class="st0" d="M383.7,565.7c6.1,1.3,12.2,2.2,18.2,3.8c142.3,38.3,284.6,76.7,426.9,115.1c21.1,5.7,29.6,17.7,29.5,34.3
			c-9.6-5.7-21.1-16.1-34.4-20c-141-40.7-282.3-80.3-423.5-120.2c-6.4-1.8-12.6-4.3-18.9-6.5C382.3,570.1,383,567.9,383.7,565.7z"/>
		<path class="st0" d="M913,858c98-19,195.9-38,295.9-57.4c0-26,0-51.8,0-77.9c20.4-3.7,39.1-5.8,57.1-10.6
			c26-7,30.9-14.6,33.1-41.3c2.7-33.2,5.8-66.3,8.8-99.5c0,41.6,0.9,83.2-0.9,124.6c-0.3,6.7-11.8,15.7-19.8,18.6
			c-21.4,7.6-43.7,12.5-68,19c0,17.8-0.9,36.6,0.3,55.4c0.9,14-4.2,19.6-17.8,22c-79.1,13.7-158.2,28.1-237.2,42.2
			c-16.6,3-33.3,5.3-50,8C913.8,860,913.4,859,913,858z"/>
		<path class="st0" d="M806.9,280.2c4.5-3.2,9.3-6,13.4-9.6c69.5-61.3,138.7-123.2,208.9-183.8c9.4-8.1,23.7-13.5,36.2-14.6
			c23.9-2.1,48.3-1.7,72.2,0.4c22.9,2,25,9.2,14.5,29c-8.1,15.2-14.3,31.4-25.1,46.5c4.7-20.5,9.4-40.9,14.5-63.5
			c-6.8-1.4-14.2-4.1-21.6-4.3c-39.9-1.3-75.1,5.3-107.3,35c-60,55.3-124.5,105.7-187.1,158c-4.7,3.9-9.8,7.4-14.6,11.1
			C809.5,283.1,808.2,281.6,806.9,280.2z"/>
		<path class="st0" d="M1133.1,872.6c-21.3,5.7-42.5,12-64,17c-44.9,10.3-69.1,37.1-72.3,82.4c-6.3,87.7-12.2,175.4-20.9,264.7
			c-2.8-9-8.5-18.3-7.8-27.1c6.1-81.3,12.7-162.6,20.3-243.8c4.1-42.8,29.3-72.5,69.4-82.6c24.5-6.1,49.6-9.3,74.5-13.9
			C1132.6,870.4,1132.9,871.5,1133.1,872.6z"/>
		<path class="st0" d="M784.9,898.3c6-2.1,11.9-5.1,18.2-6.1c111.3-18.4,222.6-36.5,333.8-55c8.5-1.4,16.7-4.6,27.6-4
			c-5.2,3.1-10.2,7.9-15.8,8.9c-103.3,18.3-206.8,36.1-310.2,54c-17.2,3-34.4,5.8-51.6,8.7C786.3,902.7,785.6,900.5,784.9,898.3z"/>
		<path class="st0" d="M661,984.1c0,39.3,0.5,75.8-0.5,112.2c-0.2,5.9-6.4,12-10.8,17.2c-8.3,9.9-9,18.4,2.6,26
			c19.7,12.8,39.2,26.1,59.2,38.4c14.7,9,37.7-1.9,52.1-21.2c-1.9,8.9-1.5,23.9-6.2,25.7c-15.2,5.9-29.1,22.8-48.3,10.7
			c-20.5-12.9-40.9-25.8-61.1-39c-18.1-11.8-18.7-35.5-3.2-50.3c5.3-5.1,9.2-14,9.6-21.4c1.9-31.3,2.2-62.7,3.1-94
			C657.5,987.9,658.2,987.5,661,984.1z"/>
		<path class="st0" d="M570.9,593.6c58.5,15.6,116.9,31.2,175.4,46.8c34.1,9.1,68.2,18,102.2,27.4c5.3,1.5,13.5,4,14.5,7.7
			c9.5,33.2,20.4,66.7,3.8,101c-0.5,1-2,1.5,1.1-0.7c-1.8-23.9-3-50.4-6-76.7c-1.7-15-11.8-22.3-27-26.5
			c-83.7-22.9-167.1-47.1-250.6-70.9c-5-1.4-9.9-3.1-14.8-4.7C570,595.9,570.5,594.7,570.9,593.6z"/>
		<path class="st0" d="M773.5,873.3c-102.1-37.9-200.7-74.4-299.2-110.9c0.4-1.3,0.9-2.5,1.3-3.8c95.6,33.3,191.3,66.6,289,100.6
			c0.8-13.6,1.5-24.9,2.3-36.8c11.6-1.7,22.4-3.3,33.1-5c0.3,1.1,0.5,2.2,0.8,3.3c-8.7,2.2-17.4,4.5-27.3,7
			C773.5,842,773.5,856.2,773.5,873.3z"/>
		<path class="st0" d="M485.6,537.9c124.3,32,248.7,64.1,373,96.1c-0.5,1.9-1,3.9-1.5,5.8C733,607.9,608.9,576,484.8,544.1
			C485.1,542.1,485.3,540,485.6,537.9z"/>
		<path class="st0" d="M1136.4,606.2c-17.6-60.3-33.9-116.3-49.5-169.6C1104.5,453.6,1147.1,585.2,1136.4,606.2z"/>
		<path class="st0" d="M896.9,589.8c32.8,0,65.5-0.2,98.2,0.2c7.6,0.1,15.3,2.2,22.9,3.8c23.3,5,46.5,10.2,69.8,18.9
			c-17.1-1.8-34.8-1.1-51-5.9c-23.5-6.9-46.3-12.6-70.5-5.4C940.4,609.2,918.4,596.4,896.9,589.8z"/>
		<path class="st0" d="M924.1,463.3c6.7,1.6,13.4,4.5,20.1,4.6c28.6,0.5,57.1,0.2,85.7,2.6c-48.8,3.1-97.5,6.2-146.3,9.3
			c-0.5-2.1-1.1-4.3-1.6-6.4c14.3-3.2,28.5-6.4,42.7-9.7L924.1,463.3z"/>
		<path class="st0" d="M1138.5,978.6c-12.4-30.2-14.1-61.1-5.4-93.3c1.1,3.2,3,6.3,3.3,9.6c2.3,22.8,4.7,45.5,6.2,68.3
			c0.3,4.9-2.9,10-4.5,15C1138.1,978.3,1138.5,978.6,1138.5,978.6z"/>
		<path class="st0" d="M1089.5,982.8c2.6-31,5.3-62,7.9-93c2-0.2,4-0.3,5.9-0.5c0,15.7,1.2,31.6-0.3,47.2c-1.6,15.7-5.9,31.2-9,46.8
			C1092.5,983.1,1091,983,1089.5,982.8z"/>
		<path class="st0" d="M957.6,1313.2c-12,11.7-34.2,14.9-39.8,6.4c-7.9-12-6-23.9,5-35.6C931.3,1317.9,931.3,1317.9,957.6,1313.2z"
			/>
		<path class="st0" d="M1138.1,978.3c0.3,5.1,1.7,10.4,0.7,15.2c-1.9,8.5-2.9,20.6-8.6,24.1c-6.5,4-17.8,0.2-27.9-4
			c19.4,0.8,27.4-7.6,28-25.5c0.1-3.3,5.4-6.3,8.2-9.5C1138.5,978.6,1138.1,978.3,1138.1,978.3z"/>
	</g>
</g>
<g id="Layer_2_1_">
	<g>
		<g>
			<path class="st1" d="M729.3,485.8c0.7-0.4,1.7-1,2.2,0.1c2.5,5.6,7.3,10.5,7.2,16.9c-0.2,6.8-4.6,12.5-6.1,19.2
				c-0.5,2.4-2.7,3.6,0.2,5.7c1.1,0.8,1.7,2.4,1.3,3.7c-1.9,7.1-0.3,14.5-3.2,21.5c-2.1,5.3-4.9,10-7.9,14.9
				c-2.7,4.4-6.1,7.9-9.7,11.4c-3,3-6,5.5-10.4,5.8c-2.6,0.2-3.7,3-5.7,4.5c-4.3,3.3-9.7,2.8-14.2,5.2c-0.7,0.4-2.2-0.2-3.1-0.7
				c-5.5-2.9-7.5-2.7-12.4,1.1c-1,0.8-2.3,1.2-3.5,0.9c-11.4-1.8-22.9-2.4-33.9-6.2c-1.6-0.6-2.9-0.3-4.2,0.8
				c-2.4,1.8-5,2.4-7.5,0.1c-0.6-0.5-1.3-0.7-2.2-0.7c-3.3,0.2-5.5-1.4-6.6-4.5c-0.8-2.6-2.8-3.8-5-5.2c-5-2.9-10.7-5.2-14-10.4
				c-0.2-0.2-0.4-0.5-0.6-0.5c-14.5-6-21.2-19-26.5-32.2c-4.1-10.2-5.2-21.3-1-32.3c1.7-4.4,3.3-8.7,6.1-12.6
				c0.3-0.4,0.4-1.1,0.8-1.4c3.1-2.1,5.9-4.5,7.3-8.3c0.8-2.1,3.5-3.2,5.3-4.7c4.4-3.7,6-9.8,12-12.3c1.9-0.8,3.5-5.6,2.7-8.9
				c-0.8-3.1,0.6-5,2.4-7c1.9-1.9,4-2,6.4-0.9c4.8,2.2,9,0.4,13.7-1.5c5.6-2.2,6.8-7.2,9.2-11.2c3.1-5.2,7.7-9.8,8-16.4
				c0.1-1.6,0.3-2.9-0.6-4.3c-2.1-3-4.1-6.1-6.3-9.1c-1.7-2.4-2.3-5-2.3-7.8c0-1.6,0.4-3.2,1.7-3.5c4.6-1,4.1-4.6,4.1-7.7
				c0.2-7.4,0.6-14.7,2.6-21.8c1.7-5.9,4.7-11.2,7.6-16.5c1.3-2.3,3.5-3,6.1-1.7c0.8,1.9-1,2.8-1.7,4.1c-4.5,6.5-7.3,13.8-9.1,21.4
				c-0.4,3.4-0.9,6.7-0.5,10.2c0.6,5,0.1,9.7-3.7,13.4c-3.7,3.1-3.7,3.1-0.3,8.3c1.7,2.3,3.1,4.9,4.8,7.2c0.9,1.6,2.3,2.8,2.7,4.7
				c-1.5,8.9-5.2,16.9-10.1,24.4c-3.2,5.1-7.4,9.2-12.8,12.1c-3.6,1.9-7.3,2-11.1,1.4c3.9,0.6,7.7,0.5,11.3-1.5
				c8-4.3,14-10.7,18.2-18.7c2.1-4,4.7-7.8,5.9-12.3c0.8-3.2,1.1-6.4,0.7-8.6c0.9,4.4-0.8,9.4-2.8,14.3c-0.4,1-0.7,2.5-2.4,2.3
				c-0.1-4.2,2.7-7.8,3.1-11.9c0.2-3.7-0.3-7.2-2-10.5c-1.2-2.2-3-3.5-5.1-4.5c-3.7-2.7-3.7-3.2-0.3-6.1c1.8-1.5,2.6-3.8,4-5.6
				c3.1-3,1.7-6.6,1.7-10c-0.2-9.3,2.5-17.7,7.4-25.5c6.9-9.9,15.8-17.6,27.1-22.1c3-1.5,6.2-2.3,9.4-3.2c3.2-1,6.4-0.6,9.4-1.1
				c-0.9-0.8-2.6,1-3.6-1.4c4.4-0.8,8.4-2.6,12.8-0.6c0.9,2-0.2,3.8-1.1,5.5c-4.6,9.3-8.9,18.9-13.5,28.3
				c-4.3,7.9-7.7,16.2-11.7,24.3c-5.4,10.8-10.4,21.7-16.7,32.1c-1.5,2.9-3,6-5,8.7c-1.1,1.2-2.8,1.4-4.1,2.3
				c-5.6,4-8.9,9.7-11.8,15.8c-2.5,5.3-4.8,10.8-7.4,16.2c-1.6,2.8-3,5.6-5.5,7.8c-2.2,2-4.5,3.7-7.8,3.2c-1.2-0.3-2.5-0.6-3.2-1.8
				c-0.8-2.4-1.2-4.8,1.1-6.8c-0.4,0.1-0.7,0.5-1,0.9c-0.4,0.4-0.5,1-0.6,1.5c-0.1,2.1-1,4.5,1.9,5.6c3.9,1.6,7-0.1,9.7-2.6
				s5-5.5,6.3-9c2.4-4,4.3-8.4,6-12.7c0.6-1.5,1.3-3.1,3.1-3.6c2.3,0.9,1.5,3.3,2.4,4.9c0.2,0.4,0.2,0.8,0.3,1.2
				c0,5-1.8,9.7-2.9,14.5c-0.7,3.8-1.8,7.5-2.3,11.3c0.4-3.2,1.4-6.3,2-9.3c1.1-5.1,2.3-10.1,4-15c-0.5-2.9,0-5.6,1.7-8
				c0.3-0.3,0.7-0.6,1.1-0.7c4.6-0.3,5.4,0.4,4.3,4.6c-2.4,9.8-4.5,19.7-6.5,29.5c-0.2,1.4-0.8,2.6-0.5,4c0,0.4,0,0.8-0.2,1.3
				c-0.8,1.6-1.8,2.7-3.9,3.2c-3.7,0.9-6.8,3.5-10.5,4.4c-3.2,1.3-0.3,3.4-0.6,5c0.3,2.4,0.4,4.7,0.6,7.1c-0.4,4-1,8,0.4,12.2
				c0.7,2.3-2.1,4.2-1.6,6.6c-0.7,4.9-3.1,9.3-3.9,14.1c-3,9.2-5.5,18.6-7.5,28.1c-0.1,0.5-0.3,1-0.5,1.5c-1.8,6.5-1.8,6.5,4.5,8.5
				c1.8,0.7,2.4-0.4,2.9-1.8c0.8-2.4,1.7-4.9,2.3-7.3c0.7-2.9,1.9-5.7,2.5-8.6c1.9-5.2,3.5-10.5,5.1-15.8c1.5-3.1,2-6.5,3.5-9.6
				c1-1.9,1.6-3.9,1.7-6c-0.2-2.4,0.9-4.3,2.2-6.2c2.2-3.2,5.5-5.5,8.5-7.8c2.9-2.2,5.7-4.8,8.7-7c0.3-0.2,0.7-0.3,1.1-0.4
				c3.3-2,3.9-3.7,2.4-6.9c-0.4-0.7-0.9-1.4-0.8-2.3c1.2-9,1.6-18.2,4.7-26.9c1.2-3.4,3.3-3.9,8.7-1.9c3.1,1.1,3.9,0.4,3.1-2.7
				c-1.4-2.7-2-5.6-4.1-7.9c-0.2-0.3-0.4-0.6-0.4-1.1c0.5-0.6,0.3-1.1-0.4-1.6c-0.8-1.5-1.8-3-2.2-4.8c-0.3-1.2,0.1-2.5,0.6-3.6
				c3.6-8.5,6.8-17.2,10.8-25.6c1-1.4,2.5-1.3,4-1.1c1.1,0.2,2.3,0.9,3.4-0.2c4.1-9,8-18.2,11.3-27.5c7-17.3,14.1-34.5,21-51.8
				c0.5-1.3,1-2.6,2.3-3.3c3.4-1.1,6.2,1,8.8,2.4c4.2,2.2,7.4,5.7,11.3,8.2c4.6,5.6,9.1,11.4,11.5,18.4c2.1,5.7,3.1,11.5,2.8,17.7
				c-0.7,6-1.7,12-5.5,17.1c-3.1,4.6-6.8,8.7-10.4,12.8c-3.3,2.5-5.5,5.6-6,9.8c0.5-3,1.6-5.8,3.9-7.9c0.9-0.9,1.7-1.3,2.8-0.2
				c0.6,1.4-0.3,2.3-1,3.2c-1.2,1.3-2,2.8-2.2,4.6c-0.3,1.1-0.1,2.2,0,3.3c0.5,4.8-1.3,6.2-5.9,4.5c-0.5-0.2-1-0.5-1.4-0.9
				c-0.5-0.9-0.3-1.9-2-1.9c-5.6,0.1-9.8,2.4-12.8,7.1c-2.8,4.4-5,9-6.4,14c-1.7,4.6-2.7,9.4-3.5,14.3c-1.4,5.9-1.7,11.6-0.4,17.5
				c0.5,5.5,3.3,9.6,6.1,12.1c-3.6-3-5.8-8.3-6.7-14.5c-0.2-3.7-0.9-7.3,0.4-10.9c2.4,0.2,1.9,2.4,2.3,3.8c0.2,3.3,0.2,6.7,1.5,10
				c0.9,4.7,3.3,8.4,7.4,10.9c1.6,1.1,3.3,1,5.1,1.1c1.4,0.7,3.7,0.7,2,3.2c-3.8,2.3-5.5,5.6-5.1,10c0.1,10.9,0.3,21.7-1.8,32.6
				c-1.2,6.3-3.2,12.2-6.8,17.7c-11.4,14.6-26.3,23.8-44.2,28.4c-11.1,2.9-22.2,2.6-33.3,1.7c-10.1-1.1-19.9-3.2-29.4-7.2
				c-4.6-1.9-8.7-4.9-12.9-7.4c-7.6-5.6-14.7-11.7-19.5-20.1c-1.7-2.6-3.3-5.2-4-8.3c0.1-0.9,0.3-1.7,1.3-1.9
				c2.7,2.1,3.2,5.7,5.3,8.2c10.3,15.4,25.6,23.4,42.8,28.5c8.2,2.4,16.6,3.6,25.1,3.8c25-0.1,47.8-5.3,64.1-26.5
				c3.5-5.3,6.2-11,7.7-17.1c1.3-4.8,1.9-9.8,2.1-14.7c0.3-6.8-0.3-13.7-0.3-20.5c0.1,11.6,1.2,23.2-1.7,34.6
				c-1.6,6.3-4.1,12.1-7.7,17.6c-10.5,14.4-25.2,21.6-42.3,24.9c-5.6,1.1-11.2,1.3-16.8,1.9c-25.3-0.1-48.3-6.5-66.9-24.8
				c-2.4-2.4-4.6-5.1-6.4-8.1c-4.4-7.2-8-14.7-8.8-23.3c-0.7-7.5,1.1-14.3,4.5-20.7c2.7-5.1,5.8-10,9.8-14.2
				c4.6-5.2,9.4-10.5,14.3-15.4c1.1-1.2,2-2.7,3.3-3.5c2.1-1.2-0.4-1.6-0.2-2.4c0.4-1.9,1.5-3.5,2.2-5.2c0.4-1,0.1-2.2,0.1-3.3
				c0,0.8,0.1,1.7,0,2.4c-1.8,5.5-5.3,9.6-9,13.7c-2.6,2.7-4.8,5.8-7.7,8.4c-0.9,0.6-1.5,1.7-2.2,2.5c-3.8,3.9-7.6,7.7-10.4,12.3
				c-7,10.2-8,21.4-5.8,33.2c1.5,6.5,3.7,12.7,7.5,18.3c4.8,8.1,11.7,14,19.1,19.7c6.2,4.6,13.1,7.8,19.2,12.2
				c1.1,2.3,1.5,4.9,4.3,5.8c2.9,1.5,5.4,2.4,8-0.7c1.2-1.3,3.1-0.4,4.8,0c9.1,2.4,18.2,4.6,27.5,5.5c1.1,0.1,2.2,0.2,3.3,0.2
				c14.2,0.7,28.3,0.1,40.8-7.9c10-6.3,17.6-14.7,22.8-25.2c4.3-8.9,5.4-18.4,5.1-28c-0.1-2.1-0.5-4.1-0.1-6.2
				c0.1-0.6,0.4-1.2,0.8-1.7c0.5-0.8,1.6-1.5,1.4-2.4c-1-4.6,1.9-8,3.8-11.4c1.6-3,1.8-5.6,0.2-8.5
				C732.4,494.8,731.1,490.2,729.3,485.8z"/>
			<path class="st2" d="M742.6,413.1c0.5-0.7,1-1.5,1.5-2.2c-0.2-1.4,1-2,1.8-2.8c3.5-2.9,6.8-6.1,9.1-10.1
				c3.1-5.1,5.4-10.6,6.1-16.6c0.8-3.7-0.1-7.4-0.2-11.1c0-1.7-0.6-3.6,0.7-5.1c2.1,0.6,2,2.7,2.8,4.2c0.7,4.5,3.3,8.4,3.8,13
				c2.4,11.2-2.8,20-8.7,28.7c-1.4,2.2-2.7,4.4-4.6,6.4c-2.4,3.7-5,7.3-6.5,11.4c-0.6,1.6-1.4,3.3-0.6,5c0.2-0.8-1-2.3,0.9-2.9
				c1,2.9,1.6,5.7-0.1,8.6c-0.3,0.3-0.6,0.4-1.1,0.2c-1.8-1.5-2.9-3.3-3-5.6c0.2-1.4,0.1-2.7-1.8-3.1c-1.8-0.4-2.7-2.1-2.2-3.4
				c1-2.9-0.1-5.7,0-8.5C741,416.8,741.3,414.8,742.6,413.1z"/>
			<path class="st2" d="M747.6,439.4c0.3,0,0.7,0,1,0c-2.3,1.3-4.7,2.2-6.6-0.5c-2.8-2.1-5.6-0.6-8.2,0.3c-1.6,0.6-3,1.7-4.6,2.7
				c-2.5,1.6-3.2,4.8-5.7,6.4c-1.2,0.1-1.8-1-3.4-1.4c1.4,2.6-1.1,4.7,0.4,7c0.7,3.2-1.3,5.8-1.6,8.8c-0.9,3.3-1.6,6.7-1.9,10.1
				c-0.3,3.7-0.2,7.4,0.1,11.1c-2,1.1-2.5-0.7-3.1-1.8c-1.6-2.2-1.5-5.1-2.6-7.6c-1.5-10.7,1-20.8,3.8-30.8c0.7-2.4,1.3-4.8,2.4-7
				c2-3.6,3.8-7.3,7.3-9.6c2.3-1.6,4.7-2.7,7.6-2.2c4.2,1,8.6,2,10.2,6.9C744.3,434.3,745,437.4,747.6,439.4z"/>
			<path class="st3" d="M717.8,296.4c7.4-15.3,14.5-30.6,22.1-45.8c1.8-3.5,1.8-5.2-2.5-5.7c2.3-3.3,5.9-2.6,8.9-2.4
				c2.9,0.2,5.1-0.1,7.1-2.1c1.1-1,2.3-2.2,4-1.4c1.8,1,0.6,2.7,0.5,4.1c-0.1,0.4-0.1,0.8,0,1.3c0.1,0.4,0.2,0.7,0.2,1.2
				c0.1,1,0.1,2-1.1,2.4c-2,0.1-2,2-2.8,3.3c-1.2,2.2-1.2,4.9-3.6,6.3c-0.7,0-1.1-0.3-1.3-0.9c-0.7-3.5,2.6-5.7,2.9-9.6
				c-4,7.7-7.2,15-10.5,22.2c-0.7,1.6-0.9,3.6-2.9,4.3c-0.6-0.1-1.1-0.4-1.4-1c0.6-4.6,3.2-8.4,5-12.5c1.7-3.8,3.1-7.6,5-11.3
				c0.9-1.7,0.6-2.6-1.5-2.5c-2.5,0.3-2.7,2.6-3.5,4.2c-6.5,13.5-13.2,27-19.5,40.6c-1,2.2-1.8,4.7-3.8,6.3
				C718.4,297.5,718.1,297.1,717.8,296.4z"/>
			<path class="st3" d="M757.5,245.1c-2-1.1-0.1-2.3,0-3.4c0-0.8,0.9-1.6-0.1-2.2c-0.9-0.5-1.7,0-2.1,0.6c-2.5,3.6-5.7,4.2-10,3.5
				c-2.2-0.3-5.4-0.2-7.7,1.4c-0.9,0-1.9,0.1-2.8,0c0.1-1.6,1.4-2.5,2-3.9c0.9-1.6,2.3-2.2,4.1-1.9c1.4,0.2,3,0.5,4.4-0.1
				c1-0.2,1.6,0.6,2.3,1c2.4-1,2.8-4.5,5.9-4.6c1.8-0.3,3.7-0.5,5-2.1c0.3-0.3,0.6-0.4,1-0.6c1.6-0.1,1.8-3.3,4-1.9
				C762.7,236.2,761.2,241.2,757.5,245.1z"/>
			<path class="st3" d="M787.4,244c0,0.3,0,0.7,0,1c-0.7,1.2,0.5,2,0.6,3c0.4,2.6,0.3,5-1.7,6.8c-1.9,1.7-4.2,1.5-6.5,0.4
				c-3.4-3.3-3.5-7.4-3.6-11.7c0.5-1.4,1.7-1.7,2.9-2.2C782.7,240.3,785.2,241.5,787.4,244z"/>
			<path class="st3" d="M717.8,296.4c0.3,0.3,0.5,0.5,0.8,0.9c0.7,1.8-0.3,3.3-1,4.7c-9,18.6-17.8,37.2-27,55.7
				c-0.7,1.3-1,2.9-2.6,3.6c-0.7,0-1.3-0.2-0.9-1.1c5.1-10.9,10.2-21.7,15.3-32.7c0.3-0.9,0.4-2,1.3-2.7
				C708.4,315.4,713.1,305.9,717.8,296.4z"/>
			<path class="st2" d="M729.3,485.8c3.7,5.7,6.7,11.6,7.5,18.5c0.4,3.5-3.5,5.3-4,8.7c-0.3,1.9-2.7,3.4-0.8,5.9
				c0.6,0.9-0.9,2.1-2,2.7c-2.8-5.1-0.3-9.7,1.9-13.9c1.6-3,2.1-5.5,0.2-8.3c-0.7-1.5-1.5-2.7-2.2-4.2c-1.5-1.7-1.4-4.2-3.1-5.8
				c-1.2-0.4-2.9,0.4-3.4-1.5C725.8,488.2,727,485.5,729.3,485.8z"/>
			<path class="st3" d="M757.5,245.1c1.9-4.9,3.9-9.7,5.8-14.6c-0.6-1.5,0-2.9,0-4.4c0.3-1.4,1.1-2.3,2.6-2.6
				c1.3-0.1,2.1-0.9,2.7-2.1c-1.2-1.2-3.1-0.4-4.4-1.4c-0.3-0.3-0.3-0.6-0.1-1c2.4-0.1,4.7-0.2,5.1-3.4c-1.1-0.6-2.7,0.3-3.8-0.7
				c0.9-1.4,2.4-1.3,3.8-1.5c1.1-0.1,2.2-0.2,3.3,0c0.4,0.1,0.8,0.2,1.1,0.5c1.1,2.2-2.1,1.9-1.9,3.6c5.8,2.3,5.8,2.3,7.7-1.9
				c0.3-0.3,0.7-0.4,1.1-0.3c0.8,0.4,1.2,1.1,1.4,1.9c0.1,1.7-0.6,3.2-1.6,4.6c-1.1,1.5-2.5,2.5-4.2,1.1c-2.3-1.8-3.8-0.6-5.3,1.1
				c-4.9,5.8-7.5,12.9-9.7,20c-0.3,1-0.2,2.3-1.3,2.9c-1.2,0.3-1.5-1.1-2.3-1.4L757.5,245.1z"/>
			<path class="st3" d="M703.8,324.9c-0.4,0.9-0.9,1.8-1.3,2.7c-2-2.5-4.4-0.3-6.5-0.4c-1.7,0-3.3,0.2-5.3,0.4
				c1.2,1.4,2.5,0.2,4.1,1.4c-7.2,1.5-14,2.7-20.3,5.5c-1.8-0.5-3.1,1.4-4.9,1c-0.4-0.1-0.7-0.3-1-0.6c2.3-2.8,6.3-2.6,9-4.8
				C685.8,326.3,694.8,325.7,703.8,324.9z"/>
			<path class="st3" d="M748.1,275.4c-3.3,9.8-6.6,19.7-9.9,29.6c-1,0.4-1.4-0.2-1.8-1c0.2-4.1,2-8,2.1-12.2
				c1.3-6,4.4-11.5,6.6-17.1c0.4-0.9,1.1-1.6,2.2-1.5C748.3,273.7,748.3,274.5,748.1,275.4z"/>
			<path class="st3" d="M762.8,202.4c2.4-7,3.5-7.8,10.8-8.3c1.7-0.1,3.3,0.2,4.9-0.2c4.7-1.1,6.3,1.2,6.5,5.4c-0.4,2-0.1,4,0.3,6
				c0.3,1.2,0.4,2.4-0.8,3.3c-2-0.7-1.6-2.6-1.9-4.1c-0.4-2.1,0.1-4.3-1.1-6.8c-3.3,3.8-2.5,8.6-3.7,12.7c-0.3,0.3-0.6,0.5-1.1,0.4
				c-2.4-3.3-1.5-6.8-0.5-10.2c0.7-2.7,0.7-3.8-2.8-3.8c-4,0-6.6,1.1-7.6,5.1c-0.3,0.9-0.6,1.8-1.6,2.3
				C763,204.1,763.5,202.8,762.8,202.4z"/>
			<path class="st3" d="M787.8,239.9c-0.6-0.3-1.2-0.5-1.8-0.8c-1.2-1.2-2.5-0.2-3.8-0.4c-1,0-2,0-2.8-0.6c-0.6-1.3,0.5-1.7,1.3-2.3
				c1-0.7,2.6,0.2,3.2-1.4c0.2-1.3-0.3-2.5-0.3-3.7c0.1-2.3,1.4-3.6,3.6-4.1c4.2-0.5,8.4-0.8,10,4.4c-0.4,0.5,0.1,1.6-1,1.7
				c-1.6-0.6-1.8-2.4-2.9-3.3s-2.4-1.4-3.7-0.5c-1.4,0.9-1.8,2.1-0.8,3.5c1.2,1.8,0.4,3.7,0.4,5.6
				C788.9,238.8,788.6,239.5,787.8,239.9z"/>
			<path class="st3" d="M754.5,417.3c2.8-4.4,5.5-8.9,8.4-13.3c4.3-6.6,6-13.8,4.9-21.8c-0.4-0.8,0-1,0.8-0.9
				c1.9,8.2,0.5,15.8-3.9,23c-2.9,4.7-6,9.3-9.4,13.6C754.7,418.1,754.2,418.1,754.5,417.3z"/>
			<path class="st3" d="M761.6,365.1c0.9,5.8,1.6,11.6,0.4,17.4c-1.7,0-1.6-1.4-2-2.4c0.1-9.7-2.5-18.7-6.5-27.3
				c0.1-0.8,0.4-1.4,1.3-1.3C758.2,355.5,759.5,360.5,761.6,365.1z"/>
			<path class="st3" d="M781,236.2c-0.6,0.5-1.1,1-1.6,1.4c-0.4,0.5-0.9,0.6-1.5,0.5c-4.9-0.2-5.4,0.2-6,5.1c0,1.4-1.4,1.9-1.9,3.1
				c-0.5,1.5,1.3,2.1,1.2,3.4c-0.4,0.9-1.1,1-1.9,0.5l-0.3,0l-0.3,0.1c-0.5,0.4-1,0.7-1.7,0.6c-1.1-0.1-2-0.4-2.8-1.2
				c-0.2-1,0.4-1.4,1-2c0.2-0.2,0.6-0.3,0.5-0.5c1-4.7,2.5-7.9,5.5-12c0.5-0.4,0.9-0.8,1.6-0.9C775.8,234.6,778.8,233.8,781,236.2z"
				/>
			<path class="st3" d="M677.4,330c-2.1,3-6.3,2.4-8.7,4.9c-3.9,3.9-9.3,5.7-13.2,9.5c-2.4,2.3-4.2,5.4-7.3,7.1c-0.7,0-1.2-0.2-1-1
				c0.8-1.1,1.5-2.3,2.2-3.5C657.1,338.7,666.7,333.3,677.4,330z"/>
			<path class="st3" d="M723.3,447.8c1.8-2.1,3-4.6,5.4-6.2c0.8-0.5,0.9-0.1,0.8,0.7c-5.9,5.7-7.8,13.4-10.2,20.8
				c-0.9,0.2-1.3-0.2-1.1-1c0.1-2.8,2.3-5.2,1.3-8.1C718.5,450.4,722.1,449.9,723.3,447.8z"/>
			<path class="st3" d="M765.4,261.5c-3.9,4-7.9,1-11.8,0c-0.6-0.8-0.5-1.4,0.3-1.9c0.8-0.3,1.6,0.4,2.4,0c-0.2-1.5-1-2.8-1.1-4.3
				c0.4-1.8,0.3-3.7,2.7-4.2c1.7,1.6,1,3.8,1.5,5.8c0.6,2.5,1.6,4.5,4.7,3.6C764.8,260.5,765.2,260.8,765.4,261.5z"/>
			<path class="st3" d="M754.2,259.6c-0.6,0.5-0.7,1.1-0.5,1.8c-0.2,0.3-0.5,0.6-0.8,0.9c-1.2,0.3-1.5-0.6-1.8-1.4
				c1-4.7,2.3-9.4,5.8-13.1c0.9-0.6,0.6-1.5,0.6-2.4c1.5-0.7,1.6,0.4,1.8,1.4c0.6,1.8-0.1,3.1-1.5,4.1c-0.6,1.5-1.3,3-1.9,4.6
				C755.9,257.2,755.8,258.7,754.2,259.6z"/>
			<path class="st3" d="M784.3,208.5c1.5-2.9-0.9-6.3,0.8-9.2c0.8,2.4-0.2,5.4,3.6,6.7c1.7,0.6,0.8,3.7-0.5,5.5
				c-1,1.4-2.8,2.3-2.7,4.4c-1.7,0-1.7-1.4-2-2.4C783.2,211.6,782.8,209.8,784.3,208.5z"/>
			<path class="st3" d="M776.7,244c0.5,0,1.4-0.1,1.1,0.6c-1.2,3.7,0.4,6.6,2.1,9.6c0.3,0.6,0.6,1.1,0.2,1.7
				c-2.2-0.8-3.8-2.2-4.6-4.3c-0.7-1.2-1.2-2.4-1.3-3.7c-0.1-0.8,0.1-1.5,0.5-2.2c0.5-0.6,0.9-1.1,1.6-1.5
				C776.3,244.1,776.4,244,776.7,244z"/>
			<path class="st3" d="M737.3,241.8c-0.3,1.5-1.3,2.5-2.6,3.3c-5.8,0.7-7.9-1.7-7.8-9.1c0.7-0.3,1.1,0.1,1.4,0.7
				c0.1,0.2,0.2,0.5,0.3,0.7c0.5,1.9,0.6,4.2,2.7,4.7c2.6,0.7,2.3-2.2,3.5-3.3c0.2-0.2,0.4-0.4,0.7-0.5
				C737.4,238.8,737.3,240.3,737.3,241.8z"/>
			<path class="st3" d="M751.9,260.6c0.2,0.7,0.2,1.5,1,1.7c-1.3,4.5-2.9,8.8-4.8,13.1c-0.3-0.8-0.4-1.6-1.4-2
				C746.9,268.5,748.3,264.1,751.9,260.6z"/>
			<path class="st3" d="M787.8,239.9c0-0.8,0-1.4,0.8-1.8c4.7,1.1,6.6-1.6,7.9-5.6c0.2-0.5,0.4-1,0.6-1.6c0.2,1.1,0.6,2.1,0.7,3.2
				C798.4,240.4,794.1,242.8,787.8,239.9z"/>
			<path class="st3" d="M727.7,236.5c-0.3-0.2-0.5-0.5-0.8-0.7c1.3-4.7,2.9-5.5,8.7-4.9c2.2-0.2,2.6,1.4,3,3c-0.1,0.6-0.4,1-1,1.4
				c-0.9,1-1.9-1.4-2.9,0.1C731.9,232.5,729.8,234.7,727.7,236.5z"/>
			<path class="st3" d="M764,219c0,0.2-0.1,0.4,0,0.7c-0.3,0.6-0.8,0.9-1.3,1.1c-1.1,0.3-2.2,0.7-3.3,0.8c-3.2,0.2-4.6,2.6-5.7,5.1
				c-0.7,1.3-1.6,2.6-2.8,3.5c-0.4,0.1-0.7,0.1-1.2-0.1c-0.5-0.6-0.7-1.4-0.5-2.2c0.2-0.6,0.8-0.8,1.3-1.2
				C753.5,221.6,757.1,217.4,764,219z"/>
			<path class="st3" d="M780,256c0-0.6-0.1-1.2-0.2-1.7c1.9,1.5,3.9,1.6,5.7,0.4c2.1-1.4,2.2-3.7,2.1-6c0-1.3-1.9-2.4-0.3-3.7
				c0.4,1.4,1.1,2.8,1.4,4.2C789.6,255.3,785.8,258.2,780,256z"/>
			<path class="st3" d="M736.5,304.1c0.5,0.3,1.1,0.6,1.7,1c-1.5,5.6-3.1,11.3-4.7,16.9c-0.8,0.2-1.1-0.3-1.4-0.9
				c-0.5-3.4,1.1-6.3,1.7-9.5c0.6-2.2,1.4-4.3,2-6.6C736,304.6,736.2,304.3,736.5,304.1z"/>
			<path class="st3" d="M712,474.2c1.5,3.3,1.4,7.5,4.7,10c0.3,0.1,0.6,0.4,0.8,0.8c0.9,0.8,1.8,1.5,2.7,2.3
				c0.2,0.7,0.1,1.2-0.9,0.9c-4.4-2.1-6.9-5.8-8-10.4C712.1,476.7,710.8,475.3,712,474.2z"/>
			<path class="st3" d="M735.4,230.2c-1.3-1.5-1.2-3.3-0.9-5c0.3-2.4,1.9-4.4,4.3-5c2.2-0.6,4.3,0.5,5.4,2.7c-0.5,0.7-1,1.2-1.9,1.2
				c-4.6-2.2-5.4-1.5-5.6,5.1C736.5,229.7,736.1,230.1,735.4,230.2z"/>
			<path class="st3" d="M754.5,417.3c0.3,0.2,0.5,0.5,0.8,0.7c-1.8,2.9-3.6,5.8-5.4,8.6c-0.7,1.3-1.6,2.6-1.2,4.2
				c-1.1,0.9-0.6,2.3-0.9,3.8C747,429,749.1,423.8,754.5,417.3z"/>
			<path class="st3" d="M754.9,351.4c-0.3,0.4-0.5,0.7-0.8,1.1c-3.2-1.1-3.8-4.6-6.2-6.4c-0.3-0.2-0.5-0.5-0.7-0.9
				c-1-1.6-2.6-2.8-3.3-4.6c0-0.7,0.3-1.1,1.1-1C748.8,343.1,752.4,346.7,754.9,351.4z"/>
			<path class="st3" d="M744.8,339.7c-0.2,0.3-0.5,0.5-0.7,0.9c-1,0.5-1.9,0-2.6-0.7c-3.1-3-6.9-4.8-10.5-7c-0.4-0.5-0.6-1-0.5-1.6
				c0.1-0.4,0.4-0.7,0.7-0.8c0.7,0,1,0.4,1.3,1C736.9,333.7,741.4,335.8,744.8,339.7z"/>
			<path class="st3" d="M784.3,213.3c0.4,0.8,0,2,1.1,2.5c-0.1,1.9-0.2,3.9-0.4,5.8c-0.6,1.6-0.2,3.3-0.7,4.9
				c-0.5,1.5-0.8,3.4-3.1,2.7C781.4,223.7,781.7,218.2,784.3,213.3z"/>
			<path class="st2" d="M782.8,237.7c1.3-0.1,2.6,0.1,3.3,1.4c-1.7,0.1-3,0.7-0.9,2.1c1.1,0.8,2.4,1,2.3,2.8
				c-2.6-1.9-5.3-2.5-8.5-1.9C778.4,239,781.5,239.2,782.8,237.7z"/>
			<path class="st3" d="M729.5,442.3c-0.3-0.2-0.5-0.5-0.8-0.7c3.8-4.1,8.6-4.7,13.8-3.8c0.8,0.1,0.9,0.3,0.6,0.9
				c-0.1,0.2-0.7,0.1-1.2,0.1C737,437.4,733.4,440.2,729.5,442.3z"/>
			<path class="st2" d="M781.4,229.4c2.6-2,2.1-5.4,3.6-7.9c0.4,1.8-0.3,4.1,2.2,5c-1.5,1.2-2.8,2.4-2.9,4.5c-1.4,0.8-2.6,1-3.1-1
				C781.2,229.9,781.3,229.7,781.4,229.4z"/>
			<path class="st3" d="M768.5,381.4c-0.2,0.3-0.5,0.6-0.8,0.9c-0.9-4.4-3.4-8.4-3.4-12.9C765.5,373.4,768.5,376.9,768.5,381.4z"/>
			<path class="st3" d="M718.3,462c0.4,0.3,0.7,0.7,1.1,1c-0.6,3.6-1.2,7.3-1.8,10.9c-1.6,0.2-1.1-0.9-1-1.7
				C716.6,468.8,716.9,465.4,718.3,462z"/>
			<path class="st3" d="M774.3,247.4c1.4,1.2,0.6,2.8,1,4.2c-1.7-1.6-4.2,0.2-5.8-1.3c0.6-0.3,1-0.6,1.6-0.9
				C771.3,247.3,772.2,246.4,774.3,247.4z"/>
			<path class="st3" d="M742.6,223.8c0.3-0.8,0.9-0.9,1.6-0.9c1.6,2.1,2.5,5.1,6.1,3.7c-0.3,0.3-0.6,0.5-0.9,0.9
				c-0.8,1-2,1.3-3.1,1.6c-2.7,0.4-2.1-2.4-3.2-3.4C742.3,225.2,742,224.6,742.6,223.8z"/>
			<path class="st3" d="M769.5,214.4c-1.4,0.2-2.9,0.3-4.3,0.5c-3.7-0.2-2-3.2-2.6-5c0.2-0.3,0.6-0.5,1-0.4c1.6,1.9,3.4,3.3,6.1,2.7
				C770.2,213,770,213.7,769.5,214.4z"/>
			<path class="st3" d="M732.6,331.3c-0.5-0.3-1.1-0.5-1.6-0.8c-1.2-3.4-1.4-6.7,1.8-9.4c0.3,0.2,0.6,0.5,0.9,0.8
				C733.2,325.1,732.1,328.1,732.6,331.3z"/>
			<path class="st3" d="M716.5,472.3c0.4,0.6,0.7,1.1,1,1.7c0,3.7,0,7.3-0.1,11c-0.3-0.2-0.5-0.5-0.8-0.8
				C716.6,480.3,715.4,476.3,716.5,472.3z"/>
			<path class="st3" d="M765.4,261.5c-0.4-0.3-0.6-0.5-1-0.8c-0.5-2.4,1.7-3.6,2.3-5.4c0.6-0.6,0.9-1.8,2.1-1.5
				C769.2,257,767.3,259.3,765.4,261.5z"/>
			<path class="st3" d="M719.3,488.2c0.3-0.3,0.5-0.6,0.9-0.9c1.1,0.2,2.2,0.3,3.3,0.6c1.3,0.9,2.9,0.2,4.3,0.6
				c-0.5,2.2-2.2,1-3.3,1.2C722.6,489.7,720.8,489.5,719.3,488.2z"/>
			<path class="st3" d="M763.5,209.8c-0.3,0-0.6,0-0.9,0.1c-0.7-2.5-0.5-5.1,0.2-7.5c0.9,0.2,0.8,1,1,1.7
				C765.4,206.1,764.8,208,763.5,209.8z"/>
			<path class="st3" d="M735.4,230.2c0.2-0.3,0.5-0.5,0.8-0.9c1.9,0.4,3,2,4,3.4c0,0.6-0.3,1-0.7,1.4c-0.4,0.1-0.7,0.1-1-0.2
				c-0.9-1-1.9-2-2.8-3C735.5,230.7,735.4,230.5,735.4,230.2z"/>
			<path class="st3" d="M768.8,253.8c-0.5,0.6-0.9,1.1-1.4,1.8c-1.6-1.5-1.6-3.1-0.5-5c0.6,0,1.3,0,1.8,0
				C768.9,251.6,768.8,252.7,768.8,253.8z"/>
			<path class="st2" d="M628.2,519.6c3-5.4-0.7-11.4,1.2-16.9c0.1-0.5,0-1.1,0-1.7c0.4-0.3,0.8-0.2,1.2,0.2
				c1.2,3.6,1.1,7.3,0.9,10.9c0.1-3.9,0.2-7.9-1.1-11.8c-0.7-2.3-0.9-4.4,2-5.3c1-1.2,0-1.6-0.9-2c-2.8-1.2-2-3.5-0.4-4.4
				c4.1-2.1,7.8-5.9,13-4.7c2.5,0.7,5,1.7,7.7,2.2c0.3,0.1,0.7,0.2,1.1,0.3c0.8,0.4,2,0.9,1.9,1.4c-0.6,2.5,1.6,2.6,2.8,3.6
				c2.2,2.1,6.2,3.4,3.8,7.7c-1.3,1.6-2.6,2.3-4.3,0.4c-0.9-1.1-2.5-0.9-3.7-1.4c0,0.9,0.3,1.6,0.7,2.4c0.6,1.3,2.2,1.1,3.1,2
				c0,1.8-1.6,2.1-2.6,2.9c-4.4,3.3-8.9,6.5-12.2,11.1c-1.6,1.4-1.7,5.5-5.3,2.9c-0.1-3.3,2.6-5.9,2.7-8.7c-1.1,2.6-1.6,5.8-4,8.2
				c-0.7,0.3-1.5,0.4-2.3,0.3C631.6,518.2,629.9,518.9,628.2,519.6z"/>
			<path class="st2" d="M640.9,522.8c-0.3,2.2-0.5,4.3-1.9,6.1c-2.7,2.4-2.3,6.3-4.1,9.2c-1.5,5.2-3.2,10.3-4.8,15.5
				c-1,2.9-1.8,6-2.7,8.9c-0.5,2.1-1.3,4.2-1.8,6.3c-0.4,1.9-1.6,3.1-3.8,2.9c-6.3-1.1-6.3-1.3-4.6-8.9c2.2-9.7,4.8-19.2,7.5-28.7
				c1.4-4.3,2.6-8.8,3.9-13.1c0.8-2.4,1.9-3.6,4.4-2.2c0.9,0,1.7,0.3,2.2,1.1c0.4,5.1-2.7,9.2-3.8,13.8c-0.9,3.4-2.2,6.7-3,10
				c-1.1,4.4-2.5,8.8-3.2,13.2c-0.7,3.1-1.3,6.1-2.4,10c1.1-3.7,1.6-6.5,2.3-9.2c0.8-4.5,2-8.9,3.2-13.3c0.7-3.5,2.1-6.7,2.9-10.1
				c1.8-4.6,2.9-9.5,5-13.9C638.7,519.5,639.7,521.4,640.9,522.8z"/>
			<path class="st2" d="M644.7,480.7l0-0.3c0.6-8,2.6-15.8,4.7-23.4c1-3.8,4.1-1.4,6.3-1.2c0.9,0.3,1.7,0.6,2.1,1.5
				c-0.1,7.8-2.9,15.1-4.6,22.6c-0.8,1.7-2.7,3.7,1.2,4.1c2.2-0.5,2.5-2.4,3-4.1c1.2-4,2.2-8,3.4-12c1.1-3.4,1.1-6.4-1.2-9.3
				c0.1-0.4,0.2-0.8,0.6-1c2.4-0.1,4.7,0.2,6.1,2.6c-1.8,7.5-4,14.9-5.7,22.5c-0.2,1.2-0.3,2.4,0.3,3.5c1.2-0.8,0.4-1.7,0.2-2.6
				c-0.8-2.4,0.4-4.5,0.9-6.8c1-4.2,2.1-8.5,3.3-12.7c0.5-1.8,0.7-3.9,3.3-4.2c0.6,0,1.2-0.1,1.8,0c2.8,0.6,5.6,2.4,8.4,0.1
				c1.6,1.1,1.7,2.6,0.6,3.9c-1,1.2-2.3,1.3-4,0.5c-6.1-3-7.1-2.5-8.6,4c-1,4.2-2.7,8.5-2.8,12.9c0,3.8,0,7.3-1.3,10.8
				c-0.3,0.8,0.5,1.2,0.9,1.7c2.3,3.3,1,7.1-3,8.5c-1.1-1.3,0.4-2,0.8-3c1.5-1.8,1.2-3.4-0.4-5c-1.5-1.6-2.8-3.3-4.4-4.7
				c-0.7-1.7-2.2-2.3-3.9-2.6l0.1,0.1c-2.3-1.4-5.2-1.4-7.5-2.8C644.1,483.2,643.8,482,644.7,480.7z"/>
			<path class="st3" d="M699.5,481.5c3.2,0.8,4.3,2.2,3.7,4.6c-0.8,3.4-3.4,5.1-6.7,5.1c-3.2,0.1-5.7-0.9-6.8-4.3
				c-1-3.2-0.4-6.4,0.5-9.5c2.2-7.3,4.5-14.6,6.6-21.9c1.2-4.2,1.8-8.4,1.2-12.8c-0.3-2-0.9-3.8-2.5-5.1c-2.1-1.7-4.4-2.4-6.9-0.8
				c-2.6,1.6-2.7,3.8-1.1,6.4c-3-0.6-3.6-2.5-2.5-5c1-2.5,2.9-4,5.6-4.3c3.4-0.3,6.3,0.7,8.3,3.6c2.1,2.9,2.5,6.4,2.4,9.9
				c-0.2,6.3-1.7,12.3-3.9,18.2c-2.1,5.8-4.8,11.6-5.3,17.9c-0.4,4.1,2.6,6.4,6.3,5C701.4,487.7,701.8,485.6,699.5,481.5z"/>
			<path class="st3" d="M635.3,581.5c8.7,0.2,17.4,0.9,26.1-0.5c20.5-3.4,37.6-12.7,50.6-29.1c1.4-0.3,1.5,0.6,1.7,1.5
				c-1.1,4.2-4.4,7-7.4,9.8c-12,11.3-26.1,18.3-42.5,21c-9.3,1.6-18.5,0.8-27.7,0.2c-1.8-0.1-3.7-0.2-4.7-2
				C632.5,580.7,634,581.5,635.3,581.5z"/>
			<path class="st3" d="M739,292.5c0.2,4.1-0.8,8-2.5,11.6l-0.1,0.3l0.2,0.2c-1,2-1.9,4.1-2.4,6.3c-1.7,6-4.6,11.7-6.9,17.4
				c-0.6,1.2-1,2.5-1.6,3.6c-0.2,0.3-0.5,0.5-0.9,0.7c-7,17.3-14.1,34.8-21.2,52.1c-0.4,1-0.9,2-1.4,3c-1.2,0.3-1.5-0.6-1.7-1.5
				c-0.2-1.7,0.5-3.2,1.2-4.8c10.7-25.9,20.5-52.1,31.6-77.9c1-2.4,1.7-5,2.7-7.4C736.8,294.6,736.9,292.7,739,292.5z"/>
			<path class="st3" d="M576.6,544.9c13,18.9,32.3,26.8,53.8,31c6.1,1.2,12.4,1.4,18.5,1.5c-1.2,2.4-3.5,1-5.3,1.3
				c-25.8-1-48.5-8.9-65.6-29.4c-0.9-1-1.6-2.3-2.3-3.4C575.3,545,575.8,544.8,576.6,544.9z"/>
			<path class="st3" d="M724.4,558c-9.6,18.6-24.2,30.5-45.5,33.1c-6.3,0.8-12.7,1.1-19,0.2c0.1-2,1.8-1.6,3-2
				c8.8-0.8,17.6-0.7,26.2-3.4c13.5-4.3,23.2-13,30.5-24.7c1.1-1.6,1.7-3.5,3.6-4.4C724.2,556.9,724.7,557.1,724.4,558z"/>
			<path class="st3" d="M648.1,351.3c5.4-7.3,12.3-12.8,20.6-16.4c0.3,0,0.6,0,0.9-0.1c0.1,1.7-1.5,1.8-2.4,2.3
				c-7.9,4.4-14.4,10.5-19.4,18c-4.1,6.2-6.3,13.1-7.2,20.4c-0.2,1.8-0.3,3.5,0.4,5.2c0.5,2.9,0.4,5.7-0.1,8.7
				c-0.2,1.4-0.6,2.5-2.4,1.8c-1.6-2.5-0.1-5.5-1.4-8.1c-0.7-3.8-0.4-7.5,0.7-11.1c2.4-5.7,3.7-11.9,7.1-17
				C645.9,353.7,646.5,352.1,648.1,351.3z"/>
			<path class="st3" d="M635.3,581.5c-1.1,0.6-2.7-0.1-3.5,1.2c-2.7,1.8-5.4,0.2-8.1,0.1c-1.3-0.2-2.4-0.6-3.3-1.5
				c-0.2-0.2-0.3-0.4-0.6-0.3c0.4,0.3,0.4,0.6,0.2,1.1c-1,0.9-2.1,0.6-3.2,0.3c-1.2-0.6-2.4-0.4-3.7-0.4c-1.2-0.2-0.9-1.4-1.6-2
				c-6.7-3.4-13.3-7.2-19.2-12c-0.2-0.8,0-1.3,0.9-1C606.1,575.6,620.3,579.7,635.3,581.5z"/>
			<path class="st3" d="M643.6,578.7c1.7-0.7,3.9,0.3,5.3-1.3c10.5-0.7,21-2,31-5.8c11.5-4.3,21.2-10.9,28.3-20.9
				c0.7-0.2,1.2-0.2,0.7,0.7c-8.5,13.1-21.4,20-35.8,24.1C663.5,578.2,653.6,579.7,643.6,578.7z"/>
			<path class="st3" d="M638.4,429.7c4.2-5.5,5.6-11.8,5.1-18.6c1.4,4.7,0.7,9.3-0.9,13.8c-2.9,8.2-7,16-13.4,21.6
				c-6.4,5.5-13.6,11.2-23.3,7.2c12.4,2.6,18.8-5.3,25.1-13.7c2.4-1.7,3.2-4.6,4.7-6.8C636.4,431.9,636.2,429.8,638.4,429.7z"/>
			<path class="st3" d="M718,430c3.3-6.2,8.9-8.1,15.5-7.8c0.7,0,1.6,0.1,1.6,0.9c0.1,1-1.4,0.6-1.7,1.4c-0.1,0.2-0.2,0.3-0.3,0.5
				c-8-0.1-12,5.2-15.2,11.4c-3.6,9.3-6.5,18.7-6.7,28.7c0,1-0.1,2-1.4,2.2c-0.7-1.3,0.2-3-1-4.2c-1.4-1.1,0-2.4-0.4-3.6
				c0.9-5,1.8-9.9,3.5-14.7C713,439.6,716.1,435,718,430z"/>
			<path class="st3" d="M641.3,442.7c-3,5.3-4.4,11.4-8.1,16.4c-1.5,1.8-1.6,1.8-2.5,0.1c3.4-7.5,6.2-15.2,10.5-22.2
				c2.3-3.9,4.8-7.7,8.9-10c0.8-0.3,1.9-0.8,2.5,0.1c0.6,0.8-0.2,1.4-0.7,2c-3.6,2.7-5.7,6.5-8,10.1
				C643,440.5,642.7,442.1,641.3,442.7z"/>
			<path class="st3" d="M713.1,553.5c-0.1-0.7-0.3-1.3-1.1-1.5c7.1-11.1,7.9-23.7,8.4-36.4c0.2-4.7,0-9.4,0-14.1
				c2.2,0.1,2,1.9,2.1,3.3c0.4,3.1,0.5,6.2,0.7,9.3c0.2,1.7,0.3,3.4,0,5.1c-0.5,1.8-0.4,3.5-0.2,5.4c-0.5,9-2.5,17.9-6.6,26
				C715.8,551.8,715.4,553.7,713.1,553.5z"/>
			<path class="st3" d="M582.3,483.2c0-1.2,0.5-1.9,1.7-2.1c1.2,0.3,2.3,0.6,1.3,2.2c-0.8,1.2-1.9,2.4-2.9,3.5
				c-4.8,5.3-8.7,11.3-11.8,17.8c-4.1,8.8-3.9,17.6-1.1,26.6c0.6,2.1,2.2,4.2,1.5,6.6c-0.2,0.6-0.4,1.2-0.6,1.8
				c-2.1-0.4-2.2-2.4-2.6-3.8c-1-3-2.3-5.9-2.4-9.2c-1.3-10.8-0.4-21.1,6.2-30.2C574.5,491.4,578.8,487.6,582.3,483.2z"/>
			<path class="st3" d="M691,415.9c-1.1,1.8-2.5,0.3-3.7,0.3c-1.3,0-2.6-1.2-3.8,0.3c-0.3,0.3-0.6,0.4-1,0.2c-0.3-0.5-0.4-1-0.3-1.5
				c-1.2-1.7-3.4-0.9-4.9-2c-0.7-0.5-2.1-0.7-1.6-2c0.3-1.1,1.4-1.1,2.4-1c1.6,0.2,3.2,1.3,4.8,0.3c1.5-1.2,2-3,2.7-4.6
				c4.6-11.1,9.2-22.2,13.9-33.2c0.6-1.6,1-3.6,2.9-4.3c0.7,0,1.1,0.4,1.5,1c-0.7,6-4,11.1-6.2,16.5c-3.1,7.6-6.5,14.9-9.6,22.4
				c-1.1,2.6-0.5,4.2,1.7,5.6C690.6,414.3,690.2,415.4,691,415.9z"/>
			<path class="st3" d="M571,537.7c-3.8-10.2-6.3-20.6-1.9-31.4c3.2-7.8,7.7-14.6,13.4-20.8c0.4,0.4,0.4,0.8,0.1,1.3
				c-3.4,4.4-6.6,8.8-9.4,13.7c-8.1,14.1-5.5,27.7,1.6,41.1c0.6,1.1,1.2,2.2,1.7,3.3c-0.3,0.4-0.5,0.7-0.8,1
				C573.5,543.6,572.6,540.5,571,537.7z"/>
			<path class="st3" d="M663.5,590.3c-1.1,0.5-2.6-0.1-3.5,1.2c-10.8-0.4-21.2-2.9-31.7-5.6c-1.9-0.5-3-0.8-4.7,1.2
				c-2.4,2.8-5.5,0.6-8.2-0.8c-0.1-1.8,1.2-1.3,2.2-1.3c1.3,0,2.6,1.1,3.9,0c0.2-0.5,0.4-1,0.7-1.6c0.4-0.8,0.9-1.3,1.9-1.2
				c11.5,2.9,23.1,5.3,35,6.5C660.7,588.8,662.6,588.3,663.5,590.3z"/>
			<path class="st3" d="M709.7,467.2c0.9-9.2,2.2-18.3,5.7-27c0.6-1.5,1.4-3,2.1-4.5c0.8-0.1,1.3,0.1,1,1
				c-4.4,12.2-7.4,24.5-6.5,37.5c-0.4,1.1,0.5,2.5-0.6,3.5C710.1,474.5,710.1,470.8,709.7,467.2z"/>
			<path class="st3" d="M655.5,456.8c-5.3-1.1-5.3-1.2-6.6,4.4c-1.5,6.4-2.9,12.8-4.2,19.2c-1-0.6-1-1.4-0.8-2.5
				c2.4-10.5,4.5-21,7.2-31.4c0.9-3.7,0.2-4.7-3.4-4.2c1.5-3,3.5-2,5.7-1.1c1.5,2.5,0.1,4.8-0.6,7c-1.1,3.4-1,5.8,3.3,6.2
				c0.6,0,1,0.5,1.2,1C657.2,456.5,656,456.1,655.5,456.8z"/>
			<path class="st3" d="M658.7,416.6c6.2-10.4,11.2-21.5,16.7-32.2c0.7,0.1,1,0.5,1.2,1.1c-1.9,6.4-5.4,12.1-8.2,18.1
				c-0.7,1.6-2.1,3.2-0.1,4.8c0.5,0.7,0.5,1.5,0.4,2.3c-0.9,2-1,4.4-3.3,5.7c-0.7,0-1.1-0.4-1.4-0.9c-0.4-1.2,0.8-2.2,0.5-3.8
				c-2.3,1.5-2.2,4.7-4.5,5.9C659.3,417.6,658.9,417.2,658.7,416.6z"/>
			<path class="st3" d="M691,415.9c-1.6,0.3-1.2-0.8-1.1-1.7c-0.5-2.3,0.8-4.3,1.5-6.3c2.4-6.8,5.6-13.4,8.2-20.2
				c0.4-0.9,0.5-2,1.9-1.8c0.1,0.7,0.2,1.3,0.9,1.6C698.6,397,694.8,406.5,691,415.9z"/>
			<path class="st3" d="M641.3,442.7c2.2-5.4,4.9-10.5,9.8-14.1c1.9-0.1,0.9,1.2,1.1,2c-1.2,3.7-3.8,6.7-5.2,10.2
				c-0.3,0.6-0.8,1.1-1.2,1.7c0.5,2.4-0.3,4.2-2.6,5.2C641.4,446.4,643,444,641.3,442.7z"/>
			<path class="st3" d="M724.4,558c-0.3-0.3-0.6-0.6-0.9-0.9c-0.9-1.5,0-2.9,0.4-4.4c2.4-7.7,3.8-15.4,3.2-23.6
				c-0.2-2.8-0.2-5.7,1.2-8.4c1.6-0.1,1.4,0.9,1.1,1.9c0.8,11,0.7,22-3.6,32.4C725.5,556.1,724.9,557.1,724.4,558z"/>
			<path class="st3" d="M725,332.5c-0.1-0.2,0-0.5,0.1-0.8c2.2-2.9,4.1-1.7,6,0.4c5.1,1.6,8.9,5.3,13,8.3c1.1,1.7,3.2,2.6,3.8,4.7
				c-2.1,0.5-2.7-1.3-3.7-2.4c-4.3-1-6.5-5.2-10.4-7C730.9,334.4,728.3,332.5,725,332.5z"/>
			<path class="st3" d="M572.4,495.9c-6.5,9.3-7.4,19.7-6.3,30.5c-0.8,1.1,0.5,2.5-0.7,3.5c-3-12.5-1.5-24.2,6.1-34.9
				C572.2,495,572.6,495.1,572.4,495.9z"/>
			<path class="st3" d="M715.3,534.4c2.8-11.7,2-23.7,2.5-35.5c0.4,12.2,2.5,24.4-1.6,36.5C715.7,535.3,715.6,534.7,715.3,534.4z"/>
			<path class="st3" d="M625.3,534.2c-2.5,9.5-5,19.1-7.5,28.6c-0.8,0.2-1.3,0-1-0.9c1.7-9.7,4.4-19.2,7.4-28.6
				C625.1,533,625.5,533.3,625.3,534.2z"/>
			<path class="st3" d="M644.7,480.7c0.2,1.2,0.2,2.4,1.1,3.3c-0.3,0.9-1.3,0.4-1.7,1c-5.2-1.6-8.7,1.9-12.4,4.5
				c-1.3,0.8-2.4,2.6,0.9,2.8c1.7,0.1,3.1,1.5,1.3,3.5c-2.6-1.2-4-0.8-3.6,2.4c0.1,1,0.8,2.2-0.4,3c-0.2-0.1-0.4-0.1-0.6-0.1
				c-0.2-2.7-0.4-5.5-0.6-8.1c0.8-1.6-1.3-4,1.3-5.2C635.2,485.7,640.1,483.5,644.7,480.7z"/>
			<path class="st3" d="M630.7,459.3c0.9,1.3,1.7,0.2,2.5-0.1c-1.7,5-4.9,8.7-9.2,11.5c-2.6,1.6-5.4,2-8.1,0.5
				c0.2-1.8,1.5-1.1,2.4-0.9c4.8-0.2,7.5-3.5,10-7.1C629,461.8,629.9,460.6,630.7,459.3z"/>
			<path class="st3" d="M582.6,486.9c0-0.4-0.1-0.8-0.1-1.3c0.3-1.6,3.5-2.2,1.5-4.5c2.6-2.7,5-5.4,7.6-8.1c1.4-0.2,2.1-1.7,3.5-1.7
				c0.6,0,1.2,0.1,1.6,0.6C592,476.8,587.3,481.8,582.6,486.9z"/>
			<path class="st3" d="M647.5,354.7c5.2-9,13.7-14.4,22.1-19.8c1.6,0.6,2.9-2,4.7-0.5c-10.8,4.4-19.3,11.7-26,21.1
				C647.6,355.7,647.2,355.5,647.5,354.7z"/>
			<path class="st3" d="M672.2,445.7c1.3,1.3,2,3,2.7,4.7c-1.9,1-2.3-0.8-3.1-1.6c-2.1-2.4-4.5-4.3-7.7-4.8c-3.8-2.4-8.2-3-12.7-3.4
				c-1.1-1.8,0.9-2.2,1.5-3.2c0.9-0.9,2-1.1,3.3-0.6c2.1,0.9,4.3,1.3,6.5,1.8c0.3,0.1,0.7,0.2,1,0.3c2.4,1.4,4.9,2.6,7.1,4.3
				C671.3,444.1,671.7,445,672.2,445.7z"/>
			<path class="st3" d="M742.2,432.4c-1.5-4.7-5.7-5.6-9.7-6.7c0-0.6,0.5-0.6,0.9-0.9l0-0.3c0.8,0.2,1.5,0.4,2.4,0.7
				c4.3,1.4,4.7,1,4.1-3.5c-0.2-1.4-0.7-3,0.3-4.4c1,0.2,0.5,1.3,1,1.8c-0.1,2.7,1.1,5.3,0,8c-0.4,1-0.2,2.6,2.2,2.5
				c2.2-0.1,2.8,2.5,1.5,4.2C743.3,434.4,743.2,432.5,742.2,432.4z"/>
			<path class="st3" d="M642,515.9c3.4-6.2,9.7-9.1,14.9-13.3c0.1-0.7,0.5-1.1,1.1-1.4c0.8-0.1,1.7-0.2,1.5,1.1
				c-5,5.4-11.9,8.7-16.6,14.4C642.2,516.9,641.8,516.8,642,515.9z"/>
			<path class="st3" d="M593.4,567c-0.3,0.4-0.6,0.7-0.9,1c-7.5-5.3-14.5-11.2-18.9-19.5c-0.6-0.9-0.1-0.9,0.7-0.9
				C579.4,555.2,585.7,561.7,593.4,567z"/>
			<path class="st3" d="M672.2,445.7c-0.6-0.5-1.2-1.1-1.8-1.5c0.5-4.5,3-8.3,4.6-12.4c1.5-4,3.2-8,4.9-11.9
				c0.6-1.3,0.8-3.1,2.7-3.3c0.3,0,0.7,0,0.9-0.1c-3.3,8.2-6.8,16.3-10.1,24.6C672.8,442.5,672,443.9,672.2,445.7z"/>
			<path class="st3" d="M676.2,385.3c-0.3-0.3-0.5-0.5-0.8-0.9c3.8-8.1,7.4-16.3,11.7-24.2c0.3,0.3,0.5,0.5,0.8,0.9
				c0.8,0.9,0.4,1.8,0,2.7c-3.3,6.5-6.3,13.1-9.6,19.6C677.8,384.1,677.4,385,676.2,385.3z"/>
			<path class="st3" d="M651,440.3c5-0.9,9.5,0.3,13.7,3.2c1.9,0.1,3.1,1.3,3.6,3.1c-0.2,0.3-0.5,0.5-1,0.6c-1.8,0-3.2-1.3-4.6-2
				c-1-0.6-2-1-3.1-1.4c-1.9-0.9-4.3-0.5-6-2.1c-2.1-0.7-4-0.8-5.9,0.4l-0.3,0l-0.3,0.2c-1,0.5-2.1,1.2-2.5-0.7
				c0.5-0.4,0.9-0.7,1.4-1.1C647.6,439.5,649.3,439,651,440.3z"/>
			<path class="st3" d="M647.5,354.7c0.3,0.3,0.6,0.5,0.9,0.9c-4.7,7.8-7.6,16.2-7.4,25.5c-2.4-7.1,0.5-13.5,2.9-19.8
				C644.7,358.8,646.2,356.8,647.5,354.7z"/>
			<path class="st3" d="M729.5,522.7c-0.4-0.6-0.7-1.2-1-1.8c-2.2-2.5-0.5-5.2-0.2-7.8c0.2-1.8,1-3.5,1.9-5c1.6-2.6,2.1-5.2,1.3-8.2
				c0.2-0.7,0.7-1.1,1.3-1.3c2.1,3.2,3.1,5.9,0.1,9.6c-3,3.6-3.3,8.6-2.8,13.4C729.9,521.9,729.7,522.3,729.5,522.7z"/>
			<path class="st3" d="M574.2,547.6c-0.2,0.3-0.5,0.6-0.7,0.9c-4.1-5.5-6.8-11.7-8.1-18.4c0.4-1.1-0.4-2.6,0.7-3.5
				c1.1,4.5,1.9,9,4.3,13.1C571.6,542.3,572.9,545,574.2,547.6z"/>
			<path class="st3" d="M638.4,429.7c-1.7,2.9-3.3,5.9-5.1,8.7c-0.5,0.7-0.5,2.8-2.4,1.7c4.3-7.6,9-15,10.3-23.8
				c1.6-0.2,1.1,0.8,0.9,1.6C641.8,421.9,639.9,425.8,638.4,429.7z"/>
			<path class="st3" d="M678.9,460c-2.2,5.2-5.4,1-8.2,0.8c0-0.7,0.3-1,0.9-1.4c1-0.6,2.5,0.9,3.3-0.7c0.1-2.3-2.5-4.4-0.4-6.8
				C677.9,453.6,677.7,457.2,678.9,460z"/>
			<path class="st3" d="M648.1,351.3c-4.3,6.7-8,13.7-9.3,21.6c-0.1,0.3,0.2,1.4-0.6,0.4c-0.2-0.3-0.1-0.8-0.3-1.2
				c1.5-7.9,4.5-15.1,9.3-21.5C647.5,350.8,647.8,351.1,648.1,351.3z"/>
			<path class="st3" d="M622.9,585.8c-1.5,1.8-3.1,0.6-4.7,0.4c-0.9-0.1-1.9-1.5-2.7,0.2c-2.8-1.1-3.7-3.6-3.9-6.3
				c0.6,0.5,1.2,1,1.9,1.5c1.2,2.2,2.2-0.7,3.2-0.1c1.2,0.3,2.3,0.5,3.5,0.8c0.3,0.2,0.4,0.6,0.5,0.9C621,584.2,622,585,622.9,585.8
				z"/>
			<path class="st3" d="M722.2,514.7c-1.1-4.3,0.5-9-1.8-13.2c-0.1-4.5,1.2-8.2,6-9.7c0.1,0.2,0.1,0.4,0.2,0.6
				c-4.3,5.6-3.8,11.9-2.5,18.4c0.1,0.7,0.2,1.2,0.1,1.8C723.9,513.6,723.6,514.6,722.2,514.7z"/>
			<path class="st3" d="M758.4,379.3c-0.1-6.3-1-12.5-3-18.6c-0.2-1.1,0.2-1.3,1.1-0.9c3.3,7.1,4.7,14.5,3.1,22.3
				C757.5,381.8,758.4,380.3,758.4,379.3z"/>
			<path class="st3" d="M625.3,534.2c-0.4-0.3-0.7-0.6-1.1-0.9c1.3-4.6,2.6-9.1,4-13.7c1-2.9,2.9-2.2,4.9-1.2
				c0.3,0.1,0.4,0.4,0.4,0.6c-0.1,0.2-0.1,0.3-0.2,0.3c-2.4-0.9-3.5,0-4.2,2.5C628,525.9,626.5,530,625.3,534.2z"/>
			<path class="st3" d="M640.9,463.6c0.6-5.1,2.6-9.9,2.4-15.2c2.7-1.2,1.2,2.3,2.7,2.4c0.3,0.5,0.8,1.3,0.8,1.3
				c-4.6,3.2-3.3,8.7-5,13C640.4,465.2,640.6,464.5,640.9,463.6z"/>
			<path class="st3" d="M708.6,474.7c0.8,2.4,1.5,5,2.5,7.3c1.5,3.4,3.7,6.4,8,8.4c-5.7-1-10.2-6.8-11.1-13.3
				C708.5,476.4,707.7,475.3,708.6,474.7z"/>
			<path class="st3" d="M629.5,553.4c1.1-5.5,3.2-10.6,5.1-15.9c0.8-0.2,1.3,0,1,0.9c-1.6,5.3-3.3,10.7-5,15.9
				C629.8,554.6,629.3,554.3,629.5,553.4z"/>
			<path class="st3" d="M594.5,471.9c-1,0.2-1.2,2.6-2.8,1c3.2-4.2,7.1-8,9.2-13.1c0.7-0.3,1.1-0.2,0.9,0.7
				c-0.8,1.7-1.5,3.4-2.3,5.1C598.5,468.4,597.3,470.8,594.5,471.9z"/>
			<path class="st3" d="M756.2,359.7c-0.2,0.3-0.5,0.6-0.8,1c-2.6-6.7-7.2-12.1-11.2-17.9c1.5,0.5,2,2.3,3.7,2.4l-0.1,0
				c2.7,3.2,5.1,6.7,7.2,10.4C755.6,356.8,756.8,358,756.2,359.7z"/>
			<path class="st3" d="M715.3,534.4c0.4,0.3,0.6,0.5,1,0.8c-1.4,5.9-3.6,11.4-7.4,16.2c-0.3-0.2-0.5-0.5-0.7-0.7
				C711.1,545.5,713.8,540.3,715.3,534.4z"/>
			<path class="st3" d="M659.6,502.4c-0.6-1.5-1.3-0.1-2,0c-0.7-0.4-0.2-3.2-2.1-0.9c-0.4,0.4-1.3-0.2-1.9-0.2
				c-1.6-1.3-0.7-3-0.8-4.6c1.9,1.6,5.4,0,6.2,3.5c0.6-0.4,1.4-0.8,2-1.2c0.4,0.1,0.7,0.4,0.9,0.7c-0.4,0.9-0.8,1.8-1.2,2.8
				C660.2,502.3,659.9,502.3,659.6,502.4z"/>
			<path class="st3" d="M642,417.8c-0.3-0.6-0.6-1-0.9-1.6c-0.9-1.4-1.9-2.7-2.9-4.1c0.2-0.4,0.4-0.9,0.8-1.1
				c1.2-1.3-0.6-2.5-0.1-3.8c0.2-0.6,0.4-1,1.2-0.8C642.5,409.8,643.4,413.6,642,417.8z"/>
			<path class="st3" d="M746.4,408.8c-0.8,0.7-1.6,1.4-2.4,2.2c-1.1-1.1-1.8-0.5-2.7,0.4c-2.5,2.5-3,5.7-3.8,9.7
				c-1.3-6.2,1.8-9.6,5.2-13c0.6-0.3,1.2-0.4,1.8-0.5c0.3,0,0.7,0,1,0.1C746,407.9,746.4,408.2,746.4,408.8z"/>
			<path class="st3" d="M708.6,474.7c-0.2,0.8-0.4,1.6-0.6,2.4c-0.9-6.4-1.6-12.8,0.1-19.2c0.8,0.3,0.4,1.2,0.9,1.7
				c-0.1,1.2-0.2,2.3-0.3,3.5C708.4,467,708.1,470.9,708.6,474.7z"/>
			<path class="st3" d="M616.8,561.8c0.4,0.3,0.6,0.6,1,0.9c-0.1,0.8-0.1,1.7-0.4,2.4c-1.4,4.1,0.5,5.6,4.3,5.8
				c0.6,0.5,0.6,1,0.2,1.7C614.1,570.8,614.1,570.8,616.8,561.8z"/>
			<path class="st3" d="M758.4,379.3c0.3,0.9,0.6,1.7,0.8,2.6c1.5,3.9-1.1,7-2.1,10.4c-0.8,1.6-1.3,3.5-3.1,4.4c-0.7,0-1.2-0.2-1-1
				C756.2,390.7,757.5,385.1,758.4,379.3z"/>
			<path class="st3" d="M753,395.7c0.3,0.2,0.5,0.5,0.7,0.7c0.7,0.8,0.3,1.6-0.2,2.2c-2.8,3.3-5.2,7-8.9,9.5
				c-0.6,0.8-1.3-0.1-1.9,0.1C746.2,404,749.5,399.8,753,395.7z"/>
			<path class="st3" d="M621.9,572.6c0-0.6-0.2-1.1-0.2-1.7c2.6,0,3.2-1.8,3.7-3.9c0.4-1.7,1-3.3,1.5-5c0.6,0,0.7,0.5,1,0.8
				c-0.9,2.9-1.8,5.8-2.6,8.7C624.7,573.6,623.5,574,621.9,572.6z"/>
			<path class="st3" d="M633.2,519.2c0-0.3,0-0.6-0.1-0.9c0.8-0.1,1.6,0,2.4-0.1c0.6,0.4,1.3,0,1.9,0.5c0.9,1,1.7,1.8,2.7,0.1
				c0.6-1,1.3-1.9,2-2.9c0.3,0.3,0.6,0.6,0.9,0.9c-0.8,2-2.8,3.4-2,5.9c-1.9,0.4-2.3-2.3-4.1-2c-1,0.5-1.3-0.4-1.9-0.8
				C634.3,519.7,633.7,519.5,633.2,519.2z"/>
			<path class="st3" d="M668.7,446.8c-1.3-1.1-2.7-2.1-4-3.2c3.7-0.3,5.7,2.6,7.9,4.9c0.7,0.7,0.8,2.1,2.2,2.1
				c0.1,0.2,0.1,0.4,0.1,0.7c0,0-0.2,0.1-0.3,0.2c-0.6,0.4-1.1,1.1-1.9,1.3c-1.4,0-1.9-1-2.2-2.2
				C670.7,448.8,668.9,448.2,668.7,446.8z"/>
			<path class="st3" d="M708.9,459.6c-0.3-0.6-0.6-1.1-0.9-1.7c0.5-4.9,1.9-9.6,3.4-14.2c0.7-0.2,1.2-0.1,0.8,0.8
				C711.2,449.5,710.1,454.5,708.9,459.6z"/>
			<path class="st3" d="M572.4,495.9c-0.3-0.2-0.5-0.5-0.8-0.8c3-4.5,6.5-8.6,10.8-12C579.7,488,575.3,491.4,572.4,495.9z"/>
			<path class="st3" d="M712.3,444.5c-0.3-0.2-0.5-0.5-0.8-0.8c1.3-5,3.7-9.4,6.5-13.8c1.4,0.9,0.2,1.7-0.3,2.4
				C715.3,436.1,714.1,440.4,712.3,444.5z"/>
			<path class="st3" d="M646,450.8c-1.8,0.2-0.8-2.6-2.7-2.4c-0.1-0.2-0.2-0.5-0.4-0.7c0-0.8,0.1-1.5,1-2.1c1.4-0.8,2.6-2-0.5-2.3
				c-0.8-0.1-0.8-0.5,1-1.6c0.7,0.8,1.6,0.7,2.5,0.7C646.7,445.2,645.1,447.8,646,450.8z"/>
			<path class="st3" d="M637.1,383.2c1.8,2.5,1,5.3,1.4,8.1c-0.9,2.1-1.8,4.1-3.7,5.4c-0.5,0.3-0.9,0.2-1.3-0.1
				C637,392.8,637.5,388.1,637.1,383.2z"/>
			<path class="st3" d="M633.5,396.6c0.4,0.1,0.8,0.1,1.3,0.1c-3,2-2.8,3.9,0.4,5.5c-0.1,0.2-0.1,0.3-0.1,0.4
				c-0.5,0.4-0.3,1-0.5,1.6c-0.2,0.4-0.6,0.7-1.1,0.8C629.9,399.9,629.9,398.8,633.5,396.6z"/>
			<path class="st3" d="M640.9,463.6c0.3,0.5,0.6,1,0.9,1.5c-0.8,3.6-1.8,7-2.6,10.6C638.9,471.4,639.5,467.5,640.9,463.6z"/>
			<path class="st3" d="M594.5,471.9c1.6-2,3.3-4.2,4.9-6.2c3.1,3.7-1.6,4.1-2.6,6.1C596,471.8,595.2,471.8,594.5,471.9z"/>
			<path class="st3" d="M613.6,464.8c0.9-3.2,2.7-4.4,7.3-2.9c-5.1,0.8-6.5,3.1-5.4,6.9C612.5,468.5,614.8,465.9,613.6,464.8z"/>
			<path class="st3" d="M635.6,538.4c-0.4-0.3-0.6-0.6-1-0.9c1.1-3.1,2-6.3,3.4-9.2c0.9-1.8,0.8,0.3,1,0.6
				C637.9,532,636.8,535.2,635.6,538.4z"/>
			<path class="st3" d="M724.3,489.6c1-0.5,2.5,0.1,3.3-1.2c1.1,2.1,2,4.2,3.1,6.3c-0.5,0.5-0.1,1.6-0.9,2c-2.4-0.8-2.2-3.4-3.4-4.9
				l0,0C727.5,489.4,725,490.3,724.3,489.6z"/>
			<path class="st3" d="M627.9,562.9c-0.4-0.3-0.6-0.5-1-0.8c0.7-2.9,1.2-5.9,2.6-8.7c0.4,0.3,0.7,0.6,1.1,0.9
				C629.7,557.2,628.8,560.1,627.9,562.9z"/>
			<path class="st3" d="M658.7,416.6c0.3,0.3,0.5,0.5,0.9,0.9c0,3.7-1.8,6.5-4.5,8.7c-0.7,0-1.2-0.3-1-1.1
				C655.6,422.2,657.2,419.5,658.7,416.6z"/>
			<path class="st3" d="M672.5,452.3c0.4-0.9,1.3-1,2.2-1.1c-0.1,0.3-0.2,0.4-0.2,0.8c-0.9,2.7,2.5,4.8,1.1,7.7
				C672.6,458.1,672,455.4,672.5,452.3z"/>
			<path class="st3" d="M633.4,405c0.3-0.3,0.5-0.6,0.9-0.9c2.8,1.6,4.6,3.8,4.7,7.1c-0.2,0.3-0.5,0.6-0.8,0.9
				C636.6,409.7,635.1,407.4,633.4,405z"/>
			<path class="st3" d="M654.1,425.1c0.3,0.2,0.6,0.5,0.9,0.8c0.3,0.3,0.4,0.6,0.3,1.1c-0.7,1.6-1.2,3.3-2.8,4.4
				c-0.7,0.1-1.1-0.3-1.3-0.9c0-0.6,0.7-1.3-0.3-1.7c0.4-0.5,0.7-1,1.1-1.6c-0.7,0-1.3-0.1-2-0.2
				C651.1,425.6,653.1,426.6,654.1,425.1z"/>
			<path class="st3" d="M601.7,460.5c-0.3-0.2-0.6-0.5-0.9-0.7c-0.1-2.1-0.3-4.1-0.4-6.3c0.4,0,0.7-0.1,1.2-0.1
				C602.2,455.7,603,458,601.7,460.5z"/>
			<path class="st3" d="M613.6,464.8c1.4,0.9,0.1,3.2,1.9,4c0.9,0.4,1.8,1,2.7,1.4c-0.8,0.4-1.9,0-2.4,0.9
				C612.7,469.8,613.1,467.3,613.6,464.8z"/>
			<path class="st3" d="M638.2,477.2c0.8,0.4,2,0.8,1.8,2.1c0,0.6,0,1.7-0.9,1.6c-1-0.2-2.2-0.6-1.7-2.2
				C637.6,478.2,636.7,477.3,638.2,477.2z"/>
			<path class="st3" d="M741.1,419c-0.4-0.6-0.8-1.2-1-1.8c0.3-1.7,0.6-3.4,2.5-4.1C742.9,415.3,741.3,417,741.1,419z"/>
			<path class="st3" d="M640.2,406.2c-0.2,0.3-0.5,0.5-0.7,0.9c-2.5-0.6-4-2.2-4.5-4.7l0.2-0.2C637.5,402.7,639,404.2,640.2,406.2z"
				/>
			<path class="st2" d="M630.2,487.7c-1.6,1.4,0,3.7-1.3,5.2C628.9,491.1,625.6,488.4,630.2,487.7z"/>
			<path class="st3" d="M761,380c0.3,0.9,0,2,1,2.5c-0.7,6-3,11.4-6.4,16.3c-0.7,0.2-1.1-0.3-1.2-0.8c0.2-2.1,1.8-3.5,2.4-5.4
				c1.7-3.7,2.9-7.5,3.2-11.5C760,380.4,760.3,380,761,380z"/>
			<path class="st3" d="M754.8,398c0.3,0.3,0.6,0.5,0.9,0.9c-2.3,4.1-5.7,7.1-9.2,9.9c-0.3-0.2-0.5-0.5-0.7-0.7
				C748.4,404.4,751.1,400.8,754.8,398z"/>
			<path class="st3" d="M751.9,414.2c-0.9-2.2-1.5-4-2.3-5.8C754.3,410,754.3,410,751.9,414.2z"/>
			<path class="st3" d="M742.2,432.4c1.7-1,1.5,1.3,2.5,1.4c0.4,2.1,2.9,3.2,2.8,5.6C743.8,438.6,743.9,434.8,742.2,432.4z"/>
			<path class="st3" d="M749.5,416.7c-0.1-2.5-2.3-4.4-1.9-7.5c2.4,2.4,2.7,5.3,3.5,7.9c0.3,1.1-0.5,1.4-1.5,1.3
				C749.1,417.9,749,417.4,749.5,416.7z"/>
			<path class="st3" d="M749.5,416.7c0,0.6,0.1,1.2,0.1,1.7c-3.2-0.5-2.6-3-2.9-5.5C748.4,414,747.8,416.1,749.5,416.7z"/>
			<path class="st3" d="M733.4,424.8c-0.3,0.3-0.6,0.6-0.9,0.9c-5.5-0.2-9,3-11.7,7.2c-0.8,1.3-1.6,2.6-2.3,3.8
				c-0.4-0.3-0.6-0.7-1-1C720.6,429,724.9,423.9,733.4,424.8z"/>
			<path class="st3" d="M723.3,447.8c-0.3,2.6-2.6,4-3.7,6.1c-2.1-2.4,1-5.3-0.6-8c-0.3-0.5,0.7-1.4,1.7-0.6
				C721.5,446.2,722.4,447.1,723.3,447.8z"/>
			<path class="st2" d="M702.6,368.3c-5.6,13.1-11.1,26.2-16.7,39.3c-0.6,1.4-0.6,3.5-2.7,3.8c-2.3-0.1-4.5-0.6-6.3-2
				c-0.8-1.8,0.2-3.2,0.9-4.7c5.3-11.5,10.5-23,15.8-34.5c11.9-25.9,23.6-51.9,35.4-77.7c2.2-4.7,4.5-9.5,6.5-14.4
				c0.7-1.8,1.3-3.7,3.2-4.7c3.5-7.3,6.9-14.7,10.4-22c0.7-1.4,1.3-2.8,2-4.1c0.4-0.9,1-1.8,2.1-1.5c1.5,0.6,0.4,1.6,0.2,2.3
				c-1.1,2.8-2.3,5.6-3.4,8.4c-0.6,5.5-3.8,10.1-5.4,15.2c-5.5,13.1-10.8,26.3-16.7,39.2c-7.5,17.6-14.6,35.4-22.1,52.9
				C704.9,365.6,704.4,367.4,702.6,368.3z"/>
			<path class="st2" d="M745.8,245.4c1.2-0.3,2.5-0.6,4.2,0c-4,9-8,18.1-12,27.1c-1.2,5.4-4.1,10.2-6.4,15.2
				c-8.4,18.5-16.9,36.9-25.2,55.4c-4,9-8.2,17.8-12.2,26.7c-5.7,12.2-11,24.5-16.6,36.5c-0.6,1.2-0.7,2.7-2.5,3
				c-0.7,0.1-1.2,0.1-1.9,0.1c-4.6-1.3-4.8-1.7-2.7-5.9c4.6-9.5,9-19.1,13.6-28.5c7.3-15.5,14.9-30.9,22-46.5
				c3.5-6.5,6.3-13.3,9.5-19.9c4.2-8.6,8.2-17.3,12.4-25.9c5.3-11.4,11-22.5,15.8-34.1C744,247.4,744.3,246,745.8,245.4z"/>
			<path class="st2" d="M701.5,386c-3.8,9.4-7.7,18.8-11.5,28.2c-4.1-0.8-4.4-2.8-2.8-6.4c5.6-12.8,11-25.8,16.4-38.8
				c0.6-3.9,2.7-7.2,4.1-10.7c6.4-15.7,13.2-31.3,19.8-47c5.5-13.1,11.2-26.1,16.6-39.3c2.5-4.8,3.4-10.3,6.9-14.7
				c1.4-3.3,2.8-6.5,4.2-9.7c0.6-1.5,1.4-2.6,1.8,0.1c-1.7,4.3-3.4,8.5-5,12.8c-1.7,4.3-3.4,8.5-5.2,12.8c-2.6,6.4-5.1,12.7-7.7,19
				c-8.8,21.5-17.5,43-26.3,64.6C708.9,366.6,705.2,376.3,701.5,386z"/>
			<path class="st2" d="M745.8,245.4c-0.4,1-0.9,2.1-1.4,3.2c-5.5,11.4-10.8,22.7-16.2,34.1c-4.1,8.6-8.2,17.3-12.4,25.9
				c-3.1,6.6-6.2,13.4-9.5,19.9c-7.2,15.5-14.7,30.9-21.9,46.4c-5.2,10.4-9.9,21-15,31.4c-0.4,0.7-0.5,1.6-1.5,1.7
				c-3,1-2.3-0.7-1.5-2.2c3.1-6.3,6.2-12.7,9.3-19c0.2-0.5,0.4-1,0.6-1.5c3.9-8,7.8-16.1,11.7-24.2c10.4-21.2,20.9-42.3,30.7-63.8
				c7.1-14.7,14.2-29.3,21.4-43.9c1.2-2.5,2.5-4.9,3.7-7.4C744.2,244.6,744.9,244.8,745.8,245.4z"/>
			<path class="st3" d="M693.6,369.7c9.5-21,19.1-42.1,28.7-63.1c5.2-11.4,10.4-22.6,15.7-34c0.3,0.2,0.5,0.5,0.7,0.8
				c-7.1,15.8-14.3,31.7-21.4,47.5c-7.5,16.6-15.1,33.2-22.7,49.7C693.7,370.8,693.2,370.6,693.6,369.7z"/>
			<path class="st3" d="M750.8,257.4c-2.2,4.9-4.2,9.8-6.4,14.8c-0.5,0-0.6-0.5-0.8-0.9c1.9-5,3.7-10,6.2-14.8
				C750.1,256.9,750.5,257.1,750.8,257.4z"/>
			<path class="st2" d="M759.1,221.1c0.9-0.8,2-1.2,3.2-1c1,1.1,2.5,1,3.6,1.6c0.8,0.4,0.8,0.4,0.2,2c-1.5,0.4-2.1,1.6-2.6,2.9
				c-0.5,2.7-1.7,5-3.7,7c-0.3,0.1-0.7,0.1-1.1,0.2c-2.1,0.5-3.5,2-5.5,2.7c-1.4,0.9-3.2,1.2-3.5,3.4c-0.1,0.6-0.8,3.1-2.7,1.2
				c-0.7-1.6,0.5-3,0.9-4.4c2-4.1,4.5-8.1,6.7-12.1C756.1,223.3,757.3,221.8,759.1,221.1z"/>
			<path class="st3" d="M748.6,237.1c0.5,1.6-0.9,2.6-1.4,4c-0.6-0.5-1.2-1.1-1.9-1.5c-0.4,0.2-0.7,0.2-0.9-0.2
				c-0.4-2.2,2-4.3,0.4-6.6c0-0.7,0.3-1,0.9-1.4c1.4-0.5,2.8-1.1,4.2-1.5c0.2,0,0.6,0,0.8-0.1C751.5,232.6,749.1,234.5,748.6,237.1z
				"/>
			<path class="st3" d="M744.5,239.4c0.3,0.1,0.5,0.1,0.8,0.1c-0.3,3.4-2.6,1-3.6,0.9c-1.8-0.2-3.5-1-4.3,1.4
				c-0.7-1.1-1.3-2.2-1.9-3.3c-1.1-1-1.2-2.1-0.4-3.3c0.6-2.7,1.7,0.7,2.6-0.2C739.3,237.5,742.3,237.8,744.5,239.4z"/>
			<path class="st3" d="M759.9,233.4c1.1-2.4,1.9-4.9,3.7-7c0.9,1.4,0.6,2.8-0.3,4.1C761.6,230.8,762.1,233.7,759.9,233.4z"/>
			<path class="st3" d="M753.4,236.4c1.8-1.1,2.3-4.5,5.5-2.7C758.3,237.1,755.5,236.1,753.4,236.4z"/>
			<path class="st4" d="M782.8,237.7c-0.2,2.4-3.6,2-3.9,4.4c-0.8,0.6-1.6,1.3-2.3,1.9l0,0c-1.9,1-3.5,0.7-5.2-0.5
				c-1.8-2.5,0.4-4.4,1.5-6c1.8-2.4,4.2-0.2,6.3,0.1C780.6,237.7,781.6,237.7,782.8,237.7z"/>
			<path class="st3" d="M784.4,250.9c-1.6-1.4-2.7-2.6-2.6-4.9C783.5,247.4,784.4,248.7,784.4,250.9z"/>
			<path class="st3" d="M730,496.7c0.1-0.7-0.2-1.5,0.8-1.8c0.7,1.3,1.3,2.6,2,3.9c-0.3,0.4-0.6,0.8-0.9,1.1
				C730.4,499.2,729.7,498.3,730,496.7z"/>
			<path class="st2" d="M766.9,250.5c0.2,1.7,0.3,3.3,0.5,5c-1,1.7-2,3.4-3.1,5.1c-2.5,2.6-4,1.9-5.2-1.3c-1-2.8-0.9-5.6-1.4-8.4
				c0.5-1.4,1.1-2.7,1.5-4.1c2.1-8.5,5.1-16.5,10.5-23.4c1.7-2.1,3.6-5.2,6.6-1c0.9,1.3,2,0.3,2.7-0.7c1-1.5,2-3,2.1-4.9
				c-0.4-1.5-1.1-2.8-1.4-4.3c-0.3-1.1-1.7-1-2.3-1.9c-0.6-4.6,0.5-9,2.3-13.2c0.4-0.9,0.9-2,2-1.8c1.1,0.2,1.3,1.3,1.4,2.2
				c0.3,3.6,0.7,7.1,1,10.6c0,1.6,0.1,3.2,0.1,4.7c-0.7,5.5-1.5,10.9-3,16.2l0.1-0.1c-1.9,3.3-5,0.8-7.5,1.7c-4,0.9-4,0.9-2.2,4.9
				c-2.1,2.5-1.4,7.4-7.5,7.1c4.2,1.5,4.8,3.2,2,5.6c-1-0.7-2.4-0.4-3.2-1.9c-0.3,1.5,0.9,2,1.5,2.9
				C765.3,250,766.2,250.3,766.9,250.5z"/>
			<path class="st2" d="M763.5,209.8c0.1-1.9,0.2-3.9,0.3-5.8c0.3-1,0.7-2.1,1.1-3.1c1.4-3.3,2.8-6.2,7.4-5c1.9,0.5,4.1-0.2,6.6-0.4
				c-2.2,4.9-3.2,9.8-2.3,14.9c0.8,0.9,1.1,2,0.6,3.2c-0.4,0.6-1,0.9-1.8,1c-0.7,0.1-1.3-0.2-1.9-0.6c-0.3,0-0.6,0-0.9,0.1
				c-1.5-0.5-2-2.2-3.6-2.3C766.5,215,765.2,214.6,763.5,209.8z"/>
			<path class="st3" d="M773.7,214.1c0.6,0,1.2,0,1.7,0c1,1.7,3.4-1.2,4.3,1.3c-0.3,1.2-0.4,2.4-0.7,3.6c-0.4,1.7-0.9,3.2-2.8,1
				c-0.8-0.9-1.9-0.8-3-0.9c-1.2-0.1-3.1,1.1-3.3-1c-0.2-1.7,0.7-3.1,2.9-3.2C773.1,214.9,773.4,214.4,773.7,214.1z"/>
			<path class="st3" d="M766.2,223.6c0.6-1.5-0.5-1.3-1.3-1.2c-1.7,0.1-2.6-0.6-2.6-2.3c0.5-0.1,1.1-0.2,1.6-0.4
				c2,0.2,4.1,0.3,6.5,0.5c-0.7,2.1-2.1,3.5-3.5,4.6C765.9,225.5,766.4,224.1,766.2,223.6z"/>
			<path class="st3" d="M769.2,211.9c0.1-1.5,0.6-2.2,1.8-0.7c0.7,0.9,1.2,2.1,1.8,3c-1.1,0.1-2.2,0.2-3.3,0.2
				C769.4,213.5,769.4,212.7,769.2,211.9z"/>
			<path class="st3" d="M780.9,211.4c0.5,1.8,0.8,3.6,0.3,5.4c-0.8-0.2-0.8-0.9-1-1.4c-0.3-1.2-2.3-1.2-2-2.8
				C778.7,211.4,779.2,210.1,780.9,211.4z"/>
			<path class="st3" d="M778.4,212.9c0.6,0.9,2.2,0.9,1.8,2.5c-0.2,0-0.3,0-0.5,0c-1.2-0.9-3.6,1.8-4.3-1.3c0.5-0.1,1-0.2,1.5-0.4
				C777.4,213.5,777.6,212.6,778.4,212.9z"/>
			<path class="st3" d="M778.4,212.9c-0.5,0.3-1,0.6-1.5,0.9c-0.1-1.1-0.1-2.2-0.1-3.2c0.2,0,0.5,0,0.8,0c1.2,0.2,2.6-0.8,3.4,0.8
				C779.3,210.6,779,212.1,778.4,212.9z"/>
			<path class="st2" d="M796.6,232.6c-0.5,7.2-2.6,8.7-7.9,5.6c-0.8-2.4,0.1-4.8-1.4-7.3c-1-1.8,3.3-4.2,5.6-3
				C795,228.8,795.3,231,796.6,232.6z"/>
			<path class="st2" d="M781,236.2c-2.8-0.4-5.6-0.7-8.3-1.1c-1.6,0.3-2.4-0.8-2.3-2.1c0-1.6,1.1-2.4,2.7-2.5
				c2.1,0.4,4.3,0.4,6.5,0.5c2.9,0.2,4.8,1.2,5.7,3.9C784.4,237.2,782.5,236.1,781,236.2z"/>
			<path class="st3" d="M785.1,234.9c-2.9-4.5-8-2.6-12-4.2c-0.3-0.1-0.4-0.3-0.4-0.6c0.1-0.2,0.1-0.3,0.2-0.3
				c2.8-0.8,5.7,1.2,8.4-0.6c0.4,1.6,1.5,1.8,2.8,1.6C785.3,232.2,784.7,233.6,785.1,234.9z"/>
			<path class="st3" d="M761,380c-1.1,4.4-1.4,9.1-3.8,13.1c-0.6,0-0.7-0.5-0.9-0.9c1.3-3.3,2.6-6.7,3-10.4c1.1-7.7-0.3-15-3.1-22.2
				c-1.6-5.6-5.8-9.5-8.4-14.5c3,1.6,3.9,5,6.2,7.2C758.9,361,761.4,370.1,761,380z"/>
			<path class="st4" d="M774.3,247.4c-1.7-0.3-2.4,0.9-3.3,2c-0.9-0.9-3-1.3-1.7-3.3c3-2.4,3.9-2.4,5.8-0.2
				C774.9,246.4,774.6,246.9,774.3,247.4z"/>
			<path class="st3" d="M764.6,249.7c-4.7,0-2.1-3.1-2.4-5.1c0.6,2.1,3.4,2.1,4,4.1C765.7,249.1,765.1,249.4,764.6,249.7z"/>
			<path class="st3" d="M773.1,229.9c0,0.2,0,0.6,0.1,0.8c-3,1-3.1,2.6-0.5,4.3c-0.3,0.3-0.6,0.5-0.9,0.9c-2.1-0.4-2.6-1.9-2.3-3.6
				C769.7,230.6,771.3,230,773.1,229.9z"/>
			<path class="st3" d="M775.2,245.9c-2-1.6-3.9-0.8-5.8,0.2c-0.4-1.7,1.7-1.5,2.1-2.7c1.8-0.5,3.4,0.3,5.2,0.5
				C776.1,244.7,775.7,245.3,775.2,245.9z"/>
			<path class="st2" d="M754.2,259.6c0.6-1.4,1.1-2.7,1.6-4.1c0.8,1.7,1.6,3.4,2.5,5.2C756.6,261.1,755.3,261,754.2,259.6z"/>
			<path class="st4" d="M786.1,211.7c-0.1-1.2-0.2-1.8-0.2-2.3c0.1-1.2-0.6-2.5,0.4-3.5c0.2-0.2,0.8-0.1,1,0.2
				c1.3,1.3,0.3,2.6-0.1,3.8C787.1,210.2,786.8,210.5,786.1,211.7z"/>
			<path class="st2" d="M735,235.3c0.2,1.1,0.2,2.2,0.4,3.3c-0.6,2-0.4,5.2-3.2,4.9c-3.7-0.4-4.4-3.6-4.4-6.9
				c0.2-0.2,0.4-0.4,0.5-0.6C730.4,230.9,731.5,230.8,735,235.3z"/>
			<path class="st2" d="M744.5,239.4c-3.1-0.2-6.5,0.1-7-4.3c0.3-0.4,0.6-0.7,0.8-1.1c0.3,0.1,0.5,0.1,0.8,0c2-0.1,3.7-1.4,5.8-1.2
				c1.6,0,1.7,0.9,1.3,2.1C745.8,236.4,745.1,237.9,744.5,239.4z"/>
			<path class="st3" d="M748.6,237.1c0.7-2.5,1.4-4.9,2.1-7.3c0.4-1.2,1.1-2.2,2.2-3.1c0.7-0.9,0.7-2.5,2.5-2.1
				C753.7,229,751.2,233.1,748.6,237.1z"/>
			<path class="st2" d="M749.8,229.9c-0.9,1.6-2.3,2.1-3.9,2c-1.5-1.3-0.3-2.3,0.3-3.4c0.6-1.7,2-0.9,3.2-1.1
				C749.5,228.3,749.7,229.2,749.8,229.9z"/>
			<path class="st3" d="M755.3,224.6c-0.9,0.7-1.7,1.4-2.5,2.1c1.3-2.8,2.2-6,6.4-5.6C758.1,222.5,757.4,224.3,755.3,224.6z"/>
			<path class="st2" d="M726.5,328.3c2.4-6,4.8-11.9,7.2-17.9c0.8-0.2,1.3,0,1.1,0.9c-0.7,3.3-1.5,6.5-2.1,9.8
				c-1.4,3-1.3,6.3-1.8,9.4l0,0C728.9,330.8,726.7,331.5,726.5,328.3z"/>
			<path class="st3" d="M734.8,311.3c-0.4-0.3-0.7-0.6-1.1-0.9c0.7-2.1,0.7-4.6,2.9-6C736.5,306.8,735.6,309,734.8,311.3z"/>
			<path class="st2" d="M740,233.1c-1.6-0.9-3-2-3.8-3.7c-0.1-0.9-0.6-1.9-0.5-2.8c0.2-1.8,0.4-3.9,2.5-4.8c2.2-1,3.2,0.9,4.4,2.1
				c0.3,0.6,0.7,1.1,0.9,1.6c0.9,1.3,1,2.9,0.9,4.3C744.2,232,743.5,234.5,740,233.1z"/>
			<path class="st3" d="M726.5,328.3c0.6,2.5,2.9,1.6,4.4,2.2c0,0.6,0.2,1.1,0.2,1.7c-2-0.7-3.8-2.2-6-0.4
				C725.3,330.5,725.7,329.3,726.5,328.3z"/>
			<path class="st3" d="M740,233.1c4.9-0.8,3.4-4.6,3.5-7.6c2.1,0,0.2,3.6,2.7,3.1c-0.1,1.1-0.3,2.2-0.3,3.4c-0.3,0.4-0.5,0.6-0.8,1
				c-1.7,1.5-3.6,2.4-5.8,1.2C739.5,233.7,739.8,233.3,740,233.1z"/>
			<path class="st3" d="M630,501.3c0-1.5-0.1-3-0.1-4.5c0-1.1-0.9-2.8,0.8-3.1c1.4-0.3,2.9,0.3,3.3,2.2c-3.2,0.6-3.3,2.4-2.5,5.2
				c1.2,4.1,1.4,8.3-0.6,12.6C630.6,509.5,630.3,505.3,630,501.3z"/>
			<path class="st3" d="M661.8,499.6c-0.3-0.2-0.6-0.5-0.9-0.7c2-4.1-2.9-4.5-3.9-7c-0.5-0.9-2.5-1.8,0-2.8c1.8,1.5,3.4,3,4.7,5
				C663,496,663.3,497.8,661.8,499.6z"/>
			<path class="st3" d="M637.4,518.7c-0.6-0.1-1.3-0.3-1.9-0.5c2.2-2.3,2.2-6.1,5.3-8C639.7,513.2,638.6,515.9,637.4,518.7z"/>
			<path class="st3" d="M649.3,500c-1.4,0.1-2.2-1-2.4-2.4c-0.2-1.2,1-1.2,1.8-1.2c1.4,0,2.3,0.8,2.4,2.2
				C651.1,499.7,650.6,500.1,649.3,500z"/>
			<path class="st3" d="M644.2,485.1c0.2-0.9,1-0.8,1.7-1c2.4,0.8,5.2,0.6,6.8,3C649.7,487.2,647,485.8,644.2,485.1z"/>
			<path class="st3" d="M657,489.2c-1.6,0.9,0.1,1.8,0,2.8c-3.3,0.1-2.2-4-4.4-4.9C654.8,486.3,656.2,487.2,657,489.2z"/>
			<path class="st3" d="M653.6,501.2c4-0.8,4-0.8,4.1,1.1c-0.2,0.1-0.4,0.2-0.6,0.3C655.5,502.8,654.4,502.4,653.6,501.2z"/>
			<path class="st3" d="M640.8,497c-0.8,1.1-1.9,1.6-3.1,0.8c-1.1-0.8-1.2-1.9-0.5-3.1C638.7,495.1,641.3,493.8,640.8,497z"/>
			<path class="st3" d="M640.8,497c-0.7-1.5-3.1-0.4-3.6-2.3c1-1.6,2.2-1.2,3.4-0.3C641.6,495,641.8,496,640.8,497z"/>
			<path class="st3" d="M634.9,520c0.6,0.3,1.3,0.5,1.9,0.8c-1.6,4.6-3.2,9.1-4.8,13.8c-0.7,0-0.8-0.5-1.1-0.9
				C631.6,528.9,635,524.9,634.9,520z"/>
			<path class="st3" d="M629.1,544.5c-1.1,4.5-2.2,9-3.2,13.5c-0.7,0.3-1.1,0.2-0.9-0.7c0.6-4.7,1.4-9.3,3.1-13.7
				C628.7,543.5,628.7,544.1,629.1,544.5z"/>
			<path class="st3" d="M629.1,544.5c-0.4-0.3-0.7-0.6-1.1-0.9c1-3.3,2-6.6,3-10c0.4,0.3,0.7,0.6,1.1,0.9
				C631,537.8,630.1,541.1,629.1,544.5z"/>
			<path class="st3" d="M624.9,557.2c0.3,0.2,0.6,0.5,0.9,0.7c-0.3,3.4-1.3,6.6-2.9,9.7C623.2,564.1,623.5,560.6,624.9,557.2z"/>
			<path class="st4" d="M659.8,458.5c3.3,1.9,3.5,4.5,2.4,7.9c-1.6,4.8-2.7,9.7-4.2,14.6c-0.6,2-1.2,4.3-4.1,4.1
				c-0.7-1.7-0.4-3.6-0.9-5.4c1-6.7,3.1-13,4.6-19.5C657.8,459.2,657.9,457.6,659.8,458.5z"/>
			<path class="st3" d="M659.9,483.1c2-7.7,4-15.4,6-23.1c1.4-0.8,2.6-1.3,3.4,0.7c-1.6,0-2.5,0.8-3,2.3c-1.5,5.9-3,11.8-4.6,17.7
				c-0.3,1.3,0.2,2.2,0.7,3.1C661.2,484.7,660.5,484.2,659.9,483.1z"/>
			<path class="st3" d="M659.8,458.5c-0.4,0.3-1.1,0.5-1.2,0.8c-1.6,7-4.1,13.8-4.9,21c-0.5,0.4-1,0.5-1.5-0.1
				c1.7-7.6,3.4-15.3,5.2-22.9c1.1-0.7,2.1-1.1,2.5,0.7C660,458.2,660,458.3,659.8,458.5z"/>
			<path class="st3" d="M659.8,458.1c-0.8-0.2-1.7-0.5-2.5-0.7c-0.6-0.2-1.2-0.4-1.7-0.6c0.1-1.1,1-0.7,1.6-0.9
				c0.2-0.3,0.6-0.5,1-0.6c0.7-0.1,1.5,0.2,2.2,0.4c1.8,0.5,3.7,0.7,5.5,1.4c2,0.9,4.3,0.9,5.7,2.9c-0.2,0.3-0.5,0.6-0.8,1
				c-0.5,0-1-0.1-1.5-0.1c-1-0.8-2.3-0.5-3.4-0.7C663.8,459.4,661.8,458.7,659.8,458.1z"/>
			<path class="st3" d="M652.2,480.4c0.5,0,1,0,1.5,0.1c1.7,1.5,0.9,3.1,0.2,4.7C650.4,484.2,649.8,482.8,652.2,480.4z"/>
			<path class="st3" d="M659.9,483.1c0.9,0.3,1.7,0.5,2.6,0.7c0.4,1.6,0.2,2.2-1.2,5C660.1,487,658.4,485.5,659.9,483.1z"/>
			<path class="st2" d="M730,496.7c0.7,1,1.2,2.1,1.9,3.2c1.9,2.7,1.8,4.9-0.3,7.8c-2.8,3.8-3.5,8.6-3.2,13.3
				c-0.7,7.4,0.4,14.9-0.9,22.3c-0.8,4.8-2.4,9.3-4,13.9c-7.1,12.8-16.6,23.1-30.4,28.6c-9.5,3.8-19.5,4.4-29.7,4.5
				c-11.9-1.1-23.6-3-35.1-6c-1.7-0.5-3.5-0.9-4.8-2.2l0.1-0.4c2.7,0.3,5.5,0.5,8.1,0.8c29.7,4.8,56.1-1.1,77.3-23.9
				c1.5-1.6,2.7-3.5,4.1-5.3c5.8-7,6.9-15.7,8.5-24.2c0.3-1.5,0.3-3,0.5-4.5c3.9,0.2,2,4.2,3.6,5.5c0.2-3.8-4.4-6.4-3.4-10.7
				c0-1.6-0.1-3.2-0.1-4.8c0.6-0.5,0.3-1.5,1.3-1.6c1.4,0.5,1.4,2,2,2.9c-0.9-1.5-1.1-3.3-2-4.7c-2.2-6.9-3-13.7,2.8-19.5
				C729.2,492.2,728.4,495.4,730,496.7z"/>
			<path class="st3" d="M623.7,581.8l0,0.2l-0.2,0.2c-0.3,0.7-0.6,1.4-0.8,2c-1.5,0.5-2.1-0.4-2.6-1.5c0-0.2,0-0.4,0-0.6
				c-0.3-0.6-0.7-1-0.9-1.6c0.5,0,1.2-0.2,1.5,0.1C621.6,581.4,622.5,581.9,623.7,581.8z"/>
			<path class="st3" d="M616.7,581.4c0.9,1.4-3.4,0.7-1.2,2.7c-0.2,0.1-0.3,0.4-0.5,0.3c-1.4-0.5-1.8-1.5-1.6-2.9
				C614.5,580.4,615.6,580.8,616.7,581.4z"/>
			<path class="st3" d="M722.3,519.6c0.2,3.5,3,6,4.1,9.1c0.5,1.7,0.5,3-0.1,4.9c-2.4-2.9-1.1-6.8-4.2-8.9
				C721.9,523,721.8,521.3,722.3,519.6z"/>
			<path class="st2" d="M682.6,416.5c-3.4,7.9-6.7,15.7-10.1,23.6c-0.6,1.4-0.9,3-2.1,4c-2.4-1.5-4.6-3-7-4.6
				c-0.5-0.8-0.4-1.6,0-2.4c3.6-7.3,6.4-15,10.1-22.3c0.4-0.8,0.9-1.4,1.7-1.8c2.8-0.8,5.1,0.2,7.4,1.8
				C682.6,415.4,682.6,415.9,682.6,416.5z"/>
			<path class="st3" d="M727.8,311.5c-8.1,19.2-16.2,38.3-24.3,57.6c-0.3-0.2-0.5-0.5-0.8-0.8c8.1-19.2,16.2-38.4,24.2-57.7
				C727.5,310.7,727.6,311.2,727.8,311.5z"/>
			<path class="st3" d="M682.6,414.9c-2.5-0.7-4.9-1.7-7.5-1.1c-1,0.5-1.6-0.4-2.3-0.8c-0.3-0.2-0.5-0.6-0.6-0.9c0.7-1-3-3.4,1-3.4
				c0.5,0,1,0.1,1.5,0.2c0.8,0.5,1.9-0.2,2.7,0.5c2,0.7,3.9,1.4,5.9,2.2c-2.4,1.9-4.5-1.6-7.5,0c3.2,1,5.9,1.9,8.7,2.8
				C684,415.2,683.2,414.7,682.6,414.9z"/>
			<path class="st2" d="M620.1,582.7c0.9,0.5,1.7,1,2.6,1.5c0,0.5,0.1,1.1,0.1,1.6C620.9,585.6,619.3,585.2,620.1,582.7z"/>
			<path class="st2" d="M658,455.8c-0.2,0-0.6,0-0.8,0.1c-6.6-2.4-6.6-2.4-4.7-9.6c0.4-1.4,0.8-2.9,1.2-4.3c2.5-0.4,4.5,0.6,6.7,1.4
				C662.3,447.9,660.2,451.9,658,455.8z"/>
			<path class="st2" d="M672.5,412c0.2,0.1,0.4,0.1,0.7,0.2c1,0.9,0.8,2,0.3,3c-3.7,8.1-6.7,16.4-11,24.2c-2.3-0.5-4.5-1.1-6.8-1.6
				c-1-1.9,0.4-2.9,1.3-4.3c0.8-5.9,4.6-10.4,6.6-15.8c0.3-0.8,0.8-1.4,1.7-1.6c1-1.7,1.9-3.6,2.9-5.3
				C669.9,410.1,671.3,410.6,672.5,412z"/>
			<path class="st2" d="M655,426.6c0-0.2,0-0.5-0.1-0.7c1.6-2.9,3-5.6,4.6-8.5c1-1.9,2.1-3.8,3.2-5.8c0.6-1,1-2.5,2.7-1.6
				c2,0.9,0.3,2.1,0,3c-0.2,0.8-0.6,1.5-1,2.2c-0.8,4.4-3.4,8-5.3,11.9c-1,2.1-2.7,1.4-4.2,0.5C654.7,427.4,654.7,427,655,426.6z"/>
			<path class="st3" d="M672.5,412c-1.4-0.4-2.9-0.8-4.3-1.2c-0.1-1-0.2-1.9-0.3-2.9c5.3-11.1,10.7-22.3,16-33.4
				c0.5,0,0.6,0.5,0.9,0.9c-4.5,9.6-8.9,19.1-13.6,28.6c-1.4,2.8-1.6,4.4,2.1,4.6c-0.7,0.5-2.3,0.8-0.5,1.7
				C674.5,411.3,672.2,411.5,672.5,412z"/>
			<path class="st3" d="M655.2,427.5c2.1,0.2,3.7-0.1,4.6-2.6c1.3-3.3,3.1-6.5,4.7-9.7c0.3,0.3,0.5,0.5,0.8,0.9
				c-1.1,2.5-2.1,5.1-3.4,7.5c-1.7,3.3-3.8,6.4-3.8,10.4c-1.4,0.9-2.9,1-2.7-1.2C655.7,431,654.8,429.3,655.2,427.5z"/>
			<path class="st3" d="M651.3,430.5c0.3,0.2,0.6,0.5,0.9,0.8c0.4,0.8,0.3,1.7-0.2,2.3c-1.8,2.2-0.2,3.3,1.4,4.3
				c0.2,1.7-1.7,1.4-2.3,2.4c-1.7,0.1-3.4,0.2-5.1,0.4C647.7,437.3,649.5,433.8,651.3,430.5z"/>
			<path class="st3" d="M653.4,437.9c-1.3,0.1-2.7,0.2-4.1,0.3c0.3-2.9,2.2-4.7,2.9-7c1-1.6,1.9-3.1,2.8-4.6c0,0.3,0.1,0.6,0.1,0.9
				c1,1.7,2.6,3,1.2,5.5c-0.8,1.4,1,0.9,1.7,1c-0.7,1.3-2.5,1.9-2.4,3.8C654.9,437,654.2,437.1,653.4,437.9z"/>
			<path class="st3" d="M662.5,439.4c3.2-7.5,6.4-15,9.6-22.5c0.6-1.5,1.9-2.9,1.2-4.7c1.1-0.1,1.2,1.3,1.9,1.5
				c-3.9,8.6-7.8,17.2-11.7,25.8C663.1,439.6,662.8,439.5,662.5,439.4z"/>
			<path class="st2" d="M665.5,457.8c-1.9-0.4-3.8-0.9-5.8-1.3c-1.2-3.7,0.7-10.3,3.3-11.9c1.4,0.8,2.8,1.6,4.2,2.4
				c0.9,0.4,1.5,1,1.8,1.9C668.9,452.1,669.9,456,665.5,457.8z"/>
			<path class="st3" d="M663.1,444.5c-2.6,3.6-3.1,7.7-3.3,11.9c-0.6-0.2-1.2-0.4-1.8-0.6c0.6-4.2,2.7-8.1,2.4-12.5
				C661.3,443.6,662.2,444,663.1,444.5z"/>
			<path class="st3" d="M668.4,448.2c-0.4-0.5-0.7-0.9-1-1.3c0.5,0,0.9-0.1,1.4-0.1c0.9,0.9,3.4,0.8,2.2,3.1
				C669.3,450.5,669,449.1,668.4,448.2z"/>
			<path class="st2" d="M668.4,448.2c0.9,0.5,1.7,1.1,2.5,1.7c0.6,0.8,1,1.7,1.6,2.5c0.7,2.6,1.8,5,3.2,7.3
				c-1.3,2.3-2.8-0.1-4.1,0.3c-2-0.7-4-1.4-6-2.1C668,455.1,668.2,451.6,668.4,448.2z"/>
			<path class="st3" d="M723.6,511.3c2.1,1.7,2.4,4.2,3.3,7.2c-2.4-1.8-2.4-3.7-3.3-5.4C723.6,512.6,723.6,511.9,723.6,511.3z"/>
			<path class="st2" d="M635,402.3c1.5,1.6,3,3.1,4.5,4.7c0.4,1.4,1.3,2.9,1.1,4.3c-0.3,2.2-0.9-0.4-1.6-0.1
				c-1.6-2.4-3.2-4.7-4.8-7.1C634,403.3,633.4,402.4,635,402.3z"/>
			<path class="st2" d="M756.3,392.2c0.3,0.3,0.6,0.5,0.9,0.9c-0.8,1.6-1.6,3.3-2.3,4.9c-2.8,3.5-5.7,7.1-9.1,10
				c-0.3,0-0.7,0-1.1,0.1c2.4-4.3,6.8-7.2,9.1-11.6C754.5,395,755.4,393.6,756.3,392.2z"/>
			<path class="st3" d="M677.4,409.3c-0.9,0-1.9,0.4-2.7-0.5c2.1-0.6,2.2-2.7,2.9-4.2c5.4-11.6,10.6-23.3,15.9-35
				c0.3,0.3,0.6,0.6,0.9,0.9c-5.3,11.7-10.6,23.5-15.9,35.2C678.1,407,677.3,408,677.4,409.3z"/>
			<path class="st3" d="M727.8,311.5c-0.3-0.3-0.6-0.6-0.9-0.9c5.6-13.1,11.1-26.2,16.7-39.3c0.3,0.3,0.5,0.5,0.8,0.9
				C738.9,285.3,733.4,298.4,727.8,311.5z"/>
			<path class="st3" d="M684.8,375.4c-0.3-0.3-0.5-0.5-0.9-0.9c7.3-15.4,14.7-30.9,22-46.4c0.7-0.2,1.2-0.1,0.8,0.9
				C699.4,344.5,692,360,684.8,375.4z"/>
			<path class="st3" d="M727.7,282.5c5.5-11.4,10.3-23,16.7-33.9c-2,7.3-6.2,13.7-9.1,20.7c-2,4.8-4.5,9.3-6.8,14
				C728.1,283.1,727.8,282.8,727.7,282.5z"/>
			<path class="st3" d="M727.7,282.5c0.3,0.2,0.5,0.5,0.9,0.8c-4.1,8.6-8.2,17.3-12.4,25.9c-0.3-0.1-0.6-0.4-0.8-0.8
				C719.4,299.7,723.5,291.1,727.7,282.5z"/>
			<path class="st3" d="M715.4,308.4c0.3,0.2,0.5,0.5,0.8,0.8c-3.1,6.6-6.2,13.3-9.4,19.9c-0.3-0.3-0.5-0.5-0.8-0.9
				C709,321.6,712.2,314.9,715.4,308.4z"/>
			<path class="st3" d="M789.8,228.6c2.6,1.9,2.9,4.2,3.6,6.3C791.7,233.4,790.5,231.6,789.8,228.6z"/>
			<path class="st3" d="M739.4,223.1c0.3,0.1,0.7,0.3,0.6,0.4c-0.2,1.5,1.6,3,0.2,4.6c-0.1,0.1-0.9,0-1-0.3
				C738.3,226.2,738.7,224.7,739.4,223.1z"/>
			<path class="st3" d="M723.7,546.7c-0.9-2.8,0.4-4.4,1.2-6.1C725.3,542.6,724.8,544.3,723.7,546.7z"/>
		</g>
	</g>
</g>
</svg>
