<?xml version="1.0" encoding="utf-8"?>
<!-- Generator: Adobe Illustrator 22.1.0, SVG Export Plug-In . SVG Version: 6.00 Build 0)  -->
<svg version="1.1" id="Layer_1" xmlns="http://www.w3.org/2000/svg" xmlns:xlink="http://www.w3.org/1999/xlink" x="0px" y="0px"
	 viewBox="0 0 1366 1366" style="enable-background:new 0 0 1366 1366;" xml:space="preserve">
<style type="text/css">
	.st0{fill:#FFFFFF;stroke:#4C3600;stroke-width:7;stroke-miterlimit:10;}
	.st1{fill:none;stroke:#4C3600;stroke-width:7;stroke-miterlimit:10;}
	.st2{display:none;}
	.st3{fill:#FFFFFF;}
	.st4{fill:#4C3600;stroke:#4C3600;stroke-width:7;stroke-miterlimit:10;}
	.st5{fill:#FFFFFF;stroke:#4C3600;stroke-width:3;stroke-miterlimit:10;}
	.st6{fill:#4C3600;stroke:#4C3600;stroke-width:3;stroke-miterlimit:10;}
	.st7{fill:#4C3600;}
	.st8{fill:none;stroke:#4C3600;stroke-width:3;stroke-miterlimit:10;}
	.st9{fill:#FFFFFF;stroke:#4C3600;stroke-width:5;stroke-miterlimit:10;}
	.st10{fill:#4C3600;stroke:#4C3600;stroke-width:5;stroke-miterlimit:10;}
	.st11{fill:none;stroke:#4C3600;stroke-width:6;stroke-miterlimit:10;}
</style>
<polyline class="st0" points="302.4,765.7 280,740.6 285.5,649.8 308.7,676.9 "/>
<polyline class="st1" points="302,508.2 277.5,481 299.2,179.7 328,207.2 "/>
<polyline class="st1" points="1202,380.2 1177.2,351 299.2,179.7 "/>
<polyline class="st1" points="283.5,644.2 1189,613.7 1202,622.2 "/>
<g id="Layer_1_1_" class="st2">
</g>
<g id="Layer_2_1_">
	<g>
		<g>
			<path class="st3" d="M384.2,191.4c-10.1-2.2-20.3-4-30.6-5.4c-4.2-0.6-8.7-0.9-12.5-2.9c-2.1-1.1-3.9-2.5-6.2-3.1
				c-2.3-0.6-3.5-0.5-5.3-2.2c-7.1-6.5-17.8,4.1-10.6,10.6c1.8,1.6,3.6,3.2,5.8,4.2c2.2,1.1,4.5,1.1,6.7,2.1
				c5.1,2.2,9.2,4.5,14.9,5.3c11.4,1.7,22.7,3.5,33.9,5.9C389.6,207.9,393.6,193.4,384.2,191.4L384.2,191.4z"/>
		</g>
		<path class="st3" d="M382.2,198.6c-10.4-2.3-20.9-4.1-31.5-5.6c-4.9-0.7-9.9-1.3-14.1-3.9c-1-0.6-1.9-1.4-3-1.8
			c-1.4-0.5-3-0.5-4.4-1c-1.9-0.6-3.5-2-4.9-3.4L382.2,198.6z"/>
	</g>
	<polygon class="st1" points="328,207.2 730,275.2 1202,380.2 1202,470.2 302,508.2 	"/>
	<polygon class="st1" points="309,672.2 1202,622.2 1202,672.2 302,764.2 	"/>
	<g>
		<path class="st3" d="M392.5,220.2c-10.4-2.3-20.9-4.1-31.5-5.6c-4.9-0.7-9.9-1.3-14.1-3.9c-1-0.6-1.9-1.4-3-1.8
			c-1.4-0.5-3-0.5-4.4-1c-1.9-0.6-3.5-2-4.9-3.4"/>
		<g>
			<path class="st3" d="M394.5,213c-10.1-2.2-20.3-4-30.6-5.4c-4.2-0.6-8.7-0.9-12.5-2.9c-2.1-1.1-3.9-2.5-6.2-3.1
				c-2.3-0.6-3.5-0.5-5.3-2.2c-7.1-6.5-17.8,4.1-10.6,10.6c1.8,1.6,3.6,3.2,5.8,4.2c2.2,1.1,4.5,1.1,6.7,2.1
				c5.1,2.2,9.2,4.5,14.9,5.3c11.4,1.7,22.7,3.5,33.9,5.9C399.9,229.5,403.9,215,394.5,213L394.5,213z"/>
		</g>
	</g>
	<g>
		<path class="st3" d="M351,210.1c0.7,0.8,1.1,1.9,1,3c-0.4,0.1-0.8-0.3-1-0.7c-0.9-1.5-1.3-3.4-2.5-4.6c-0.1-0.1-0.1-0.1-0.2-0.1
			s-0.2,0-0.2,0.1c-0.6,0.5-0.8,1.3-0.6,2.1c0.2,0.8,0.5,1.4,0.9,2.1c0.2,0.3,0.4,0.7,0.8,0.8c0.5,0.2,1.1-0.2,1.4-0.7
			c0.5-0.7,0.6-1.6,0.3-2.4"/>
		<g>
			<path class="st3" d="M350,211.1c0.5,0.6,0.6,1.2,0.5,2c0.5-0.5,1-1,1.5-1.5c0.4,0,0.4,0.4,0.2-0.1c-0.1-0.2-0.2-0.4-0.3-0.6
				c-0.2-0.5-0.4-0.9-0.6-1.4c-0.4-0.9-0.8-1.8-1.5-2.6c-1.8-2.1-3.9,0.4-3.9,2.4c0,1.8,1.3,4.8,3.3,4.9c2.6,0.1,3.5-3,3-5
				c-0.5-1.9-3.4-1.1-2.9,0.8c0.1,0.2,0.1,0.4,0.1,0.7c0,0.2-0.1,0.4-0.2,0.6c0.6,0.3,0.8,0.2,0.5-0.1c-0.1-0.2-0.2-0.3-0.3-0.5
				c-0.2-0.3-0.8-1.5-0.3-1.7c-0.5,0-1,0-1.5,0c0.4,0.3,0.7,1.1,0.9,1.5c0.3,0.6,0.5,1.2,0.8,1.8c0.6,1.2,1.3,2.3,2.8,2.3
				c0.9,0,1.4-0.7,1.5-1.5c0.1-1.5-0.4-2.9-1.4-4.1C350.9,207.5,348.8,209.6,350,211.1L350,211.1z"/>
		</g>
	</g>
	<polygon class="st0" points="422.6,503.1 422.6,665.8 542.5,659.1 542.5,498 	"/>
	<polygon class="st0" points="1118.5,473.7 1118.5,626.9 1168.5,624.1 1168.5,471.6 	"/>
	<polyline class="st1" points="1112.5,681.3 1113,984.2 1164,984.2 1164,676.1 	"/>
	<g>
		<polygon class="st4" points="403.6,320.7 430.7,304.7 429.9,301.9 401.4,320 		"/>
		<g>
			<g>
				<g>
					<path class="st5" d="M461.6,727.7c-28.5,6.3-53.1,17.5-79,31c-5.9,3.1-12.9,8.8-17,14c-4.2,5.3-7.2,12.5-9,19
						c-4.1,14.4-5,30-5,45c0,11,2.1,22.6,4,31c8,35,24,69,36,102c3.7,10.2,5.4,23.2,5,34c-0.7,20.5-9.7,41.2-15,61
						c-4.9,18.5-7,34.9-6,54c2,39.4,6.9,79,27,113c19.6,33.2,50.2,60.3,87,72s79.3,8.1,117,0"/>
					<g>
						<path class="st6" d="M461.2,726.3c-26.8,6-51.8,17-76.1,29.5c-10.8,5.6-20.5,13.3-25.8,24.5c-5.4,11.3-7.4,24.1-8.4,36.5
							c-1.2,14.1-1,28.1,1.4,42.1c2.4,13.6,6.3,26.8,10.7,39.8c4.8,14.2,10.4,28.2,15.9,42.2c5,12.6,11,25.3,14,38.6
							c3.3,14.6,2.9,29.3-0.5,43.8c-3.3,13.9-8.4,27.3-12.1,41.1c-7.3,27.4-6.9,54.6-4,82.6c2.7,26.3,8.2,52.5,20.1,76.3
							c10.8,21.6,26.5,41,45.3,56.1c21.3,17.1,46.4,27.9,73.5,31.6c30.6,4.2,61.9,0.7,92-5.8c1.9-0.4,1.1-3.3-0.8-2.9
							c-51,10.9-106.6,12.9-151.7-17.2c-19.5-13-35.8-30.4-48.2-50.2c-14.2-22.6-21.6-48.2-25.4-74.4c-4-27.2-6.2-55.6-0.8-82.7
							c5.2-25.8,18.1-50.5,18.1-77.2c0-26.4-12.5-50.4-21.9-74.5c-9.9-25.4-20-51.9-22.6-79.2c-1.5-15.4-0.6-31.7,2.5-46.8
							c3.1-15.4,9.4-28.3,22.7-37.2c12-8.1,26.4-14,39.7-19.5c14.1-5.9,28.6-10.7,43.5-14.1C463.9,728.7,463.1,725.8,461.2,726.3
							L461.2,726.3z"/>
					</g>
				</g>
				<g>
					<path class="st5" d="M737.6,1252.7c38.7-37,45.9-94.4,33.2-146.4c-12.7-52.1-44.7-97.3-80-137.6
						c-11.6-13.2-23.8-26.5-30.3-42.8c-8.9-22.4-5.8-47.6-5.6-71.7c0.2-26.1-3.1-52.2-9.8-77.3c-4.6-17.1-11.3-34.6-24.8-46.1
						c-16.5-13.9-39.6-16.2-61.2-16.4c-18.2-0.2-36.4,0.6-54.5,2.4h1c-51.5,3.4-107.5,41.4-107.5,97.4c1,11-0.3,22.8,3,34
						c5.5,18.5,12.5,36.5,21,52c12.1,22,28,43,37,67c5,13,4.4,26.8,0,40c-9.1,27.1-11.4,53.9-16,82c-0.5,3-1.5,10.5-1.5,13.5
						c0,2-4,39.4-1,59c8.6,57.2,37,115,98,136c1,0,5,2,6,2c47,12,86.5,0.5,131.5-12.5c23-6,44-18,61.8-34.2"/>
					<g>
						<path class="st6" d="M738.7,1253.8c29.8-28.9,41.4-70.3,39.1-110.9c-2.4-44.4-20.5-86-45-122.7
							c-12.8-19.2-27.4-37.2-42.6-54.5c-8-9.1-16.1-18.1-22.3-28.5c-7-11.5-10.5-24.2-11.6-37.5c-1-12.1-0.4-24.3,0-36.4
							c0.4-13.2,0.1-26.4-1.1-39.6c-2.2-23-6.4-47.2-15.7-68.5c-4.6-10.6-11.1-20.4-20.4-27.4c-9-6.8-19.8-10.6-30.8-12.5
							c-12.5-2.3-25.2-2.4-37.8-2.3c-15.3,0.1-30.5,1-45.7,2.5c-1.9,0.2-2,3.1,0,3c0.3,0,0.7,0,1,0c0-1,0-2,0-3
							c-49.9,3.6-104.3,38.2-108.9,92c-0.7,8.4,0,17.2,0.4,25.7c0.4,8.9,2.6,17,5.4,25.5c5.5,16.6,12.3,32.7,21,47.8
							c8.7,15.1,18.6,29.5,26.6,45c4.2,8.1,8.4,16.8,10,25.8c1.7,9.7,0.6,19.5-2.4,28.9c-5.6,17.8-9.2,35.8-12,54.2
							c-2.1,14.2-5,28.5-5.9,42.8c-1.3,21.3-3.8,42.6-0.2,63.9c9.2,53.8,37.1,106.8,89.5,128.9c29.7,12.6,62.9,12.5,94.2,6.5
							c17.9-3.4,35.4-8.7,52.9-13.6c15.6-4.4,30.3-10.9,43.8-19.9c6.6-4.4,12.8-9.4,18.7-14.7c1.4-1.3-0.7-3.4-2.1-2.1
							c-12.1,10.9-25.6,20-40.5,26.6c-15.6,6.9-32.7,10.9-49.2,15.2c-33,8.6-69.8,14.6-103.2,4.2c-25.7-8-48.3-23.5-65-44.7
							c-16.7-21.3-27.3-46.9-33.3-73.1c-2.9-12.4-4.6-24.7-4.6-37.4c0-11.3,0.7-22.6,1.6-33.9c0.8-9.3,1.8-18.5,3.2-27.8
							c2.6-17.4,4.8-34.8,8.7-52c3.7-16.3,11.2-32,9.2-49.1c-1.8-15.5-10.3-30.2-18-43.4c-8.5-14.5-18-28.4-25.5-43.4
							c-4-7.9-7.5-16.1-10.6-24.4c-3.1-8.3-6.5-16.9-8.1-25.6c-1.7-9-1.2-18.3-1.7-27.4c-0.4-6.8,0.4-13.7,2-20.3
							c3.1-12.8,9.3-24.7,17.7-34.8c16.9-20.3,41.5-33.9,67-39.7c6.3-1.5,12.7-2.4,19.2-2.9c1.9-0.1,1.9-3.1,0-3c-0.3,0-0.7,0-1,0
							c0,1,0,2,0,3c24.2-2.4,49.3-4,73.6-1.5c22.6,2.3,42.7,11.1,54.3,31.5c11.7,20.6,16.1,46.4,18.9,69.7
							c2.8,24.3,0.7,48.3,1.3,72.7c0.3,11.5,1.6,23.1,5.6,33.9c3.7,9.9,9.4,18.7,15.8,26.9c13.9,17.8,29.6,34,43.2,52.2
							c26.5,35.5,48.3,75.5,55.3,119.7c7.2,45.7-2,95.2-36.2,128.3C735.2,1253,737.3,1255.1,738.7,1253.8L738.7,1253.8z"/>
					</g>
				</g>
			</g>
			<line class="st1" x1="395.6" y1="318.7" x2="489.5" y2="719"/>
			<path class="st1" d="M494.6,717.7l-91-397l-31-10l-52-116c0,0-4-18,7-26c14-1,41-8,47-4s50,117,52,124s6,26,8,27s112,399,112,399
				"/>
			<path class="st1" d="M620.9,881.2c10.8,42.5-3.9,83-33,90.4c-29.1,7.4-61.4-21.1-72.2-63.6s-0.1-82,29-89.4
				c10-2.5,18.8-0.5,25.2,1.5C597.7,828.8,614.7,857.1,620.9,881.2z"/>
			<path class="st1" d="M569.6,819.7c6.2,6.4,19.7,21.3,27,35c3.8,7.1,10,20,13,34c1.8,8.4,5,26.3-1,44c-6.4,18.7-26,38-38,39"/>
			<path class="st1" d="M540.6,1115.7l5,39l163-46c0,0,1-35-7-36L540.6,1115.7z"/>
			<g>
				<g>
					<path class="st7" d="M324,200.9c-5.7-2.4-16.5-3.5-17.1,5.4c-0.3,4,2.4,7.4,4.5,10.4c2.9,4.1,5.4,8.9,9.4,11.9
						c0.4,0.3,1.1,0.2,1.5,0c1.8-0.9,3.3-2,3.6-4.1c0.4-2.9-4.9-8.8,0.1-10.7c1.8-0.7,1-3.6-0.8-2.9c-2.1,0.8-3.9,2.1-4.6,4.4
						c-0.8,2.9,2.8,7.3,1.6,9c-0.3,1.6-0.8,1.6-1.6,0c-0.7-0.6-1.2-1.2-1.7-2c-0.8-1-1.5-2.1-2.2-3.2c-1.5-2.1-3-4.1-4.4-6.3
						c-2.2-3.4-3.5-8.7,1-10.5c3.2-1.2,6.8,0.2,9.8,1.4C325,204.6,325.8,201.7,324,200.9L324,200.9z"/>
				</g>
			</g>
			<g>
				<g>
					<path class="st7" d="M338.6,236.1c-4.4-0.3-9.5,0.1-11.3,4.8c-2.1,5.3,1.1,11.3,3.8,15.7c2,3.2,5.4,7.3,9.8,5.3
						c1.2-0.6,2-1.5,2.5-2.7c1.3-3.6-0.5-6.5,2.3-10c1.2-1.5-0.9-3.6-2.1-2.1c-1.3,1.6-2.3,3.2-2.7,5.3c-0.1,0.8-0.2,1.5-0.2,2.3
						c0,0.6,0,1.2,0,1.8c-2,3-3.7,3.4-5,1.2c-2.4-1.8-4.6-6.6-5.4-9.4c-0.8-2.8-1.3-6.3,1.6-8.3c1.7-1.2,4.8-0.9,6.7-0.7
						C340.5,239.2,340.5,236.2,338.6,236.1L338.6,236.1z"/>
				</g>
			</g>
			<g>
				<g>
					<path class="st7" d="M360,280.8c-4.8-2.4-10.3-7.4-14.7-2.1c-3.8,4.6-2.7,10.9,0.6,15.4c2.9,3.9,9.3,9.9,14.7,8.4
						c6.7-1.8-1.3-11.4,0.8-15.4c0.9-1.7-1.7-3.2-2.6-1.5c-1.1,2.1-1.3,4-0.7,6.4c0.4,1.6,1.9,3.6,1.9,5.2c-0.1,5.2-5,1.3-6.9-0.1
						c-3.4-2.6-6.8-6-7.2-10.5c-0.3-3.9,1.1-7.3,6.2-6.2c2,0.4,4.4,2.3,6.3,3.2C360.2,284.3,361.7,281.7,360,280.8L360,280.8z"/>
				</g>
			</g>
			<line class="st8" x1="408.6" y1="315.7" x2="599.6" y2="1128.7"/>
			<line class="st8" x1="609.6" y1="1126.7" x2="411.6" y2="313.7"/>
			<line class="st8" x1="622.6" y1="1123.7" x2="415.6" y2="311.7"/>
			<path class="st1" d="M633.6,1121.7"/>
			<line class="st8" x1="419.6" y1="309.7" x2="633.6" y2="1121.7"/>
			<line class="st8" x1="646.6" y1="1117.7" x2="423.6" y2="307.7"/>
			<line class="st8" x1="656.6" y1="1113.7" x2="427.6" y2="305.7"/>
			<g>
				<g>
					<path class="st7" d="M600.8,1129.3c-0.6-1.8-3.1-2.3-4.1-0.6c-1,1.6,0.2,3.7,2.1,3.8c1.8,0.1,3.3-1.8,2.9-3.5
						c-0.4-1.7-3.1-2.4-4.3-1c-0.5,0.6-0.6,1.5,0,2.1c0.5,0.5,1.6,0.6,2.1,0c-0.1,0.1-0.4,0.1-0.5,0.2c0.1,0,0.2,0,0,0
						c0.1,0,0.2,0.1,0.3,0.1h0.1c-0.2-0.2-0.4-0.4-0.6-0.6c0-0.1,0-0.1,0-0.2c0,0.1-0.1,0.2,0,0c0.1-0.1,0,0,0,0s0.3-0.1,0.1-0.1
						c-0.1,0.1,0.1,0,0.1,0c0.1,0,0.2,0.1,0.2,0.1c0.1,0.1,0.2,0.3,0.2,0.5c-0.2,0.8-1.2,0.6-1.4,0c0.3,0.8,1,1.3,1.8,1
						C600.5,1130.9,601.1,1130.1,600.8,1129.3L600.8,1129.3z"/>
				</g>
			</g>
			<g>
				<g>
					<path class="st7" d="M611.8,1126.3c-0.5-1.8-3-2.3-4.1-0.7c-0.5,0.7-0.5,1.7-0.1,2.4c0.4,0.8,1.2,1.3,2.1,1.4
						c1.8,0.1,3.2-1.6,3-3.3c-0.3-1.9-3-2.6-4.3-1.3c-0.6,0.6-0.6,1.5,0,2.1c0.6,0.6,1.6,0.6,2.1,0c-0.1,0.1-0.3,0.2-0.5,0.2
						c-0.1,0-0.2,0,0,0c0.1,0,0.2,0.1,0.3,0.1c-0.3,0-0.3-0.7-0.5-0.8c-0.1,0,0.1-0.2,0,0c0.1-0.1,0,0,0,0c0-0.1,0.1-0.1,0.1-0.1
						c-0.3,0.1,0,0,0,0c0.1,0,0.1,0,0,0c-0.1,0-0.1,0,0,0c0.1,0,0.2,0,0.2,0.1c0.2,0.1,0.2,0.3,0.2,0.5c-0.1,0.7-1.2,0.8-1.4,0.1
						c0.2,0.8,1.1,1.3,1.8,1C611.5,1127.9,612,1127.1,611.8,1126.3L611.8,1126.3z"/>
				</g>
			</g>
			<g>
				<g>
					<path class="st7" d="M624.8,1123.3c-0.5-1.8-3-2.3-4.1-0.7c-0.5,0.7-0.5,1.7-0.1,2.4c0.4,0.8,1.2,1.3,2.1,1.4
						c1.8,0.1,3.2-1.6,3-3.3c-0.3-1.9-3-2.6-4.3-1.3c-0.6,0.6-0.6,1.5,0,2.1c0.6,0.6,1.6,0.6,2.1,0c-0.1,0.1-0.3,0.2-0.5,0.2
						c-0.1,0-0.2,0,0,0c0.1,0,0.2,0.1,0.3,0.1c-0.3,0-0.3-0.7-0.5-0.8c-0.1,0,0.1-0.2,0,0c0.1-0.1,0,0,0,0c0-0.1,0.1-0.1,0.1-0.1
						c-0.3,0.1,0,0,0,0c0.1,0,0.1,0,0,0c-0.1,0-0.1,0,0,0c0.1,0,0.2,0,0.2,0.1c0.2,0.1,0.2,0.3,0.2,0.5c-0.1,0.7-1.2,0.8-1.4,0.1
						c0.2,0.8,1.1,1.3,1.8,1C624.5,1124.9,625,1124.1,624.8,1123.3L624.8,1123.3z"/>
				</g>
			</g>
			<g>
				<g>
					<path class="st7" d="M635.8,1120.3c-0.5-1.8-3-2.3-4.1-0.7c-0.5,0.7-0.5,1.7-0.1,2.4c0.4,0.8,1.2,1.3,2.1,1.4
						c1.8,0.1,3.2-1.6,3-3.3c-0.3-1.9-3-2.6-4.3-1.3c-0.6,0.6-0.6,1.5,0,2.1c0.6,0.6,1.6,0.6,2.1,0c-0.1,0.1-0.3,0.2-0.5,0.2
						c-0.1,0-0.2,0,0,0c0.1,0,0.2,0.1,0.3,0.1c-0.3,0-0.3-0.7-0.5-0.8c-0.1,0,0.1-0.2,0,0c0.1-0.1,0,0,0,0c0-0.1,0.1-0.1,0.1-0.1
						c-0.3,0.1,0,0,0,0c0.1,0,0.1,0,0,0c-0.1,0-0.1,0,0,0c0.1,0,0.2,0,0.2,0.1c0.2,0.1,0.2,0.3,0.2,0.5c-0.1,0.7-1.2,0.8-1.4,0.1
						c0.2,0.8,1.1,1.3,1.8,1C635.5,1121.9,636,1121.1,635.8,1120.3L635.8,1120.3z"/>
				</g>
			</g>
			<g>
				<g>
					<path class="st7" d="M648.8,1117.3c-0.1-0.8-0.9-1.5-1.7-1.7c-0.9-0.2-1.9,0.2-2.4,1c-1,1.5-0.1,3.5,1.7,3.8s3.8-1.3,3.4-3.3
						c-0.2-0.8-0.8-1.4-1.6-1.7c-0.9-0.4-1.8-0.3-2.6,0.4c-0.6,0.5-0.5,1.6,0,2.1c0.6,0.6,1.5,0.5,2.1,0c-0.2,0.2-0.5,0.3-0.7,0.2
						c0.2,0.1,0.2,0.1,0,0c0.1,0,0.2,0.1,0.2,0.1c-0.3-0.2-0.4-0.5-0.4-0.9c0.1-0.1,0.1-0.1,0,0c0.1-0.1,0.1-0.1,0,0
						c0.1-0.1,0.1-0.1-0.1,0c0.1-0.1,0.1-0.1,0.2-0.1c0.2,0,0.2,0,0,0c0.1,0,0.2,0.1,0.2,0.1c0.1,0.1,0.2,0.4,0.2,0.5
						c-0.1,0.4-0.6,0.6-0.9,0.5c-0.1,0-0.2-0.1-0.2-0.2c-0.2-0.4-0.2-0.5-0.2-0.2c0.1,0.8,1.1,1.2,1.8,1
						C648.6,1119,648.9,1118.2,648.8,1117.3L648.8,1117.3z"/>
				</g>
			</g>
			<g>
				<g>
					<path class="st7" d="M658.8,1113.3c-0.5-1.8-3-2.3-4.1-0.7c-0.5,0.7-0.5,1.7-0.1,2.4c0.4,0.8,1.2,1.3,2.1,1.4
						c1.8,0.1,3.2-1.6,3-3.3c-0.3-1.9-3-2.6-4.3-1.3c-0.6,0.6-0.6,1.5,0,2.1c0.6,0.6,1.6,0.6,2.1,0c-0.1,0.1-0.3,0.2-0.5,0.2
						c-0.1,0-0.2,0,0,0c0.1,0,0.2,0.1,0.3,0.1c-0.3,0-0.3-0.7-0.5-0.8c-0.1,0,0.1-0.2,0,0c0.1-0.1,0,0,0,0c0-0.1,0.1-0.1,0.1-0.1
						c-0.3,0.1,0,0,0,0c0.1,0,0.1,0,0,0c-0.1,0-0.1,0,0,0c0.1,0,0.2,0,0.2,0.1c0.2,0.1,0.2,0.3,0.2,0.5c-0.1,0.7-1.2,0.8-1.4,0.1
						c0.2,0.8,1.1,1.3,1.8,1C658.5,1114.9,659,1114.1,658.8,1113.3L658.8,1113.3z"/>
				</g>
			</g>
		</g>
	</g>
	<path class="st0" d="M878,822.6c0,0-5,20,0,36s5,38,3,44s-6,24-23,34s-28,11-35,27l-3,4c0,0,21-3,27,0s17,4,34,16s13,23,13,23h12
		l-4,18l10-8c0,0,5,7,2,10s-9,6-7,9s10,5,10,7s-3,17-3,17s-7,52-3,65s10,43,10,43s-3,13,0,21s-13,29-13,29h-90c0,0-22,7-28,23
		s42,29,42,29h126l72-5c0,0,2-40,0-47s-10-6-6-25c-1-11-4-20-4-20s8-8,8-14s-9-20-4-47c1-7-9,8-4-52c2-7,5-4,2-17c-3-13-3-49-3-49
		s-6-48-27-77s-27-64-44-76S878,822.6,878,822.6z"/>
	<path class="st0" d="M1049,862.6c0,0,37,184,29,269c0,0-1,20-4,24s-6,32,4,44s19,54,19,54c9,5,44,13,60,7s16-9,21-7s19,15,49,14
		s118-3,124-26s-24-29-59-25s-57-48-57-48s-35-94-19-140s2-85,21-114c3-40,6-76,6-76s-38-13-36-25s-40-29-50-25s-34,6-66,40
		C1049,862.6,1049,862.6,1049,862.6z"/>
	<g>
		<path class="st7" d="M1068.5,1169.3c-2.8-0.6-5.4,1.3-7.3,3.5c-1.3,1.6-2.5,3.4-2.7,5.5c-0.3,2.4,0.8,4.8,1.8,7s2.1,4.5,3.9,6
			c2,1.8,4.9,2.5,7.5,1.9c-0.1-0.9-1.4-0.8-2.2-0.6c-1.9,0.6-3.9,1.3-5.7,2.2c-1,0.5-1.9,1.1-2.5,2c-0.5,0.7-0.7,1.5-0.9,2.3
			c-0.6,2,0.1,1.4-0.5,3.4c2.7-5.6,2.3-9.3,1.1-15.4c-4.1-1-8.5-0.2-12.1,2c2-2.3,5.2-3.2,7.3-5.4c1-1.1,1.6-2.5,1.8-4
			c0-0.2,0-0.4-0.1-0.6c-0.1-0.1-0.2-0.2-0.4-0.2c-2.8-0.8-5.6-1.5-8.3-2.3c2.2,0,4.5-0.1,6.7-0.6c2.2-0.5,4.3-1.7,5.6-3.5
			c0.2-0.3,0.4-0.7,0.5-1.1c0.1-0.5,0-0.9-0.1-1.4c-0.7-2.5-2.5-4.4-4.2-6.3c1.5,1.5,3.1,2.9,4.9,4.1c1.4,1,3.3,1.9,4.9,1.2
			c1.1-0.5,1.8-1.8,1.9-3.1c0.1-1.3-0.3-2.5-0.6-3.7L1068.5,1169.3z"/>
		<g>
			<path class="st7" d="M1068.5,1167.8c-6.8-0.5-12.5,7.1-11.1,13.6c1.5,7.1,6.5,14.4,14.5,13.4c1-0.1,2.1-1.2,1.3-2.3
				c-2.1-2.8-5.9-0.7-8.6,0.5c-4.7,2.2-5,4.6-6,9.2c-0.3,1.6,2,2.8,2.7,1.2c2.5-5.6,2.4-10.6,1.3-16.5c-0.1-0.5-0.6-1-1-1
				c-4.8-0.9-9-0.2-13.3,2.2c0.6,0.8,1.2,1.6,1.8,2.4c3-3,9.7-5,9.5-10.3c-0.1-3.8-7.2-4-9.9-4.7c-0.1,1-0.3,2-0.4,2.9
				c4.5-0.1,10.7-0.4,13.5-4.7c2.5-3.8-1.5-8-3.9-10.8c-0.7,0.7-1.4,1.4-2.1,2.1c2.6,2.5,6.6,6.8,10.6,5.8c4.1-1,3.7-5.6,2.9-8.8
				c-0.4-1.7-2.9-1.3-2.9,0.4c-0.1,2.3-0.2,4.7-0.3,7c-0.1,1.9,2.9,1.9,3,0c0.1-2.3,0.2-4.7,0.3-7c-1,0.1-2,0.3-2.9,0.4
				c-0.9,1.6-1.9,3.1-2.8,4.7c-0.8-0.5-1.6-1-2.3-1.6c-1.2-0.9-2.3-1.9-3.5-3c-1.4-1.4-3.4,0.7-2.1,2.1c2.3,2.5,5.5,6.7,1.1,9
				c-2.6,1.3-5.6,1.3-8.5,1.4c-1.7,0-2.1,2.5-0.4,2.9c3.6,1,10.4,1.6,4.7,6c-1.8,1.4-3.9,2.3-5.6,4c-1.2,1.2,0.3,3.2,1.8,2.4
				c3-1.7,9.1-4.2,10.4,0.2c1.1,3.6-0.1,7.8-1.5,11.1c0.9,0.4,1.8,0.8,2.7,1.2c0.4-2.1,0.4-3.2,1.9-5.1c1.5-1.8,2.5-2.2,4.5-3
				c0.3-0.1,2.6-1.1,2.7-0.9c0.4-0.8,0.9-1.5,1.3-2.3c-11.9,1.5-16.3-21.9-3.4-21C1070.4,1170.9,1070.4,1167.9,1068.5,1167.8z"/>
		</g>
	</g>
	<g>
		<g>
			<path class="st3" d="M1235.2,828.6c-6.7-4.2-13.3-8.6-20-12.6c-8.8-5.2-18-7.3-27.7-9.4c-15.3-3.3-30.2-8-44.6-14
				c2.4,1,4.8,2,7.2,3c-7.8-3.3-15.3-6.9-22.7-10.9c2,15.7,4,31.4,6.1,47.1c0.3-0.2,0.6-0.5,0.9-0.7c-4.4,2.6-8.8,5.1-13.2,7.7
				c0.4-0.1,0.7-0.3,1.1-0.4c-2.7,0.4-5.3,0.7-8,1.1c0.8-0.2,1.6-0.1,2.4,0c-2.7-0.4-5.3-0.7-8-1.1c0.4,0.1,0.8,0.2,1.2,0.3
				c-2.4-1-4.8-2-7.2-3c3.7,1.8,6.6,4.4,10.6,6c4.1,1.7,7.7,2.2,11.8,3.4c-2.4-1-4.8-2-7.2-3c4.6,2.2,2.3-0.5-7-7.9
				c-1-2.4-2-4.8-3-7.2c0.1,0.4,0.3,0.7,0.4,1.1c4.6-11.3,9.2-22.6,13.8-33.9c-0.4,0.3-0.7,0.5-1.1,0.8c2.4-1,4.8-2,7.2-3
				c-0.4,0.2-0.8,0.3-1.3,0.5c2.7-0.4,5.3-0.7,8-1.1c-0.9,0.2-1.8,0.2-2.8,0.1c2.7,0.4,5.3,0.7,8,1.1c-1.5-0.3-2.8-0.6-4.2-1.2
				c2.4,1,4.8,2,7.2,3c-1.7-0.7-3.7-2.5-5.4-2.9c3.8,3,4.8,3.8,3,2.3c-0.6-0.5-1.2-1-1.7-1.6c-1.3-1.2-3.5-3-4.3-4.6
				c0.9,1.2,1.8,2.4,2.7,3.6c-0.6-0.8-1.2-1.7-1.8-2.6c-5.6-8-10.4-16.3-16.5-23.9c-13.1-16.4-34.8-26.7-56-24.9
				c-8.1,0.7-15.3,2.9-21.2,8.8c-5.2,5.2-9.1,13.7-8.8,21.2c0.7,15.1,13.3,31.5,30,30c3.2-0.3,6.3-0.2,9.5,0.2
				c-2.7-0.4-5.3-0.7-8-1.1c3.2,0.6,6.2,1.4,9.2,2.7c-2.4-1-4.8-2-7.2-3c1.7,0.8,3.3,1.6,4.9,2.6c5.8,3.7-4.2-4.3-0.3-0.2
				c1.1,1.2,2.3,2.4,3.4,3.6c3.9,4.3-3.6-5.4-0.7-0.8c4,6.1,7.8,12.5,12.2,18.4c6.6,8.9,13.5,16.8,23.3,22.4
				c12.6,7.2,30.4,10.6,43.1,1.5c5.5-3.9,9.6-8,12.3-14.3c2.4-5.8,3.8-13.4,1.5-19.5c-3.5-9.4-8.4-16.7-17.3-21.6
				c-5.7-3.2-10.3-3.1-15.9-5.2c2.4,1,4.8,2,7.2,3c-5.4-2.9-8.8-6.2-15.3-7.9c-5.8-1.5-12.5-1.6-18.3,0c-6.3,1.7-10.2,4.9-15.2,8.8
				c-7.2,5.7-9.4,16.7-8.3,25.2c1.2,9,6.1,17.5,14.3,21.9c14.9,8,30.7,14.9,46.8,20.3c6.8,2.3,13.8,4.3,20.8,6
				c7.7,1.9,15.7,2.7,23.1,5.6c-2.4-1-4.8-2-7.2-3c8.6,4,16.6,9.9,24.6,15c13.3,8.4,33.7,3.2,41-10.8
				C1253.8,854.9,1249.4,837.6,1235.2,828.6L1235.2,828.6z"/>
		</g>
	</g>
	<g>
		<path class="st9" d="M1141,787.6c1.4-24.5,0.9-48.4-0.1-72.9c-0.5-12.5-2.1-26.1-11-34.9c-8-7.8-20-9.7-31.1-9.6
			c-11.1,0.2-22.4,2.1-33.4,0.4c-14.8-2.3-27.7-10.7-40.2-18.9c-3.6-2.4-7.3-4.8-11.4-6.3c-2.3-0.9-4.7-1.5-7.2-1.9
			c-14.2-2.2-28.4,3.8-41.2,10.3c-7.2,3.7-14.5,7.8-19.3,14.4c-4.3,5.8-6.1,13-8.3,19.9c-4,12.8-9.2,24.9-15.8,36.5l-0.4,0.3
			c-19.7,1-39.5,1.9-59.2,2.9c-16.4,0.8-33.8,1.9-47.3,11.2s-20.8,29.8-10.4,42.6c8,9.8,22.2,11,34.8,10.8
			c44-0.8,76.7-12.7,118.4-26.6c3-1,13.8-2.6,17-3c4.1-0.5,13.5-4,17.6-4.4c10-1,14.2-1.6,23.2-4.3c15.3-4.6,31.7-2.4,47.6-0.2
			c10.3,1.5,20.8,3,30.4,7.2c7.9,3.5,14.9,8.7,21.8,13.8c22.3,16.6,44.6,33.3,64.4,52.8c9.2,9.1,17.9,18.8,28.3,26.5
			c10.4,7.7,23.1,13.2,36,12.4c8-0.5,16.8-4.6,18.5-12.5c1.9-9.1-6.8-16.7-14.6-21.7C1215.3,811.5,1174.6,798.1,1141,787.6l82,31
			c40.3,25.6,48.8,32.5,31.5,49.2c-5,4.9-12.2,10.6-21.5,17.8c-8.4,6.6-49.4,1.4-59.2-2.7c-25.1-10.5-50.6-20.1-76.4-28.7
			c-11.4-3.8-22.9-7.4-34.8-9c-27.1-3.6-54.3,3.6-81.6,6.4c-58.2,5.9-119.6-10.1-163.5-48.7c-11.3-9.9-22.2-24.3-17.7-38.7"/>
		<g>
			<path class="st10" d="M1142.5,787.6c1.3-24,0.9-48,0-71.9c-0.6-16.7-3.5-35.3-20.5-42.9c-19-8.5-39.9,0.1-59.6-4.2
				c-10.6-2.3-20.2-7.7-29.2-13.4c-8.3-5.3-16.2-11.5-26.2-13.1c-9.8-1.5-19.7,0.7-28.8,4.2c-9,3.5-18.5,7.9-26.2,13.9
				c-7.3,5.7-11.1,13.2-13.9,21.9c-3.5,11-7.2,21.7-12.3,32.1c-1.1,2.2-2.2,4.3-3.3,6.4c0.1-0.2-1.2,2.6-1.4,2.8
				c-0.8,0.5-3.3,0.1-4.4,0.2c-6.2,0.3-12.5,0.6-18.7,0.9c-11.8,0.6-23.7,1.1-35.5,1.7c-17.5,0.9-37.7,1.9-51.5,14.1
				c-10.4,9.2-16.9,26.3-9.3,39.2c9,15.3,30,14.7,45.4,13.9c20.2-1,40-4.6,59.5-9.9c9.9-2.7,19.7-5.8,29.5-9
				c8.8-2.9,17.6-6.7,26.7-8.5c6.3-1.2,12.8-1.7,19-3.5c3.5-1,6.9-2.2,10.5-2.8c4.5-0.7,9-0.9,13.4-1.7c10.5-2,20.1-5.4,31-5.3
				c11.9,0.1,23.8,1.9,35.5,3.8c11.3,1.9,21.8,5.2,31.4,11.4c9,5.8,17.5,12.6,26.1,19.1c18.1,13.7,35.8,27.9,51.8,43.9
				c14.1,14.2,28.4,30,48.4,35.3c11.9,3.2,35.9,1.8,34.7-15.9c-0.5-7.8-7.1-13.6-13.1-17.8c-8.2-5.8-17.4-10.5-26.4-15
				c-18.1-8.9-37-16.1-56.1-22.6c-9.1-3.1-18.3-6-27.5-8.9c-1.9-0.6-2.6,2.2-0.8,2.9c23.3,8.8,46.6,17.6,69.9,26.4
				c3.7,1.4,7.6,2.6,11.3,4.3c3,1.4,5.7,3.5,8.4,5.2c5.5,3.6,11.1,7.2,16.4,11.1c5.2,3.8,14,9.5,14.8,16.7
				c0.8,6.7-6.3,12.6-10.7,16.5c-4.2,3.7-8.5,7.2-12.9,10.7c-4.1,3.2-7.1,5.8-12.2,6.6c-9.2,1.5-19,0.6-28.2-0.5
				c-7.7-0.9-15.9-1.9-23.2-4.7c-15.1-5.7-30-12.2-45.2-17.8c-28.8-10.6-57.9-22.3-89.1-20.8c-30,1.4-59.2,9.2-89.4,8.3
				c-30.3-0.9-60.6-7.7-88-20.7c-13.9-6.6-27-14.8-38.9-24.5c-12-9.8-26.9-24.3-22.3-41.4c0.5-1.9-2.4-2.7-2.9-0.8
				c-3.5,12.8,3.2,24.6,11.6,33.8c9.3,10.1,21,18.4,32.6,25.6c23.9,14.6,50.9,24,78.5,28.3c29.3,4.6,57.8,2.3,86.9-2
				c17.4-2.6,35.1-5,52.7-3c17.2,2,33.8,8.2,50.1,13.9c16.2,5.7,32.3,11.7,48.2,18.1c9.9,4,18.9,7.8,29.5,9.5
				c9.8,1.6,19.8,2.6,29.8,2.3c3.7-0.1,7.6-0.3,11.2-1.4c4.4-1.3,7.6-4.5,11.1-7.3c9-7.1,30.5-20.6,21.6-34.9
				c-4.5-7.3-12.8-12.4-19.7-17.1c-6.7-4.5-13.6-10.3-21.2-13.1c-25.9-9.8-51.8-19.6-77.7-29.4c-0.7-0.3-1.5-0.6-2.2-0.8
				c-0.3,1-0.5,1.9-0.8,2.9c36.2,11.3,72.9,23.4,105.3,43.6c7.3,4.6,19.2,13,14.6,23.2c-4.2,9.3-17.2,10.1-25.9,8.6
				c-20.5-3.6-35.3-19.4-49.3-33.5c-14.1-14.3-29.5-27.2-45.4-39.5c-8-6.2-16.2-12.3-24.4-18.4c-7.3-5.4-14.7-10.8-23.2-14.2
				c-9.7-3.9-20.2-5.3-30.5-6.7c-9.6-1.3-19.3-2.6-29-2.3c-9.2,0.3-17.4,3.1-26.2,5c-7.4,1.6-14.8,1.7-22.1,3.8
				c-5.8,1.7-11.4,2.7-17.4,3.6c-7.6,1.2-14.6,3.6-21.9,6c-18.1,6.1-36.4,12.1-55,16.3c-18.7,4.2-38.2,6.9-57.4,6.2
				c-8.7-0.3-18.6-1.8-25.2-8.2c-6.5-6.3-7.7-15.4-5.2-23.9c5.7-19.1,25.2-26.2,43.3-28.2c20.8-2.4,42-2.4,62.9-3.4
				c2.6-0.1,5.3-0.3,7.9-0.4c1.5-0.1,4.1,0.3,5.5-0.4c2.3-1.1,3.5-5.2,4.6-7.3c4.5-8.7,8.3-17.8,11.4-27c3.2-9.5,5.2-19.7,12.8-26.9
				c7.2-6.8,17.3-11.4,26.4-15.2c10.2-4.2,21.6-7,32.5-4.2c9.4,2.4,17.4,9.4,25.5,14.3c7.7,4.6,15.8,8.9,24.6,11
				c9.7,2.4,19.6,1.7,29.5,1.1c19.1-1.2,40.4,0.6,47.1,21.9c2.9,9.2,2.9,19,3.2,28.5c0.4,10.8,0.6,21.6,0.6,32.5
				c0,10.8-0.3,21.7-0.9,32.5C1139.4,789.5,1142.4,789.5,1142.5,787.6L1142.5,787.6z"/>
		</g>
	</g>
</g>
<polyline class="st11" points="422.6,661.7 400.6,640.3 400.6,504 422.6,503.1 426,665.6 "/>
<polygon class="st0" points="1118.5,626.9 1098.5,616.7 1098.5,474.6 1118.5,473.7 "/>
<path class="st0" d="M1416,462.9"/>
</svg>
