<?xml version="1.0" encoding="utf-8"?>
<!-- Generator: Adobe Illustrator 22.1.0, SVG Export Plug-In . SVG Version: 6.00 Build 0)  -->
<svg version="1.1" id="Layer_1" xmlns="http://www.w3.org/2000/svg" xmlns:xlink="http://www.w3.org/1999/xlink" x="0px" y="0px"
	 viewBox="0 0 1366 1366" style="enable-background:new 0 0 1366 1366;" xml:space="preserve">
<style type="text/css">
	.st0{fill:#660033;stroke:#660033;stroke-width:0.25;stroke-miterlimit:10;}
	.st1{fill:#FFFFFF;stroke:#660033;stroke-width:3;stroke-miterlimit:10;}
	.st2{fill:#660033;stroke:#660033;stroke-width:3;stroke-miterlimit:10;}
	.st3{fill:none;stroke:#660033;stroke-width:7;stroke-miterlimit:10;}
	.st4{fill:none;stroke:#660033;stroke-width:6;stroke-miterlimit:10;}
	.st5{fill:none;stroke:#660033;stroke-width:10;stroke-miterlimit:10;}
	.st6{fill:none;stroke:#660033;stroke-width:5;stroke-miterlimit:10;}
</style>
<g id="Layer_1_1_">
</g>
<g id="Layer_2_1_">
	<g>
		<path class="st0" d="M558.5,560.5c-1.3-1.8-4-4-6-5c-4.8-2.4-4.7-2.3-11-4c-2.7-0.7-6.8-1.8-12-2c-5.6-0.2-10.1,0.6-15,3
			c-5.3,2.7-8.1,7-10,10c-4,6.3-4.8,12.2-5,14c-0.3,2.8-0.9,8.6,2,15c2.5,5.6,6.3,8.8,9,11s8.8,7.1,18,8c7,0.7,12.3-1.3,17-3
			c5.7-2.1,9.7-4.7,13-7c4.8-3.2,8.4-6.5,11-9c5-39.3,10-78.7,15-118c21,13,42,26,63,39c-4,28.3-8,56.7-12,85c-1.4-1-3.5-2.4-6-4
			c-3.6-2.3-4.4-2.7-5-3s-2.5-1.1-8-2c-3.4-0.5-6.2-1-10-1c-2.8,0-6,0-10,1c-3.1,0.8-6.1,1.5-9,4c-2.3,1.9-3.4,3.9-5,7
			c-1,1.9-3,5.6-4,11c-1.3,7-0.3,12.5,0,14c0.6,3.1,1.6,7.6,5,12c4.6,5.9,10.9,7.8,15,9c3.2,1,9.5,2.4,17,1c4.8-0.9,8-2.5,13-5
			c4.6-2.3,8.9-4.5,13-9c2.4-2.6,4-5.2,5-7c8-52.3,16-104.7,24-157c-30-18-60-36-90-54c-7,46.7-14,93.3-21,140c-0.3,2.5-0.2,4,0,5
			c0,0.2,0.2,1.9,0,2S558.7,560.7,558.5,560.5z"/>
		<polygon class="st1" points="590.5,438.5 587.5,455.5 649.5,495.5 652.5,476.5 		"/>
		<polygon class="st2" points="359.5,634.5 335.5,648.5 362.5,663.5 386.5,650.5 		"/>
		<polygon class="st2" points="324.5,654.5 300.5,668.5 327.5,683.5 351.5,670.5 		"/>
		<polygon class="st2" points="362.5,677.5 338.5,691.5 365.5,706.5 389.5,693.5 		"/>
		<polygon class="st2" points="397.5,656.5 373.5,670.5 400.5,685.5 424.5,672.5 		"/>
		<polygon class="st2" points="436.5,677.5 412.5,691.5 439.5,706.5 463.5,693.5 		"/>
		<polygon class="st2" points="400.5,699.5 376.5,713.5 403.5,728.5 427.5,715.5 		"/>
		<polygon class="st2" points="438.5,719.5 414.5,733.5 441.5,748.5 465.5,735.5 		"/>
		<polygon class="st2" points="472.5,700.5 448.5,714.5 475.5,729.5 499.5,716.5 		"/>
		<polygon class="st2" points="475.5,741.5 451.5,755.5 478.5,770.5 502.5,757.5 		"/>
		<polygon class="st2" points="512.5,722.5 488.5,736.5 515.5,751.5 539.5,738.5 		"/>
		<polygon class="st2" points="515.5,764.5 491.5,778.5 518.5,793.5 542.5,780.5 		"/>
		<polygon class="st2" points="548.5,743.5 524.5,757.5 551.5,772.5 575.5,759.5 		"/>
		<polygon class="st2" points="552.5,785.5 528.5,799.5 555.5,814.5 579.5,801.5 		"/>
		<polygon class="st2" points="586.5,766.5 562.5,780.5 589.5,795.5 613.5,782.5 		"/>
		<polygon class="st2" points="590.5,807.5 566.5,821.5 593.5,836.5 617.5,823.5 		"/>
		<polygon class="st2" points="623.5,787.5 599.5,801.5 626.5,816.5 650.5,803.5 		"/>
		<polygon class="st2" points="662.5,809.5 638.5,823.5 665.5,838.5 689.5,825.5 		"/>
		<polygon class="st2" points="700.5,831.5 676.5,845.5 703.5,860.5 727.5,847.5 		"/>
		<polygon class="st2" points="737.5,853.5 713.5,867.5 740.5,882.5 764.5,869.5 		"/>
		<polygon class="st2" points="703.5,872.5 679.5,886.5 706.5,901.5 730.5,888.5 		"/>
		<polygon class="st2" points="668.5,891.5 644.5,905.5 671.5,920.5 695.5,907.5 		"/>
		<polygon class="st2" points="636.5,910.5 612.5,924.5 639.5,939.5 663.5,926.5 		"/>
		<polygon class="st2" points="522.5,845.5 498.5,859.5 525.5,874.5 549.5,861.5 		"/>
		<polygon class="st2" points="333.5,736.5 309.5,750.5 336.5,765.5 360.5,752.5 		"/>
		<polygon class="st2" points="297.5,714.5 273.5,728.5 300.5,743.5 324.5,730.5 		"/>
		<polygon class="st2" points="257.5,691.5 233.5,705.5 260.5,720.5 284.5,707.5 		"/>
		<polygon class="st2" points="365.5,717.5 341.5,731.5 368.5,746.5 392.5,733.5 		"/>
		<polygon class="st2" points="404.5,738.5 380.5,752.5 407.5,767.5 431.5,754.5 		"/>
		<polygon class="st2" points="443.5,761.5 419.5,775.5 446.5,790.5 470.5,777.5 		"/>
		<polygon class="st2" points="481.5,784.5 457.5,798.5 484.5,813.5 508.5,800.5 		"/>
		<polygon class="st2" points="518.5,804.5 494.5,818.5 521.5,833.5 545.5,820.5 		"/>
		<polygon class="st2" points="555.5,827.5 531.5,841.5 558.5,856.5 582.5,843.5 		"/>
		<path class="st2" d="M290.5,674.5c-1,0-22,13-22,13l63,37l23-13L290.5,674.5z"/>
		<polygon class="st2" points="368.5,757.5 349.5,769.5 490.5,851.5 510.5,840.5 		"/>
		<polygon class="st2" points="626.5,829.5 604.5,842.5 670.5,880.5 691.5,867.5 		"/>
		<polygon class="st2" points="591.5,847.5 569.5,861.5 596.5,878.5 619.5,864.5 		"/>
		<polygon class="st2" points="558.5,867.5 538.5,879.5 604.5,916.5 659.5,886.5 630.5,869.5 602.5,885.5 599.5,887.5 596.5,889.5 
					"/>
		<polygon class="st3" points="355.5,581.5 355.5,189.5 864.5,484.5 864.5,875.5 538.5,1065.5 29.5,770.5 		"/>
		<polygon class="st4" points="24.8,786 24.8,797.7 536,1086 536,1063.5 24.8,775.2 		"/>
		<polygon class="st4" points="888.3,472.8 888.3,884.9 542,1086 542,1063.2 865.6,875 865.6,487.7 		"/>
		<path class="st4" d="M355.5,581.5l509,294L355.5,581.5z"/>
		<polygon class="st4" points="863.3,482.2 886.2,467 381.8,170.5 358,183.7 		"/>
		<polygon class="st4" points="381.5,237.5 381.5,562.5 837.5,827.5 837.5,501.5 		"/>
		<polygon class="st4" points="359.5,615.5 199.5,703.5 644.5,959.5 798.5,868.5 		"/>
		<path class="st4" d="M315.5,803.5c-5,3-88,52-88,52l154,92l93-52L315.5,803.5z"/>
	</g>
	<g>
		<path class="st5" d="M894.5,1024.5c20-29,40-58,60-87c-15-4.2-23.7-11.6-28-16c-5.3-5.4-6.7-9.1-7-10c-4.5-12.8,5.3-25.8,7-28
			c3.6-6.8,84.9-159.2,85-159.3l0.3-0.5c0.1-0.2,2.7-5,2.8-5.2c-1.8-5.4-3.7-13.3-4-23c-0.2-6.2,0.4-11.6,1.2-16.2s1.9-8.6,2.8-11.8
			c6.2-21.7,17.2-36.3,21-41c13.7-17.1,28.6-25.7,38-31c5.9-3.3,13.2-7.4,21.8-11c12.5-5.1,27.9-9.1,46.2-8c5.2,0.3,30.6,2.2,56,20
			c28.3,19.8,38.8,46.8,43,58c3.5,9.5,14.3,41.5,4,79c-3,11-7.5,26.6-21,41c-12.4,13.2-26.3,18.8-39,24c-5.8,2.4-14.2,5.7-25.1,7.9
			c-4.8,1-10.1,1.7-15.9,2.1c-16.9,1-30.5-1.9-42.2-5.3c-3-0.9-6-1.8-8.8-2.7c-14-4.4-25.8-8.1-39-18c-16.5-12.4-24.7-26.7-27-31
			c-4.2-7.7-10.6-27.8-12-33"/>
		<path class="st5" d="M1133.5,809.5c-47,42.7-94,85.3-141,128c-3.7,1.3-8.4,2.5-14,3c-10.4,0.9-18.8-1.2-24-3"/>
		<line class="st5" x1="1039.5" y1="875.5" x2="1075.5" y2="844.5"/>
		<path class="st6" d="M1072.8,793.6c0.3-96.9-54.1-113.2-54.1-113.2s78.9-54.3,227.3-6.6"/>
		<path class="st6" d="M1101.5,803.5c0,0,2.1-125-68-166.8c0,0,61.6-34.5,197.3-3.5"/>
		<path class="st6" d="M1061,603.1c0,0,77.4,76.2,68,205.3"/>
		<path class="st6" d="M1095.5,584.5c0,0,80,65,64,222"/>
		<path class="st6" d="M1123.5,577.5c0,0,80.2,76.8,76.1,214.4"/>
		<path class="st6" d="M1170.5,582.5c0,0,42.3,32,60,183"/>
		<path class="st6" d="M1078.5,795.5c0,0,53-50,145-21"/>
		<path class="st6" d="M1038.5,768.5c0,0,83-69,206-35"/>
		<path class="st6" d="M1017.5,728.5c0,0,63.1-69.6,231-18.8"/>
	</g>
</g>
</svg>
