<?xml version="1.0" encoding="utf-8"?>
<!-- Generator: Adobe Illustrator 22.1.0, SVG Export Plug-In . SVG Version: 6.00 Build 0)  -->
<svg version="1.1" id="Layer_1" xmlns="http://www.w3.org/2000/svg" xmlns:xlink="http://www.w3.org/1999/xlink" x="0px" y="0px"
	 viewBox="0 0 1366 1366" style="enable-background:new 0 0 1366 1366;" xml:space="preserve">
<style type="text/css">
	.st0{display:none;}
	.st1{fill:none;stroke:#003509;stroke-width:6;stroke-miterlimit:10;}
	.st2{fill:#003509;stroke:#003509;stroke-width:3;stroke-miterlimit:10;}
	.st3{fill:#FFFFFF;stroke:#003509;stroke-width:3;stroke-miterlimit:10;}
	.st4{fill:none;stroke:#003509;stroke-width:7;stroke-miterlimit:10;}
	.st5{fill:none;stroke:#003509;stroke-width:5;stroke-miterlimit:10;}
	.st6{fill:none;stroke:#003509;stroke-width:3;stroke-miterlimit:10;}
</style>
<g id="Layer_2_1_" class="st0">
</g>
<g id="Layer_3">
	<g>
		<path class="st1" d="M893.9,952.2c30.3-29.2,52.2-68.9,61.6-90.8c7.4-17.3,11.5-31,32.4-100.5c-1.4-13.7-2.9-27.4-4.3-41.1
			c-0.6,0.9-1.7,2.1-3,3.4c0,0-4.6,5.1-9.9,9.6C953,747.7,921,756.6,921,756.6c-40.5,11.2-60.9,16.9-86.5,18.4
			c-37.8,2.3-65.9-3.2-82.2-6.5c-37.8-7.7-51.6-17.3-58.4-22.7c-12-9.6-19.4-20.4-23.8-28.1c-2.6,3-5.7,7.8-7.6,14.1
			c-4.2,14.7,2.3,27.8,7.6,38.9c18.4,38.8,1.7,10.7,28.1,64.9c11.8,24.1,23.5,46.9,24.9,49.7c4.8,9.3,11.1,21.5,19.5,38.9
			c3.7,7.7,6.7,14.1,8.6,18.4c0.3,0.2,8.4,6.3,8.6,6.5c5.8,4.3,18.4,8.1,23.4,9.5c1.2,0.3,1.9,0.5,2.1,0.5c6.7,1.5,21.2,4.2,41.6,4
			c8.1-0.1,31.5-0.8,60.3-8.9C889.4,953.6,891.7,952.9,893.9,952.2c11.7,133.5,20,231.7,20.5,244.3c0.1,1.5,0.1,4.8-1.1,8.6
			c-3.4,10.4-13.5,15.9-18.4,18.4c-30.9,16-75.7,11.9-75.7,11.9s-41.9-3.9-69.2-25.9c-3.6-2.9-5.4-6.5-5.4-6.5
			c-1.5-3-2.1-5.9-2.2-8.6c-1.7-38.9,7.6-80,7.6-80c6.2-27.4,5.9-41,7.6-57.3c3.5-35.8-1.1-50.8,3.2-68.1c0.9-3.4,2.2-13,4.3-23.8
			c1.4-6.8,1.1-8.6,1.1-11.9c0,0-9.7-11.9-9.7-15.1s-25.9-82.2-23.8-103.8c2.2-21.6,5-46.6,5-46.6l26.4,65l17.2-57l21.7,59.1
			l20.4-57.6l19.6,57.6l13.4-56.8l15.8,71.9l24.4-78.6l10.2,68.9c0,0,26.6-61,37.8-77.8c10.8-16.2,6.5-13,6.5-13"/>
		
			<ellipse transform="matrix(0.9983 -5.750903e-02 5.750903e-02 0.9983 -39.0961 48.4057)" class="st1" cx="821.5" cy="703.5" rx="153.5" ry="50.8"/>
		<path class="st1" d="M988,754.1c0,0-162.6,80.2-298.9,10.2c-9.2-4.8-18.3-10.2-27.1-16.3"/>
		<path class="st1" d="M688.5,764.1c0,0,20.3,54.4,44.2,74.3"/>
		<polyline class="st1" points="765.3,852.7 781.1,957.8 814,962.8 802.6,853.4 		"/>
		<polyline class="st1" points="842.4,852.5 844.6,962.1 872.8,957.7 872.3,870 		"/>
		<line class="st1" x1="907.4" y1="859" x2="891.8" y2="952.2"/>
		<line class="st1" x1="975.4" y1="689.8" x2="983.9" y2="717.3"/>
	</g>
</g>
<g id="Layer_1_1_">
	<g>
		<polygon class="st2" points="761.7,241.9 732.4,224.7 733.3,221.6 764.1,241.2 		"/>
		<g>
			<g>
				<g>
					<path class="st3" d="M699,681.9c30.8,6.8,57.4,18.9,85.4,33.5c6.4,3.4,13.9,9.5,18.4,15.1c4.5,5.7,7.8,13.5,9.7,20.5
						c4.4,15.6,5.4,32.4,5.4,48.6c0,11.9-2.3,24.4-4.3,33.5c-8.6,37.8-25.9,74.6-38.9,110.3c-4,11-5.8,25.1-5.4,36.8
						c0.8,22.2,10.5,44.5,16.2,65.9c5.3,20,7.6,37.7,6.5,58.4c-2.2,42.6-7.5,85.4-29.2,122.2c-21.2,35.9-54.3,65.2-94.1,77.8
						c-39.8,12.6-85.7,8.8-126.5,0"/>
					<g>
						<path class="st2" d="M698.6,683.4c28.6,6.5,55.5,18.2,81.5,31.6c13,6.7,23.4,16,28.6,29.8c5.4,14.3,6.9,29.9,7.4,45.1
							c0.9,29.6-7,57.7-17,85.5c-5.3,14.6-11.1,29.1-16.9,43.6c-5.1,12.9-10.8,25.8-13.2,39.6c-2.2,12.6-2.1,25.3,0.3,37.8
							c2.9,15.2,8.4,29.7,12.8,44.6c4.2,14.3,7.1,28.9,8,43.8c0.9,14.3-0.2,28.5-1.5,42.8c-2.5,29.1-7.8,58.5-20.3,85.1
							c-11,23.2-27.2,44.2-46.9,60.8c-23,19.4-50.7,31.8-80.5,35.9c-32.8,4.5-66.2,0.8-98.4-6.2c-2.1-0.4-2.9,2.7-0.9,3.1
							c54.8,11.7,114.6,14.1,163.7-17.1c21.3-13.6,39.5-32,53.4-53c16-24.1,25-51.5,29.6-79.8c4.6-28.4,7.6-58.6,3.4-87.2
							c-2.4-15.8-7-31-11.9-46.3c-4.8-14.9-9.3-30.2-9.2-45.9c0-15.7,4-29.6,9.5-44c5.5-14.5,11.5-28.8,17-43.2
							c10.7-27.9,21.5-57.7,22.2-87.9c0.3-17-0.8-34.7-5.4-51c-4-13.9-11.4-24.9-23.2-33.2c-6.6-4.5-14.2-7.9-21.3-11.4
							c-7.5-3.7-14.9-7.1-22.5-10.3c-15.5-6.5-31.4-11.8-47.7-15.5C697.4,679.9,696.5,683,698.6,683.4L698.6,683.4z"/>
					</g>
				</g>
				<g>
					<path class="st3" d="M400.6,1249.5c-41.8-40-49.6-102.1-35.9-158.3c13.7-56.3,48.3-105.2,86.5-148.8
						c12.5-14.3,25.7-28.6,32.8-46.3c9.6-24.2,6.3-51.5,6.1-77.5c-0.2-28.2,3.4-56.4,10.6-83.6c5-18.5,12.2-37.4,26.8-49.8
						c17.8-15,42.8-17.5,66.2-17.7c19.7-0.2,39.3,0.6,58.9,2.6h-1.1c55.7,3.7,116.2,44.8,116.2,105.3c-1.1,11.9,0.3,24.6-3.2,36.8
						c-5.9,20-13.5,39.5-22.7,56.2c-13.1,23.8-30.3,46.5-40,72.4c-5.4,14.1-4.8,29,0,43.2c9.8,29.3,12.3,58.3,17.3,88.6
						c0.5,3.2,1.6,11.4,1.6,14.6c0,2.2,4.3,42.6,1.1,63.8c-9.3,61.8-40,124.3-105.9,147c-1.1,0-5.4,2.2-6.5,2.2
						c-50.8,13-93.5,0.5-142.2-13.5c-24.9-6.5-47.6-19.5-66.8-37"/>
					<g>
						<path class="st2" d="M401.8,1248.3c-32.4-31.5-44.2-76.8-41.2-121c3.4-48.1,24-92.9,51-132.2c14.2-20.6,30.3-39.7,46.7-58.6
							c15.7-17.9,28.9-36.5,32.4-60.6c3.8-25.7-0.2-52.1,1.3-77.9c1.5-25.9,5.7-52.6,14.5-77.2c4.4-12.3,10.7-24.4,20.5-33.3
							c9.9-9,22.8-13.6,35.8-16c13.8-2.5,28.1-2.6,42.1-2.4c15.8,0.2,31.6,1.1,47.2,2.6c0-1.1,0-2.2,0-3.2c-0.3,0-0.8,0-1.1,0
							c-2.1-0.1-2.1,3.1,0,3.2c54.5,3.9,118.4,45.5,114.6,106.5c-0.5,9.5,0,19.2-1.8,28.6c-1.8,9.4-5.4,18.7-8.8,27.7
							c-6.6,17.5-15,33.9-24.8,49.8c-9.3,15.2-19.2,30.4-26.5,46.8c-7.2,16.1-9.7,32.2-4.9,49.5c2.6,9.1,5.5,17.9,7.7,27.1
							c2.2,9.4,3.8,18.9,5.3,28.3c2.6,16.5,6.1,33.4,7.1,50.2c1.3,21.3,4.2,43,1.2,64.2c-8.1,57.1-36.6,114.9-91,140.3
							c-32.3,15.1-69,15.6-103.5,9.1c-18.4-3.5-36.3-8.5-54.2-13.7c-17.4-5.1-33.7-11.4-49-21.4c-7.5-4.9-14.4-10.4-21-16.3
							c-1.5-1.4-3.9,0.9-2.3,2.3c13,11.8,27.6,21.7,43.6,28.9c16.8,7.6,35.1,11.9,52.9,16.6c37,9.8,74.4,14.8,112,5.8
							c58.6-13.9,95.8-68.6,110.2-123.9c3.5-13.3,6.2-26.9,6.6-40.8c0.4-13.4-0.3-26.9-1.4-40.3c-2.2-28.6-6.4-57.4-12.2-85.5
							c-4.2-20.2-14.4-40.3-10.3-61.4c3.7-18.7,15.4-36.3,25.2-52.4c9.8-16.1,19.8-32.1,27.2-49.5c7.4-17.1,14.7-35.2,15.5-53.9
							c0.8-16.1,1.4-31.7-3.7-47.1c-4.2-12.9-11.4-24.6-20.3-34.8c-18.8-21.2-45.4-35.3-73-41.4c-6.7-1.4-13.4-2.4-20.2-2.9
							c0,1.1,0,2.2,0,3.2c0.3,0,0.8,0,1.1,0c2.2,0.1,2.1-3,0-3.2c-27-2.6-55.1-4.5-82.2-1.3c-21.9,2.6-42.5,10.8-55.3,29.6
							c-13.7,20.1-18.9,46.4-22.6,69.9c-4.2,27.2-3.4,53.9-3.1,81.4c0.1,14.1-0.4,28.4-4.8,41.9c-4.1,13.1-11.8,24.4-20.4,34.9
							c-15.9,19.4-32.8,37.6-47.6,57.8c-28.4,38.9-51.1,82.9-57.6,131.1c-6.5,49,4.3,101.2,40.8,136.4
							C401,1252.1,403.2,1249.8,401.8,1248.3L401.8,1248.3z"/>
					</g>
				</g>
			</g>
			<line class="st4" x1="770.4" y1="239.8" x2="668.9" y2="672.5"/>
			<path class="st4" d="M663.3,671.1l98.4-429.2l33.5-10.8l56.2-125.4c0,0,4.3-19.5-7.6-28.1c-15.1-1.1-44.3-8.6-50.8-4.3
				c-6.5,4.3-54.1,126.5-56.2,134c-2.2,7.6-6.5,28.1-8.6,29.2c-2.2,1.1-121.1,431.3-121.1,431.3"/>
			<path class="st5" d="M526.8,847.9c-11.7,45.9,4.2,89.7,35.7,97.7s66.4-22.8,78.1-68.8c11.7-45.9,0.1-88.6-31.4-96.6
				c-10.8-2.7-20.3-0.5-27.2,1.6C551.9,791.2,533.5,821.8,526.8,847.9z"/>
			<path class="st5" d="M582.3,781.4c-6.7,6.9-21.3,23-29.2,37.8c-4.1,7.7-10.8,21.6-14.1,36.8c-1.9,9.1-5.4,28.4,1.1,47.6
				c6.9,20.2,28.1,41.1,41.1,42.2"/>
			<path class="st5" d="M613.6,1101.4l-5.4,42.2L432,1093.8c0,0-1.1-37.8,7.6-38.9L613.6,1101.4z"/>
			<g>
				<g>
					<path class="st2" d="M848.6,115.6c2.9-1.2,6.3-2.5,9.5-1.9c5.6,1.1,4.9,6.9,2.7,11c-1.3,2.4-3.1,4.5-4.6,6.7
						c-0.8,1.2-1.6,2.3-2.4,3.5c-1.1,1.4-3,6.3-4.1,3c-1-2.8,2.5-5.7,1.9-9.1c-0.5-2.8-2.5-4.4-5.1-5.4c-1.9-0.8-2.8,2.4-0.9,3.1
						c5.4,2.1-0.2,8.4,0.1,11.6c0.3,2.4,1.9,3.5,3.9,4.4c0.4,0.2,1.2,0.3,1.6,0c4.1-3.1,6.6-7.9,9.5-12c2.5-3.6,5.8-7.5,5.5-12.1
						c-0.8-9.6-12.3-8.4-18.5-5.8C845.8,113.3,846.7,116.4,848.6,115.6L848.6,115.6z"/>
				</g>
			</g>
			<g>
				<g>
					<path class="st2" d="M832,153.7c2.3-0.1,5.4-0.5,7.2,0.8c3,2.1,2.6,6.1,1.7,9c-0.9,3-3.4,8.2-5.8,10.2
						c-1.4,2.5-3.2,2.1-5.4-1.3c0-0.4,0-0.9,0-1.3c-0.1-1.1,0-2.1-0.2-3.1c-0.4-2.3-1.5-4-2.9-5.7c-1.3-1.6-3.6,0.6-2.3,2.3
						c3,3.8,1,6.9,2.5,10.8c0.5,1.3,1.4,2.4,2.7,2.9c4.6,2.2,8.3-2.2,10.6-5.7c3-4.8,6.5-11.2,4.1-17c-2.1-5.1-7.6-5.5-12.2-5.2
						C829.9,150.6,829.9,153.8,832,153.7L832,153.7z"/>
				</g>
			</g>
			<g>
				<g>
					<path class="st2" d="M810.5,201.6c1.9-1,4.6-3,6.8-3.5c4.9-1,6.7,1.6,6.9,5.4c0.2,5.4-3.9,9.7-7.9,12.6
						c-2.2,1.6-7.4,5.7-7.5,0.1c0-1.5,1.4-3.5,1.8-4.9c0.9-2.7,0.9-5.1-0.5-7.6c-1-1.8-3.8-0.2-2.8,1.6c2.4,4.3-6.2,14.4,0.6,16.6
						c5.8,1.8,13.1-4.9,16.1-9.1c3.5-4.8,4.6-11,1.1-16.1c-4.6-6.5-10.8-1.1-16.3,1.7C807,199.8,808.6,202.6,810.5,201.6
						L810.5,201.6z"/>
				</g>
			</g>
			<line class="st6" x1="756.3" y1="236.5" x2="549.8" y2="1115.4"/>
			<line class="st6" x1="539" y1="1113.3" x2="753.1" y2="234.4"/>
			<line class="st6" x1="525" y1="1110" x2="748.7" y2="232.2"/>
			<path class="st6" d="M513.1,1107.9"/>
			<line class="st6" x1="744.4" y1="230.1" x2="513.1" y2="1107.9"/>
			<line class="st6" x1="499" y1="1103.5" x2="740.1" y2="227.9"/>
			<line class="st6" x1="488.2" y1="1099.2" x2="735.8" y2="225.7"/>
			<g>
				<g>
					<path class="st2" d="M551.7,1116.9c-0.1,0.3-0.4,0.6-0.8,0.6c-0.3,0-0.6-0.2-0.8-0.5c-0.1-0.2,0-0.4,0.1-0.6
						c0.1-0.1,0.1-0.1,0.2-0.1c0.1,0,0.4,0.1,0.2,0s0.1,0,0.1,0c0.1,0-0.1-0.1,0,0c0,0.1,0,0.2,0,0.1c0-0.2,0,0.1,0,0.1
						c0,0.2-0.1,0.3-0.3,0.4c-0.3,0.3-0.4,0.4-0.2,0.3c0.1,0,0.2-0.1,0.3-0.1c0.2,0-0.1,0,0,0s0.1,0-0.1,0c-0.1,0-0.2-0.1-0.3-0.1
						c0.5,0.6,1.7,0.5,2.3,0c0.6-0.6,0.5-1.6,0-2.3c-1.2-1.5-4.1-0.8-4.6,1.1s1.2,3.9,3.1,3.9c1.9-0.1,3.4-2.3,2.3-4
						c-1.1-1.8-3.8-1.4-4.4,0.5c-0.2,0.8,0.3,1.8,1.1,1.9C550.6,1118.2,551.3,1117.8,551.7,1116.9L551.7,1116.9z"/>
				</g>
			</g>
			<g>
				<g>
					<path class="st2" d="M539.8,1113.7c-0.2,0.8-1.3,0.8-1.5,0c-0.1-0.2,0-0.4,0.2-0.5c0.1-0.1,0.1-0.1,0.2-0.1h0.1
						c-0.2,0-0.2,0-0.1,0c0,0,0.3,0.1,0.1,0s0,0,0,0c0.1,0.1-0.1-0.2,0,0c0,0.1,0,0.1,0,0s0-0.1,0,0c0.1,0-0.5,0.9-0.5,0.9
						c-0.1,0-0.1,0,0,0h0.1c0.1,0,0.3,0,0.1,0s-0.3,0.1-0.6-0.2c0.6,0.6,1.7,0.6,2.3,0s0.6-1.6,0-2.3c-1.3-1.4-4.1-0.8-4.6,1.2
						c-0.4,1.8,1.3,3.9,3.2,3.8c1.9-0.2,3.4-2.3,2.2-4.1c-1.1-1.7-3.9-1.3-4.4,0.6c-0.2,0.9,0.3,1.8,1.1,1.9
						C538.6,1115,539.6,1114.6,539.8,1113.7L539.8,1113.7z"/>
				</g>
			</g>
			<g>
				<g>
					<path class="st2" d="M525.7,1110.5c-0.2,0.8-1.3,0.8-1.5,0c-0.1-0.2,0-0.4,0.2-0.5c0.1-0.1,0.1-0.1,0.2-0.1h0.1
						c-0.2,0-0.2,0-0.1,0c0,0,0.3,0.1,0.1,0s0,0,0,0c0.1,0.1-0.1-0.2,0,0c0,0.1,0,0.1,0,0s0-0.1,0,0c0.1,0-0.5,0.9-0.5,0.9
						c-0.1,0-0.1,0,0,0h0.1c0.1,0,0.3,0,0.1,0s-0.3,0.1-0.6-0.2c0.6,0.6,1.7,0.6,2.3,0s0.6-1.6,0-2.3c-1.3-1.4-4.1-0.8-4.6,1.2
						c-0.4,1.8,1.3,3.9,3.2,3.8c1.9-0.2,3.4-2.3,2.2-4.1c-1.1-1.7-3.9-1.3-4.4,0.6c-0.2,0.9,0.3,1.8,1.1,1.9
						C524.5,1111.8,525.5,1111.3,525.7,1110.5L525.7,1110.5z"/>
				</g>
			</g>
			<g>
				<g>
					<path class="st2" d="M513.8,1107.2c-0.2,0.8-1.3,0.8-1.5,0c-0.1-0.2,0-0.4,0.2-0.5c0.1-0.1,0.1-0.1,0.2-0.1h0.1
						c-0.2,0-0.2,0-0.1,0c0,0,0.3,0.1,0.1,0s0,0,0,0c0.1,0.1-0.1-0.2,0,0c0,0.1,0,0.1,0,0s0-0.1,0,0c0.1,0-0.5,0.9-0.5,0.9
						c-0.1,0-0.1,0,0,0h0.1c0.1,0,0.3,0,0.1,0s-0.3,0.1-0.6-0.2c0.6,0.6,1.7,0.6,2.3,0c0.6-0.6,0.6-1.6,0-2.3
						c-1.3-1.4-4.1-0.8-4.6,1.2c-0.4,1.8,1.3,3.9,3.2,3.8c1.9-0.2,3.4-2.3,2.2-4.1c-1.1-1.7-3.9-1.3-4.4,0.6
						c-0.2,0.9,0.3,1.8,1.1,1.9C512.6,1108.5,513.6,1108.1,513.8,1107.2L513.8,1107.2z"/>
				</g>
			</g>
			<g>
				<g>
					<path class="st2" d="M499.8,1104c0.1-0.3,0-0.2-0.2,0.2c-0.1,0.1-0.2,0.1-0.2,0.2c-0.4,0.1-0.9-0.1-1-0.5c0-0.2,0-0.4,0.2-0.5
						c0.1-0.1,0.1-0.1,0.2-0.1c-0.2,0-0.2,0,0,0c0.1,0,0.2,0,0.2,0.1c-0.2-0.1-0.2-0.1-0.1,0c-0.1-0.1-0.1-0.1,0,0
						c-0.1-0.2-0.1-0.2,0,0c0,0.4-0.1,0.8-0.4,1c0.1,0,0.2-0.1,0.2-0.1c-0.1,0.1-0.1,0.1,0,0c-0.3,0.1-0.5,0-0.8-0.2
						c0.6,0.5,1.6,0.6,2.3,0c0.5-0.5,0.6-1.7,0-2.3c-0.8-0.6-1.6-0.9-2.6-0.4c-0.9,0.3-1.7,0.9-1.9,1.8c-0.4,2.1,1.7,3.9,3.7,3.6
						c1.8-0.3,2.8-2.5,1.8-4.1c-0.5-0.9-1.6-1.3-2.6-1.1c-0.9,0.2-1.7,1-1.8,1.8c-0.1,0.9,0.2,1.7,1.1,1.9
						C498.5,1105.4,499.7,1104.9,499.8,1104L499.8,1104z"/>
				</g>
			</g>
			<g>
				<g>
					<path class="st2" d="M489,1099.6c-0.2,0.8-1.3,0.8-1.5,0c-0.1-0.2,0-0.4,0.2-0.5c0.1-0.1,0.1-0.1,0.2-0.1h0.1
						c-0.2,0-0.2,0-0.1,0c0,0,0.3,0.1,0.1,0c-0.2-0.1,0,0,0,0c0.1,0.1-0.1-0.2,0,0c0,0.1,0,0.1,0,0s0-0.1,0,0c0.1,0-0.5,0.9-0.5,0.9
						c-0.1,0-0.1,0,0,0h0.1c0.1,0,0.3,0,0.1,0c-0.2,0-0.3,0.1-0.6-0.2c0.6,0.6,1.7,0.6,2.3,0c0.6-0.6,0.6-1.6,0-2.3
						c-1.3-1.4-4.1-0.8-4.6,1.2c-0.4,1.8,1.3,3.9,3.2,3.8c1.9-0.2,3.4-2.3,2.2-4.1c-1.1-1.7-3.9-1.3-4.4,0.6
						c-0.2,0.9,0.3,1.8,1.1,1.9C487.8,1100.9,488.7,1100.5,489,1099.6L489,1099.6z"/>
				</g>
			</g>
		</g>
	</g>
</g>
<g id="Layer_4">
	<g>
		<g>
			<path class="st3" d="M828,1090.9c1.2-0.1,2.4,0.6,3,1.7s0.8,2.3,0.6,3.6c0,0.4-0.1,1-0.3,1.3c-0.4,0.8-1.3,1.3-2.2,1.4
				s-1.7,0.1-2.6,0.1"/>
			<g>
				<path class="st2" d="M828,1092.5c1.7,0,2.3,1.9,2.1,3.4c-0.2,1.8-2.1,1.6-3.5,1.5c-2.1-0.1-2.1,3.1,0,3.2c3.5,0.2,6.5-1,6.7-4.8
					c0.2-3.2-1.8-6.6-5.3-6.6C825.9,1089.2,825.9,1092.4,828,1092.5L828,1092.5z"/>
			</g>
		</g>
		<g>
			<g>
				<path class="st3" d="M826.9,1108.9c-1.1-17.3-6.3-39.7,3.7-54.9c3.6-5.5,9.2-9.4,14.9-12.6c32.1-18.6,70.4-23.7,107.5-23.2
					c16.2,0.2,32.8,1.3,48.1,6.8c15.4,5.4,29.5,15.6,36.9,30.1c7.7,15,7.4,32.9,4.1,49.4c-3.2,16.5-9.3,32.4-12.4,49
					c-6.8,35.7-0.4,73.2-10.3,108.1c-0.5,1.9-1.2,3.9-2.4,5.5c-2.3,3-6.1,4.3-9.7,5.3c-44.2,12.4-92.4,10.5-135.6-5.3
					c-1.2-0.4-2.5-1-3.4-1.9c-0.8-0.9-1-2.1-1.3-3.2c-7-31.8-14.1-63.6-21.1-95.5C841.6,1146,838.9,1126,826.9,1108.9"/>
				<g>
					<path class="st2" d="M828.5,1108.9c-0.8-11.1-2.7-22.2-2.3-33.3c0.5-14.2,6.2-24.5,18.5-32c22.2-13.5,48.1-19.9,73.8-22.5
						c44.3-4.4,118.2-3.8,123.8,55.2c2.5,26.8-9.6,51.8-14.4,77.5c-4.9,26.4-2.7,53.3-5.3,80c-0.6,6.5-1.5,13-2.9,19.4
						c-0.6,3.1-1.3,6.3-2.4,9.3c-1.7,5.1-5.6,6.8-10.5,8.2c-12.9,3.8-26.3,6.1-39.7,7.2c-26.3,2.3-53-0.1-78.4-7.1
						c-7.4-2.1-18.1-3.4-20.5-11.5c-2.3-7.4-3.4-15.2-5.1-22.8c-3.5-15.9-7-31.8-10.5-47.7c-3.1-14.3-6.1-28.6-9.4-43
						c-3-13.4-7.4-26.3-15.1-37.7c-1.2-1.7-4-0.1-2.8,1.6c8.3,12.2,12.4,26.2,15.6,40.5c3.1,14.5,6.3,29,9.5,43.5
						c3.4,15.2,6.7,30.4,10.1,45.6c1.6,7.2,3.1,14.6,4.8,21.7c1.4,5.8,4.2,6.8,9.6,8.6c26.4,9.2,54.6,13.2,82.6,12
						c14.4-0.6,28.6-2.6,42.7-5.9c5.1-1.2,11-2.2,15.4-5.2c4.6-3.4,5.6-9.3,6.8-14.5c6.5-28.4,3.7-57.9,6.6-86.8
						c2.9-29.1,16.9-56.3,16.9-85.7c0-24.9-12.8-45.2-34.9-56.3c-23.8-11.9-52.4-11.8-78.4-10.4c-29.8,1.5-60,7.5-86.3,22.2
						c-12.1,6.8-20.4,15.5-22.6,29.5c-2.1,13.4,0.6,26.9,1.6,40.3C825.4,1111,828.6,1111,828.5,1108.9L828.5,1108.9z"/>
				</g>
			</g>
			<g>
				<path class="st3" d="M826.8,1108.7c3.5,9.1,10.8,13.1,19.8,16.8c32.1,13.4,67.5,20.1,102.2,16.4c34.6-3.7,68.5-18.3,93.1-43"/>
				<g>
					<path class="st2" d="M825.3,1109.2c5.3,12.6,18.2,17.1,30.2,21.5c16.2,6.1,33,10.3,50.2,12.3c32,4,64.9,0,94.4-13.4
						c16-7.2,30.6-17.3,43-29.6c1.5-1.5-0.8-3.8-2.3-2.3c-26.7,26.6-63.3,41.1-100.8,43.2c-20.5,1.2-41.2-1.2-61.1-6.4
						c-9.5-2.5-18.9-5.6-28.1-9.3c-9.1-3.7-18.3-7.6-22.3-17.2C827.5,1106.5,824.4,1107.2,825.3,1109.2L825.3,1109.2z"/>
				</g>
			</g>
			<g>
				<path class="st3" d="M870.1,1134.9c2.2,23.8,2.9,48.4,8.6,71.3c2.3,9,4.3,17.3,5.4,25.9c0.5,4.3,2.1,10.8,2.2,15.1
					c0.3,9.9,1.8,14.9,2.2,24.9"/>
				<g>
					<path class="st2" d="M868.5,1134.9c2.2,23.7,2.9,47.7,8.4,70.8c5.2,21.7,9.1,44,9.9,66.5c0.1,2.1,3.4,2.1,3.2,0
						c-0.8-21.2-4-42.7-9-63.3c-5.9-24.3-7.1-49.2-9.4-73.9C871.5,1132.8,868.3,1132.8,868.5,1134.9L868.5,1134.9z"/>
				</g>
			</g>
			<g>
				<path class="st3" d="M934.1,1144.4c0.1,45.6-6.4,90.3,0.9,135.3"/>
				<g>
					<path class="st2" d="M932.5,1144.4c0,45.3-6.2,90.7,0.9,135.8c0.3,2.1,3.5,1.2,3.1-0.9c-7-44.8-0.8-89.9-0.8-134.9
						C935.8,1142.3,932.5,1142.3,932.5,1144.4L932.5,1144.4z"/>
				</g>
			</g>
			<g>
				<path class="st3" d="M969.6,1139.3c2.3,23,0.2,46.3-1,69.5c-1.2,24.3-1.8,45.6-1.2,69.9"/>
				<g>
					<path class="st2" d="M968,1139.3c2.2,23.5,0.2,47-1,70.5c-1.2,22.9-1.7,45.8-1.2,68.9c0,2.1,3.4,2.1,3.2,0
						c-0.6-22.9,0-45.9,1.2-68.9c1.2-23.5,3.1-47,1-70.5C971,1137.3,967.8,1137.2,968,1139.3L968,1139.3z"/>
				</g>
			</g>
			<g>
				<path class="st3" d="M1010.7,1123c0.5,22.4-1.1,43.2-4,65.2c-0.5,4.3-1.9,8.5-2.7,12.9c-4.6,24-2.6,48.9-6.2,73.1"/>
				<g>
					<path class="st2" d="M1009.1,1123c0.5,25.3-1,51-6.4,75.8c-5.4,24.6-3,50.2-6.6,74.9c-0.3,2.1,2.8,2.9,3.1,0.9
						c3.7-25.4,1.2-51.7,7-76.8c5.6-24.2,6.6-50.1,6.1-74.8C1012.3,1120.9,1009.1,1120.9,1009.1,1123L1009.1,1123z"/>
				</g>
			</g>
			<g>
				<path class="st3" d="M839.3,1101.8c-0.9,0.3-1.3,1.2-1.4,2.2c-0.1,0.9,0.2,1.7,0.5,2.6c1.1,2.6,2.8,4.9,5,6.5
					c0.3,0.2,0.6,0.4,1.1,0.5c0.8,0.2,1.5,0,2.1-0.5c0.5-0.5,1-1.1,1.2-1.8c1.4-3.6,0-7.9-3-10.4c-0.8-0.6-1.8-1.3-2.9-1
					c-0.8,0.2-1.2,0.9-1.6,1.5"/>
				<g>
					<path class="st2" d="M838.5,1100.4c-7,4.3,4.6,19.7,9.8,13.2c4.9-6.2-3.6-20.9-9.5-12.9c-1.3,1.6,1.5,3.2,2.8,1.6
						c1.7-2.3,4.2,2.3,4.6,3.5c0.5,1.5,0.8,3.5,0,4.9c-1.3,2.5-2.9,0.3-4.1-1.1c-0.9-1-4-5.2-2.1-6.4
						C841.9,1102.1,840.3,1099.3,838.5,1100.4L838.5,1100.4z"/>
				</g>
			</g>
			<g>
				<path class="st3" d="M857.3,1111.8c-0.8,1.2-0.8,2.8-0.6,4.3c0.1,1.2,0.2,2.4,0.6,3.4c1,2.4,3.6,4.1,6.2,3.9
					c0.5,0,1.2-0.1,1.6-0.4c0.8-0.5,1.1-1.4,1.3-2.2c0.5-1.5,1-3.2,0.6-4.9c-0.2-1.1-0.9-1.9-1.5-2.8c-0.4-0.5-0.8-1.1-1.3-1.5
					c-1.1-0.9-2.5-1-3.9-1.1c-0.6,0-1.4,0-1.9,0.2c-0.6,0.2-1.2,0.8-1.3,1.4"/>
				<g>
					<path class="st2" d="M855.9,1111c-1.8,3.6-1.1,9.2,1.9,11.9c2.8,2.6,8,3.4,9.8-0.6c1.8-4.1,1.4-8.4-2.1-11.6
						c-2.7-2.5-8.5-2.7-10.2,1.1c-0.8,1.9,2.4,2.8,3.1,0.9c0.3-0.9,3.2-0.4,3.8-0.2c1,0.4,1.7,1.3,2.3,2.2c1.2,1.8,1.4,4.2,0.1,6.2
						c-1.5,2.3-4.6,0.3-5.7-1.5c-1-1.7-1.2-4.9-0.3-6.7C859.7,1110.8,856.8,1109.2,855.9,1111L855.9,1111z"/>
				</g>
			</g>
			<g>
				<path class="st3" d="M887.3,1120.9c-1.2,1.4-1.7,3.2-1.5,5c0.1,0.8,0.3,1.4,0.8,1.9c0.6,0.9,1.6,1.4,2.7,1.8
					c1.4,0.5,2.9,0.9,4.3,0.4c1.6-0.5,2.7-1.8,3.8-3.1c1.1-1.3,2.3-2.8,1.9-4.5c-0.2-1.4-1.5-2.5-2.9-2.9s-2.9-0.2-4.3,0
					c-1.9,0.3-4,0.6-5.9,1.2"/>
				<g>
					<path class="st2" d="M885.9,1120.2c-2.2,2.8-2.6,7.4,0.4,9.8c3.6,2.9,8.3,2.5,11.4-0.8c2.5-2.7,5-6.8,1.4-9.8s-9.5-1.1-13.5,0
						c-2.1,0.5-1.2,3.7,0.9,3.1c2.3-0.6,4.9-1.3,7.2-1.4c1.1,0,2.6,0,3.4,0.8c1.4,1.6-0.2,3.2-1.2,4.4c-1.8,2.2-3.9,3.2-6.6,1.8
						s-2.2-4.2-0.6-6.3C890,1120.1,887.2,1118.5,885.9,1120.2L885.9,1120.2z"/>
				</g>
			</g>
			<g>
				<path class="st3" d="M923.3,1125c-1,0.2-1.7,1-2.2,1.9c-0.3,1-0.4,1.9-0.4,2.9s0,2.1,0.2,3c0.2,1.2,0.9,2.4,1.8,3
					c1,0.8,2.4,1,3.5,0.4c0.8-0.4,1.4-1.2,1.8-1.9c0.6-1.1,1.3-2.3,1.5-3.6c0.2-1.3,0-2.7-0.6-3.7c-1.2-1.6-3.5-2.2-5.4-1.9"/>
				<g>
					<path class="st2" d="M922.9,1123.4c-6.8,2.2-4.1,17.1,3.6,14.6c3.4-1.1,5.4-6.1,4.9-9.3c-0.6-3.8-4.2-5.4-7.7-5.2
						c-2.1,0.1-2.1,3.4,0,3.2c1.6-0.1,3.8,0.1,4.4,1.9c0.6,1.7-0.4,4-1.5,5.3c-3.5,4.1-6.1-6.4-2.7-7.5
						C925.7,1125.9,924.8,1122.8,922.9,1123.4L922.9,1123.4z"/>
				</g>
			</g>
			<g>
				<path class="st3" d="M959.4,1124c-1.7,1.1-2.8,3.1-2.6,5.2c0.1,1.2,0.6,2.4,1.4,3.2c0.3,0.4,0.8,0.8,1.3,1
					c1.5,0.8,3.4,0.3,4.8-0.6c2.4-1.5,3.9-4.2,4-7c0-0.8-0.1-1.6-0.5-2.2c-0.4-0.4-1.1-0.6-1.6-0.9c-1.2-0.3-2.5-0.8-3.7-0.8
					c-1.3,0-2.6,0.4-3.4,1.5"/>
				<g>
					<path class="st2" d="M958.6,1122.6c-3.4,2.4-4.5,6.9-1.9,10.5c2.7,3.6,7.2,2.7,10.2-0.1c2.3-2.3,4.8-7.6,2.1-10.4
						c-1.3-1.3-4-1.8-5.7-2.1c-1.9-0.1-3.9,0.4-5.2,1.9c-1.4,1.5,0.9,3.8,2.3,2.3c1.3-1.4,3.8-1.2,5.5-0.3c2.2,1.1,0.4,4.2-0.6,5.6
						c-1.2,1.5-3.7,3.2-5.5,1.5s-1.3-4.8,0.6-6.1C961.9,1124.2,960.3,1121.4,958.6,1122.6L958.6,1122.6z"/>
				</g>
			</g>
			<g>
				<path class="st3" d="M988.2,1115.2c-1,1.6-1.9,3.4-1.4,5.2c0.3,1.1,1.1,1.9,2.1,2.4c1,0.4,2.1,0.8,3.1,0.9
					c0.5,0,1.1,0.1,1.6-0.1c1.3-0.3,2.1-1.6,2.8-2.8c0.6-1.2,1.4-2.5,1.2-3.8c-0.2-1.2-1.1-2.2-1.8-3c-0.5-0.5-1.1-1.1-1.8-1.3
					c-0.6-0.1-1.3,0.1-1.8,0.3c-1.7,0.6-3.5,1.4-5.2,2.2"/>
				<g>
					<path class="st2" d="M986.8,1114.5c-1.9,3.2-2.8,7.2,0.9,9.6c3,1.9,7,1.8,9.2-1.2c2.5-3.5,2.9-6.8-0.2-9.9
						c-3.2-3.2-7.2-0.6-10.7,1c-1.9,0.9-0.2,3.7,1.6,2.8c1.5-0.6,4.8-2.8,6.4-1.8c2.3,1.4,1.8,3.6,0.6,5.5c-1.1,1.8-2.3,2.3-4.3,1.5
						c-3.1-1.1-2.1-3.6-0.9-5.7C990.7,1114.2,987.9,1112.6,986.8,1114.5L986.8,1114.5z"/>
				</g>
			</g>
			<g>
				<path class="st3" d="M1015.5,1104.3c0.8,2.1,1.9,4.1,3.2,5.8c0.5,0.6,1.1,1.3,1.9,1.4c1.2,0.1,2.1-1.3,2.5-2.4
					c0.6-1.7,1.3-3.7,0.8-5.6c-0.2-0.8-0.6-1.5-1-2.3c-0.1-0.2-0.2-0.5-0.4-0.6c-0.5-0.4-1.3-0.4-1.9-0.4c-1.1,0.1-2.2,0.2-3,0.9
					c-0.5,0.5-0.9,1.2-1.2,1.9c-0.2,0.5-0.4,1.2-0.6,1.7"/>
				<g>
					<path class="st2" d="M1014,1104.7c1.1,2.6,3,7.9,6.3,8.4c3.6,0.5,5.1-4.2,5.4-6.9c0.4-3.2-1-7.7-4.8-7.7
						c-1.5,0-3.4,0.3-4.5,1.4c-1.2,1.1-1.6,2.9-2.3,4.4c-0.8,1.9,2.4,2.8,3.1,0.9c0.5-1.5,1-3.2,2.8-3.4c2.7-0.1,2.6,3.5,2.1,5.3
						c-0.1,0.5-0.4,1.7-0.9,2.2c-0.8,0.8-1,0.2-1.6-0.5c-1.1-1.5-1.9-3.1-2.7-4.9C1016.4,1101.9,1013.3,1102.8,1014,1104.7
						L1014,1104.7z"/>
				</g>
			</g>
			<g>
				<path class="st3" d="M1042,1085.5c-2.2,0.4-4.2,1.5-5.7,3.1c-0.3,0.4-0.6,0.9-0.8,1.4c-0.2,0.8,0.1,1.6,0.5,2.3
					c0.5,1,1.2,1.8,2.2,2.4c0.9,0.5,2.2,0.8,3.1,0.3"/>
				<g>
					<path class="st2" d="M1041.6,1083.9c-3.1,0.6-8.2,3.2-7.7,7.1c0.4,3.5,4.2,6.8,7.8,5.5c1.9-0.6,1.1-3.8-0.9-3.1
						c-1.7,0.6-4.5-1.8-3.4-3.7c1-1.6,3.2-2.4,5-2.8C1044.5,1086.6,1043.6,1083.4,1041.6,1083.9L1041.6,1083.9z"/>
				</g>
			</g>
			<g>
				<path class="st3" d="M1027.8,1178.2c9.9-11.6,19.9-23.1,29.7-34.6c1.8-2.1,3.6-4.2,5.7-5.9c0.4-0.3,0.9-0.8,1.2-1.3
					c0.3-0.6,0.2-1.4,0.1-2.2c-1-5.9-0.6-12-0.1-18.1c0.3-3.4,0.8-6.7,0.9-10.1c0.4-11.6-2.7-23.2-1.3-34.7"/>
				<g>
					<path class="st2" d="M1028.8,1179.3c7.2-8.4,14.4-16.8,21.6-25.2c3.5-4,6.7-8.1,10.3-11.9c2.1-2.2,5-3.9,5.3-6.9
						c0.2-2.2-0.5-4.9-0.6-7.1c-0.1-2.7,0-5.4,0.1-8c0.3-5.4,1.2-10.7,1.2-16.1c0-10.9-2.5-21.7-1.3-32.6c0.2-2.1-3-2.1-3.2,0
						c-1.1,10.3,1.1,20.4,1.3,30.7c0.2,9.7-2.1,19.5-1.2,29.2c0.3,3,0.2,4-1.6,6.4c-1.3,1.7-3,3.2-4.4,4.9c-3.1,3.7-6.3,7.4-9.5,11
						c-6.8,7.9-13.5,15.8-20.3,23.6C1025.2,1178.7,1027.5,1180.9,1028.8,1179.3L1028.8,1179.3z"/>
				</g>
			</g>
			<g>
				<path class="st3" d="M1040.9,1062.7c1.8,0.2,3.6,0.9,5.4,1.5c6.2,2.3,12.2,4.4,18.4,6.7"/>
				<g>
					<path class="st2" d="M1040.5,1064.2c8,1.5,16.1,5.4,23.8,8.2c1.9,0.8,2.8-2.4,0.9-3.1c-7.7-2.8-15.7-6.7-23.8-8.2
						C1039.3,1060.7,1038.5,1063.9,1040.5,1064.2L1040.5,1064.2z"/>
				</g>
			</g>
			<g>
				<path class="st3" d="M1043.8,1099.6c3.5-2.8,4.4-7.6,7.4-10.9c1.5-1.6,3.4-2.9,5-4.4c1.4-1.4,2.6-3,3.8-4.6
					c1.7-2.4,3.4-4.8,5.1-7.1"/>
				<g>
					<path class="st2" d="M1044.9,1100.7c4.3-4.1,5.8-9.7,10.5-13.7c4.5-3.9,7.7-9.1,11-13.8c1.2-1.7-1.6-3.4-2.8-1.6
						c-3.7,5.2-7,10.1-11.8,14.3c-4,3.6-5.3,9-9.2,12.6C1041.2,1100,1043.4,1102.2,1044.9,1100.7L1044.9,1100.7z"/>
				</g>
			</g>
			<g>
				<path class="st3" d="M1016.1,1020.3c1.1-8,3.2-14.7,4.3-22.7c0.6-4.6,2.6-9.5,5.2-13.4c4.4-6.5,13-8.3,20.8-9.4
					c32.2-4.2,66.2-2.1,95.2,12.4c8.8,4.3,17.3,10.2,21.5,19c3.8,7.8,3.7,16.9,3.5,25.6c0,0.6,0,1.3-0.4,1.7c-0.3,0.5-1,0.8-1.5,1
					c-7.9,3.2-15.4,6.3-23.2,9.4c-5.4,2.2-10.8,4.3-17.3,6.5c-5,1.6-10.5,2.2-15.5,3.6c-7.9,2.3-16.2,1.6-24.3,0.8
					c-9.4-1-18.8-2.3-27.8-5.2c-11.9-3.8-22.8-10.2-31.9-18.7c-3.4-3.1-6.5-6.7-8-11"/>
				<g>
					<path class="st2" d="M1017.6,1020.7c0.9-5.7,2.3-11.2,3.4-17c1.2-6.4,1.8-12.4,5.5-18.1c6.7-9.9,22.3-9.8,32.9-10.7
						c23.2-1.7,46.9,0.2,68.9,8.2c10.4,3.8,21.8,8.9,29.3,17.4c4,4.6,6.2,10.3,7,16.3c0.4,3,0.5,6.1,0.5,9.1c0,1.2,0.1,2.7,0,3.8
						c-0.5,2.9-1.8,3.4-4.6,4.6c-10.6,5-21.8,9.1-32.9,13c-11.5,4-24.4,6.9-36.5,6.2c-14.2-0.9-28.9-2.9-41.9-8.6
						c-11.4-5-26.1-13.6-30.9-25.6c-0.8-1.9-3.9-1.1-3.1,0.9c4.3,11,16,18.9,26.1,24.4c11.6,6.3,24.2,9.3,37.3,11
						c7,0.9,14.1,1.7,21.2,1.4c7.1-0.4,14.5-2.4,21.3-4c13.8-3.4,27.4-9.9,40.4-15.4c3.7-1.5,6.5-1.8,7-5.9
						c0.9-6.5,0.2-14.5-1.6-20.9c-3-10.9-11.7-18.4-21.4-23.6c-23.7-13-51.7-17-78.4-16c-7.6,0.3-15.1,1-22.6,2.1
						c-5.7,0.9-11.8,2.3-16.4,5.9c-4.8,3.8-7.6,10.2-8.8,16c-1.7,8-3.5,16.3-4.6,24.4C1014.2,1021.9,1017.4,1022.8,1017.6,1020.7
						L1017.6,1020.7z"/>
				</g>
			</g>
			<g>
				<path class="st3" d="M1018.6,1027.1c-0.1,1.3,0,2.7,0.3,4"/>
				<g>
					<path class="st2" d="M1016.9,1027.1c-0.1,1.5,0,3,0.3,4.4c0.4,2.1,3.6,1.2,3.1-0.9c-0.3-1.2-0.3-2.4-0.2-3.6
						c0.1-0.9-0.8-1.6-1.6-1.6C1017.6,1025.5,1016.9,1026.1,1016.9,1027.1L1016.9,1027.1z"/>
				</g>
			</g>
			<g>
				<path class="st3" d="M1039.6,1043.8c-0.2,4,0.9,8.1-0.1,12.1"/>
				<g>
					<path class="st2" d="M1038,1043.8c-0.1,3.9,0.8,7.8,0,11.7c-0.4,2.1,2.7,2.9,3.1,0.9c0.9-4.2,0-8.3,0.1-12.5
						C1041.4,1041.7,1038.1,1041.7,1038,1043.8L1038,1043.8z"/>
				</g>
			</g>
			<g>
				<path class="st3" d="M1073.4,1053.8c0.4,33.6-2.2,66.6-4.8,100.1"/>
				<g>
					<path class="st2" d="M1071.8,1053.8c0.4,33.4-2.3,66.8-4.8,100.1c-0.1,2.1,3.1,2.1,3.2,0c2.5-33.3,5.2-66.7,4.8-100.1
						C1075,1051.8,1071.8,1051.8,1071.8,1053.8L1071.8,1053.8z"/>
				</g>
			</g>
			<g>
				<g>
					<path class="st2" d="M1053.8,1152.9c15.6,4.6,32.6,5.8,48.9,4.5c7.2-0.5,14.2-3.6,20.9-6.2c4.9-1.9,13.1-3.7,16.3-8.1
						c1.2-1.7-1.6-3.4-2.8-1.6c-1.7,2.5-6.4,3.4-9,4.4c-3,1.2-6.1,2.4-9.1,3.6c-7.1,2.7-13.6,4.8-21.4,4.9
						c-14.6,0.2-28.9-0.3-43-4.6C1052.7,1149.2,1051.9,1152.3,1053.8,1152.9L1053.8,1152.9z"/>
				</g>
			</g>
			<g>
				<path class="st3" d="M1161.2,1037.8c-4.8,12.3-8.9,24.9-12.3,37.6c-1.1,4.1-2.1,8.1-2.9,12.3c-1.1,5.1-1.9,10.1-2.8,15.1
					c-0.8,4.6-1.6,9.4-2.4,14.1c-1.5,8.6-2.9,17.5-1.9,26.3"/>
				<g>
					<path class="st2" d="M1159.5,1037.4c-6.7,17.4-12.4,35.3-16,53.7c-1.6,8.4-3,17-4.4,25.4c-1.5,8.9-2.8,17.7-1.9,26.7
						c0.2,2.1,3.5,2.1,3.2,0c-0.9-9.4,0.6-18.6,2.3-27.9c1.4-8.4,2.7-17,4.4-25.3c3.6-17.7,9.2-35,15.7-51.8
						C1163.4,1036.3,1160.3,1035.4,1159.5,1037.4L1159.5,1037.4z"/>
				</g>
			</g>
			<g>
				<path class="st3" d="M1132.5,1048.2c-2.9,38.1-8.8,66.9-11.6,101.8"/>
				<g>
					<path class="st2" d="M1130.9,1048.2c-2.7,34.1-8.8,67.8-11.6,101.8c-0.2,2.1,3,2.1,3.2,0c2.8-34.1,8.9-67.8,11.6-101.8
						C1134.3,1046,1131.1,1046,1130.9,1048.2L1130.9,1048.2z"/>
				</g>
			</g>
			<g>
				<path class="st3" d="M1099.9,1055.5c0.2,10.9-0.8,21.7-1.4,32.5c-1.4,22.2-1.8,44.3-1.1,66.5"/>
				<g>
					<path class="st2" d="M1098.2,1055.5c0.2,16.2-1.6,32.4-2.3,48.6c-0.6,16.8-0.8,33.6-0.2,50.4c0.1,2.1,3.4,2.1,3.2,0
						c-0.5-16.8-0.4-33.6,0.2-50.4c0.6-16.2,2.5-32.4,2.3-48.6C1101.5,1053.5,1098.2,1053.5,1098.2,1055.5L1098.2,1055.5z"/>
				</g>
			</g>
			<g>
				<path class="st3" d="M1019.9,1010.9c0.4,0.2,0.8,0.5,1,1c0.1,0.1,0.1,0.2,0.1,0.3c0,0.2-0.1,0.4-0.2,0.6
					c-0.1,0.2-0.3,0.3-0.4,0.4c-0.2,0.2-0.4,0.5-0.6,0.9c-0.2,0.2-0.6,0.4-1,0.3"/>
				<g>
					<path class="st2" d="M1019,1012.3c0,0,0.4,0.3,0.3,0.3c0-0.3,0-0.5,0-0.9c-0.1,0.1-0.2,0.2-0.3,0.3c-0.2,0.2-0.4,0.4-0.5,0.6
						c0,0.1-0.1,0.1-0.1,0.2c0.2-0.1,0.2-0.1,0,0c0.3,0,0.5,0,0.9,0c-0.1,0-0.1,0-0.2,0c-0.9-0.1-1.7,0.2-1.9,1.1
						c-0.2,0.8,0.2,1.8,1.1,1.9c1,0.1,1.7,0,2.5-0.6c0.3-0.2,0.4-0.6,0.8-0.9c0.2-0.2,0.4-0.4,0.6-0.6c1.2-1.6,0.2-3.4-1.3-4.3
						C1018.9,1008.3,1017.3,1011.1,1019,1012.3L1019,1012.3z"/>
				</g>
			</g>
			<g>
				<path class="st3" d="M1027.6,1020c-0.3,0.2-0.5,0.5-0.8,1c-0.2,0.4-0.2,1-0.1,1.5s0.5,1,1,1.1c0.1,0,0.3,0.1,0.4,0
					c0.1,0,0.2-0.1,0.3-0.1c0.5-0.3,1.1-0.9,1.4-1.5s0.2-1.4-0.3-1.9c-0.1-0.1-0.2-0.1-0.3-0.2c-0.4-0.1-0.9,0.2-1.2,0.5"/>
				<g>
					<path class="st2" d="M1026.8,1018.6c-1.5,1-2.1,3-1.4,4.6c0.3,0.9,1.1,1.5,1.9,1.8c1,0.3,1.8-0.1,2.6-0.6
						c1.3-1,2.2-2.6,1.6-4.3c-0.3-0.9-1-1.6-1.7-1.8c-1.1-0.3-2.1,0.2-2.8,1c-1.5,1.5,0.9,3.8,2.3,2.3c0.3-0.3,0.1-0.1,0.2-0.1
						c-0.3,0-0.5,0-0.9,0c-0.5-0.1,0-0.4-0.2-0.1c-0.1,0.2-0.4,0.3-0.5,0.5c-0.1,0-0.1,0.1-0.2,0.1c0.6,0.1,0.9,0.1,0.6,0v-0.1
						c0-0.1,0-0.3,0.1-0.4c0.1-0.2,0-0.1,0-0.1C1030.2,1020.3,1028.5,1017.5,1026.8,1018.6L1026.8,1018.6z"/>
				</g>
			</g>
			<g>
				<path class="st3" d="M1042.2,1030.3c-0.5,0.3-1.1,0.8-1.3,1.3c-0.2,0.4-0.2,1,0,1.4s0.4,0.9,0.9,1.2c0.1,0.1,0.3,0.2,0.4,0.2
					s0.1-0.1,0.2-0.1c0.2-0.1,0.4-0.2,0.6-0.4c0.3-0.2,0.6-0.4,0.9-0.8c0.1-0.3,0.1-0.6-0.1-1c-0.2-0.3-0.5-0.4-0.9-0.5
					c-0.1,0-0.2,0-0.3,0c-0.2,0.1-0.2,0.3-0.4,0.4"/>
				<g>
					<path class="st2" d="M1041.4,1028.9c-1.5,1-2.6,2.3-2.2,4.2c0.3,1.8,2.3,3.6,4.2,2.5c1.5-0.9,2.9-2.4,1.9-4.1
						c-0.4-0.8-1.1-1.2-1.8-1.4c-0.4-0.1-0.9-0.1-1.3,0c-0.2,0.1-0.4,0.2-0.6,0.4c0,0-0.4,0.3-0.2,0.2c-1.7,1.1-0.1,3.9,1.6,2.8
						c0.2-0.1,0.5-0.2,0.5-0.4c-0.4,0.3-0.8,0.3-1.1,0.1c-0.1-0.1-0.1-0.3,0-0.4c0-0.4,0.1-0.3-0.3-0.1c-0.2,0.1-0.4,0.3-0.8,0.4
						c0.3-0.1,0.5-0.1,0.9-0.2c-0.1,0-0.2,0-0.2,0c0.3,0.1,0.5,0.1,0.9,0.2c-0.8-0.4-0.2-0.9,0.2-1.2
						C1044.8,1030.7,1043.2,1027.9,1041.4,1028.9L1041.4,1028.9z"/>
				</g>
			</g>
			<g>
				<path class="st3" d="M1064.3,1038.2c-0.6,0.2-1.1,0.6-1.4,1.2s-0.2,1.3,0,1.8c0.2,0.4,0.4,0.8,0.8,1.1c0.5,0.5,1.4,1.1,2.2,0.8
					c0.4-0.2,0.8-0.5,1-1c0.5-0.8,1-1.8,0.6-2.7c-0.1-0.3-0.3-0.5-0.5-0.8c-0.3-0.3-0.8-0.5-1.2-0.5s-0.9,0.2-1.1,0.6"/>
				<g>
					<path class="st2" d="M1063.9,1036.6c-2.2,0.9-3.5,3.1-2.4,5.4c1,1.9,3.6,3.5,5.5,2.2c1.7-1.2,2.8-4,1.7-5.9s-4.2-2.7-5.4-0.4
						c-1,1.8,1.8,3.5,2.8,1.6c-0.5,0-0.6,0.1-0.4,0.2c0,0,0.1,0,0.1,0.1s0.1,0.2,0.2,0.4c0,0.2-0.2,0.6-0.3,0.9
						c-0.1,0.1-0.5,0.6-0.3,0.5s-0.2-0.2-0.4-0.3c-0.2-0.1-0.4-0.3-0.4-0.5c-0.1-0.3,0-0.6,0.3-0.9c0.9-0.3,1.4-1.1,1.1-1.9
						C1065.7,1036.9,1064.7,1036.3,1063.9,1036.6L1063.9,1036.6z"/>
				</g>
			</g>
			<g>
				<path class="st3" d="M1090.2,1040c-0.9,0.3-1.6,0.8-2.4,1.3c-0.2,0.1-0.3,0.3-0.4,0.4c-0.2,0.4-0.1,1,0.1,1.4
					c0.6,1.2,1.8,1.9,3,2.5c0.1,0,0.2,0.1,0.3,0.1c0.2,0,0.2-0.2,0.3-0.3c0.3-0.6,0.5-1.3,0.5-1.9c0-0.4,0-0.9-0.2-1.3
					c-0.2-0.3-0.4-0.5-0.8-0.8c-0.2-0.1-0.4-0.2-0.6-0.3c-0.2,0-0.5,0.1-0.6,0.3"/>
				<g>
					<path class="st2" d="M1089.8,1038.3c-1.9,0.9-4.8,2.2-3.9,4.9c0.5,1.8,2.7,3.6,4.5,4c2.5,0.6,3.4-2.9,3.1-4.8
						c-0.2-2.2-3.2-4.2-5.1-2.4c-1.4,1.5,0.9,3.8,2.3,2.3c-0.6,0-0.8,0.1-0.5,0.3c0.1,0,0.1,0.1,0.1,0.3c0,0.4-0.2,0.8-0.2,1.1
						c-0.1,0.1-0.1,0.2-0.2,0.3c1.2-0.1,1.6-0.3,1.1-0.5c-0.2-0.2-0.6-0.3-0.9-0.5s-1.2-0.8-1.2-1.2c0,0.3,0.6-0.2,0.6-0.3
						c0.3-0.2,0.6-0.3,1-0.5c0.9-0.3,1.4-1.1,1.1-1.9C1091.6,1038.8,1090.7,1038,1089.8,1038.3L1089.8,1038.3z"/>
				</g>
			</g>
			<g>
				<path class="st3" d="M1110.7,1038.9c-0.6,0.2-1.2,0.8-1.4,1.4c-0.2,0.5-0.1,1.2-0.1,1.7c0,0.6,0,1.2,0.1,1.7s0.6,1.1,1.2,1.2
					c0.1,0,0.2,0,0.3,0c0.1,0,0.2-0.1,0.3-0.2c0.6-0.6,1-1.4,1.2-2.3c0.1-0.5,0.1-1.1-0.1-1.6c-0.2-0.4-0.8-0.9-1.3-0.8"/>
				<g>
					<path class="st2" d="M1109.8,1037.5c-2.1,0.9-2.4,3-2.4,5.1c0,1.9,1,4.4,3.4,4.1c1.8-0.2,2.9-2.5,3.1-4.1c0.3-2.1-0.9-4-3-4
						c-2.1-0.1-2.1,3.1,0,3.2c-0.3,0-0.2,0.6-0.4,1c-0.1,0.2-0.3,0.4-0.3,0.6c-0.1,0.1-0.1,0.2-0.2,0.2c0.6,0.1,0.9,0,0.8-0.4
						c0.3-1.1-0.6-2.4,0.8-2.9C1113.4,1039.4,1111.8,1036.6,1109.8,1037.5L1109.8,1037.5z"/>
				</g>
			</g>
			<g>
				<path class="st3" d="M1132.3,1033.3c-0.4,0.1-0.8,0.5-1,1s-0.4,1.1-0.5,1.6c-0.1,0.3-0.1,0.8,0,1.1c0.2,0.5,0.6,0.9,1.2,1.1
					s1.1,0.3,1.6,0c0.3-0.1,0.5-0.4,0.8-0.6c0.9-1.2,1.4-2.7,1.4-4.2c0-0.2,0-0.5-0.1-0.6c-0.3-0.4-1-0.3-1.4,0
					c-0.4,0.2-0.9,0.5-1.2,1"/>
				<g>
					<path class="st2" d="M1131.9,1031.8c-2.1,0.6-3.2,3.8-2.6,5.8c0.8,2.3,4.1,3,5.8,1.3c1.4-1.5,2.7-4.4,2.2-6.5
						c-0.8-2.9-4-1.6-5.5-0.1s0.9,3.8,2.3,2.3c0.2-0.2,0.8-0.5,0.9-0.8c0.5-0.1,0.2-0.3-0.9-0.6c0,0.1,0,0.2,0,0.3
						c-0.3,0.8-0.3,1.5-0.6,2.3c-0.2,0.3-0.5,1.3-1,0.6c-0.1-0.1,0.1-0.4,0.1-0.8c0.1-0.3,0.4-0.9,0.2-0.8
						C1134.7,1034.2,1133.9,1031.1,1131.9,1031.8L1131.9,1031.8z"/>
				</g>
			</g>
			<g>
				<path class="st3" d="M1150.8,1027.3c-0.4,0-0.8,0.3-1,0.6c-0.3,0.5-0.6,1.1-0.9,1.6c-0.3,0.6-0.4,1.5-0.1,2.2
					c0.1,0.3,0.3,0.5,0.5,0.8c0.3,0.3,0.6,0.6,1.1,0.5c0.3-0.1,0.5-0.3,0.6-0.6c0.4-0.6,0.9-1.3,1.2-1.9c0.2-0.4,0.4-1,0.5-1.5
					s0.1-1.1-0.2-1.6c-0.1-0.1-0.2-0.3-0.3-0.3c-0.2-0.1-0.4,0-0.5,0.1c-0.5,0.2-1.2,0.4-1.7,0.6"/>
				<g>
					<path class="st2" d="M1150.3,1025.7c-1.9,0.3-3.2,3.4-3.4,5.1c0,1.9,2.1,4.6,4.2,3.6c1-0.4,1.6-1.6,2.1-2.6
						c0.5-1.1,1.2-2.2,1.2-3.4c0-1.1-0.4-2.4-1.4-2.9c-1.2-0.5-2.4,0.1-3.6,0.5c-1.9,0.8-1.1,3.9,0.9,3.1c0.4-0.1,1.2-0.3,1.5-0.5
						c0.5-0.1,0.3-0.3-0.6-0.5c0.1,0.2,0.1,0.3,0,0.5c-0.1,1-1.1,1.6-1.3,2.5c-0.4,0.4-0.3,0.5,0.2,0.3c0.5,0.1,0.6,0,0.3-0.2
						c0-0.2-0.2-0.3-0.2-0.6c0-0.4,0.6-1.8,1-1.8c0.9-0.1,1.3-1.2,1.1-1.9C1152.1,1025.9,1151.2,1025.6,1150.3,1025.7L1150.3,1025.7
						z"/>
				</g>
			</g>
			<g>
				<path class="st3" d="M1164.8,1020.1c-0.3,0.2-0.5,0.4-0.9,0.8c-0.1,0.1-0.2,0.2-0.3,0.4c-0.2,0.5,0,1.2,0.2,1.7
					c0.1,0.1,0.2,0.3,0.3,0.4c0.2,0.2,0.5,0.2,0.9,0.2c0.3,0,0.6,0,1,0"/>
				<g>
					<path class="st2" d="M1164,1018.7c-1.4,0.9-2.5,2.5-1.8,4.2c0.2,0.8,0.6,1.5,1.4,1.9s1.6,0.4,2.5,0.4s1.6-0.8,1.6-1.6
						c0-0.9-0.8-1.6-1.6-1.6c-0.1,0-0.9-0.1-1,0c0.1-0.1,0.5,0.8,0.1,0c-0.2-0.4,0.1,0-0.1,0c0.1,0,0.3-0.3,0.4-0.4
						C1167.4,1020.4,1165.8,1017.6,1164,1018.7L1164,1018.7z"/>
				</g>
			</g>
		</g>
	</g>
</g>
</svg>
