<?xml version="1.0" encoding="UTF-8"?>
<svg width="213.65mm" height="223.52mm" version="1.1" viewBox="0 0 757.02731 792.00899" xmlns="http://www.w3.org/2000/svg">
 <g transform="matrix(3.0949 0 0 3.0949 -612.51 -1467.2)">
  <path d="m374.53 575.26c-5.5878-5.0203-2.5308-13.198 6.6932-17.903 3.0769-1.5697 5.3464-2.2491 9.4058-2.129 2.4622 0.0631 5.2939 1.4824 5.2939 1.4824 0-18.055-0.0682-52.28-0.0682-69.151 1.0003 6e-3 1.6402-6e-3 3.0409-6e-3 0 0.99254-0.0134 1.7062-0.0134 2.586 0 0.85738 0.0603 1.4141 0.1432 1.9529 0.96866 6.2992 2.3792 8.7789 9.422 16.564 8.9072 9.8456 11.494 15.776 11.441 23.652-0.0492 7.3881-6.548 23.212-8.0256 22.556 2.0546-5.536 4.8253-11.508 5.5622-16.506 0.90056-6.1073-1.5805-14.727-5.5733-19.274-3.2836-3.7398-10.847-7.0847-12.91-7.0847 0 0-0.0876 36.372-0.0876 50.162 0 2.3747-2.1513 6.4006-3.3631 7.8481-5.5263 6.6011-16.134 9.5899-20.962 5.2519z"/>
 </g>
 <path d="m130.72 296.43c-17.015-0.98893-34.387-11.661-44.776-23.91-12.046-14.202-17.012-33.51-15.74-49.367 3.737-46.591 54.404-74.128 73.159-94.48 12.554-13.622 15.186-20.263 17.99-27.269 5.4288-13.562 6.3033-29.451-4.4595-30.637-10.276-1.1326-18.73 15.027-22.506 26.072-3.3955 9.9336-5.6524 19.9-3.6095 34.871 0.91802 6.7259 26.187 194.47 26.613 197.38 4.2557 29.083-12.376 41.117-29.355 43.258-36.664 4.6223-48.428-32.637-31.996-46.787 12.651-10.895 31.056-1.5416 30.061 16.37-0.88048 15.865-16.437 16.332-20.411 15.97 6.1018 10.943 52.103 16.661 45.039-32.781-0.99252-6.9477-24.343-183.38-24.915-187.33-4.2837-29.556-4.9364-52.951 10.463-80.253 5.6851-10.078 14.67-16.585 19.08-15.733 0.96927 0.18724 1.935 0.54307 2.7016 1.3341 11.813 12.171 15.436 39.162 14.142 54.667-1.3252 15.876-2.0637 32.31-17.849 51.476-6.1089 7.4168-24.751 23.756-35.439 33.143-15.018 13.189-25.911 24.708-31.804 38.605-6.6234 15.618-7.7447 35.279 7.2153 52.723 8.6055 9.8561 22.884 16.85 34.9 16.999 33.412 0.41487 43.169-16.055 43.481-34.707 0.51327-30.712-36.564-42.324-51.808-21.207-8.8386 12.245-4.9537 25.133 0.9824 31.264 2.0375 2.1043 4.3135 3.7072 6.4666 4.6008 0.78029 0.3237 2.6158 1.1773 2.0948 2.4268-0.43339 1.0396-1.2751 1.0981-2.0417 1.0063-9.6129-1.1529-20.257-10.341-22.875-26.146-3.8139-23.036 16.514-50.361 45.531-45.892 18.997 2.9257 36.635 19.272 35.088 49.71-1.3263 26.087-22.953 46.507-55.424 44.62z"/>
 <g transform="matrix(3.0949 0 0 3.0949 -830.48 -1467.2)">
  <path d="m374.53 575.26c-5.5878-5.0203-2.5308-13.198 6.6932-17.903 3.0769-1.5697 5.3464-2.2491 9.4058-2.129 2.4622 0.0631 5.2939 1.4824 5.2939 1.4824 0-18.055-0.0682-52.28-0.0682-69.151 1.0003 6e-3 1.6402-6e-3 3.0409-6e-3l0.0471 24.445s-0.0876 36.372-0.0876 50.162c0 2.3747-2.1513 6.4006-3.3631 7.8481-5.5263 6.6011-16.134 9.5899-20.962 5.2519z"/>
 </g>
 <path d="m144.86 471.84c0.0105 71.664 0.20389 144.15 0.21135 214.57 0 0-8.785-4.4053-16.425-4.6012-12.596-0.37294-19.639 1.7387-29.186 6.6096-28.621 14.601-38.111 39.969-20.773 55.546 14.982 13.46 47.897 4.184 65.045-16.298 3.7601-4.4914 10.436-16.984 10.436-24.352 0.0873-68.93 0.29971-137.86 0.17622-206.79l186.59-29.665c0.0397 56.131 0.18312 139.35 0.18312 188.59 0 0-8.785-4.4053-16.425-4.6012-12.596-0.37294-19.639 1.7387-29.186 6.6095-28.621 14.601-38.104 39.969-20.766 55.546 14.982 13.46 47.897 4.1912 65.045-16.291 3.7601-4.4914 10.436-16.984 10.436-24.352 0.19777-76.509 0.25595-161.45 0.11978-233.17z"/>
 <path d="m686.95 439.2-205.23 32.388c3e-3 20.79 0.0381 41.39 0.0631 62.248l-0.0569 6e-3v26.037l0.0823-0.0124c0.0579 41.726 0.11575 83.714 0.12009 124.61 0 0-8.7749-4.3747-16.406-4.5691-12.58-0.36984-19.616 1.7273-29.152 6.5597-28.586 14.487-38.064 39.658-20.747 55.113 14.964 13.355 47.838 4.1503 64.965-16.172 3.7556-4.4564 10.427-16.849 10.427-24.16 0.0603-47.622 0.13772-95.244 0.16434-142.87l186.44-29.411c0.0539 44.598 0.12008 92.205 0.12008 124.79 0 0-8.7749-4.3747-16.406-4.569-12.58-0.36985-19.616 1.7273-29.152 6.5597-28.586 14.487-38.058 39.658-20.741 55.113 14.964 13.355 47.838 4.1565 64.965-16.165 3.7555-4.4564 10.427-16.849 10.427-24.16 0.12101-46.482 0.16682-95.22 0.17053-143.04l0.0186-6e-3 -0.0248-10.958c-3e-3 -26.342 2e-3 -53.176-0.0443-77.332zm-9.3972 27.452c6e-3 10.798 0.0217 23.903 0.0378 36.28l-186.41 29.418c-3e-3 -12.089 0.0217-24.179 0-36.268l186.37-29.43z"/>
</svg>
