<svg id="Layer_1" data-name="Layer 1" xmlns="http://www.w3.org/2000/svg" xmlns:xlink="http://www.w3.org/1999/xlink" viewBox="0 0 131.52 48.115" >
  <defs>
    <clipPath id="clip-path" transform="translate(-12.658 -3.025)">
      <path d="M59.536,40.933q.57,0,.57.81a2.676,2.676,0,0,1-.3,1.334,5.422,5.422,0,0,1-.684.958,4.912,4.912,0,0,1-.98.821,5.267,5.267,0,0,1-2.931.912,6.468,6.468,0,0,1-2.44-.376,4.241,4.241,0,0,1-1.562-1.129A6.282,6.282,0,0,1,49.8,39.907a28.916,28.916,0,0,1,1.141-7.24q1.14-4.277,2.2-7.32t2.178-5.8l2.053-5.222q-3.376,3.033-8.552,12.747L43.3,37.513q-4.423,8.256-6.316,8.255a2.518,2.518,0,0,1-2.532-1.6,15.342,15.342,0,0,1-.616-5.188,41.221,41.221,0,0,1,.582-7.024Q35,28.6,35.888,25.381A80.447,80.447,0,0,1,39.9,14.116q-2.394,1.346-5.313,6-2.235,3.717-3.147,5.427L25.557,36.372q-3.672,6.682-5.907,8.256a5.935,5.935,0,0,1-3.489,1.14,2.62,2.62,0,0,1-2.3-1,1.384,1.384,0,0,1-.273-.752q0-.342.2-.41a6.543,6.543,0,0,0,2-.81q.581-.421,1.152-.867A11.25,11.25,0,0,0,18.6,40.033q1.095-1.449,2.372-3.489t2.668-4.573l2.9-5.336A55.4,55.4,0,0,1,34.93,14.207a14.649,14.649,0,0,1,3.056-2.577,8.611,8.611,0,0,1,3.489-1.436,4.942,4.942,0,0,1,1.015-.115,4.594,4.594,0,0,1,1.049.137,2.982,2.982,0,0,1,1.014.433,1.424,1.424,0,0,1,.593,1.825q-.183.684-.707,2.052l-1.231,3.261a73.426,73.426,0,0,0-4.721,21.665q1.209-2.076,2.44-4.539L43.5,29.827l2.714-5.176Q52.49,13.022,57.871,11.333a6.293,6.293,0,0,1,1.87-.365,2.992,2.992,0,0,1,1.185.194,3.126,3.126,0,0,1,.776.491,1.382,1.382,0,0,1,.547,1.493q-.251.763-.661,1.95l-3.307,9.646L57.1,28.528a60,60,0,0,0-2.325,10.08,3.982,3.982,0,0,0,.33,2.314,1.429,1.429,0,0,0,1.289.832,5.167,5.167,0,0,0,1.288-.125,4.927,4.927,0,0,0,.81-.285l.592-.274A.974.974,0,0,1,59.536,40.933Z" style="fill: none"/>
    </clipPath>
    <clipPath id="clip-path-2" transform="translate(-12.658 -3.025)">
      <path d="M84.963,41.047a.464.464,0,0,1,.524.525A3.946,3.946,0,0,1,83.526,44.9a5.529,5.529,0,0,1-3.1.867,3.276,3.276,0,0,1-2.235-.684,3.868,3.868,0,0,1-1.391-3.01,20.844,20.844,0,0,1,1.893-6.91q-3.513,4.743-4.926,6.305A24.771,24.771,0,0,1,71.3,43.9a6.817,6.817,0,0,1-4.128,1.87,3.649,3.649,0,0,1-3.762-2.44,5.016,5.016,0,0,1-.274-1.721,8.2,8.2,0,0,1,.331-2.167,22.966,22.966,0,0,1,.855-2.5q.523-1.3,1.14-2.668L66.7,31.539q2.371-5.268,1.756-6.249a2.9,2.9,0,0,0-1.026-.867.589.589,0,0,1-.273-.558,1.125,1.125,0,0,1,.33-.764,3.043,3.043,0,0,1,.855-.639,5.22,5.22,0,0,1,2.236-.525,4.656,4.656,0,0,1,1.7.24,2.857,2.857,0,0,1,.946.6,2.308,2.308,0,0,1,.752,1.665,8.1,8.1,0,0,1-.3,2.041q-.3,1.128-.775,2.451t-1.049,2.737q-1.575,3.694-2.121,4.88l-.844,1.756a6.6,6.6,0,0,0-.707,2.212,1.5,1.5,0,0,0,.2.9.893.893,0,0,0,.741.262,2.247,2.247,0,0,0,1.243-.5,12.487,12.487,0,0,0,1.551-1.345q.843-.843,1.756-1.95T75.454,35.6a39.864,39.864,0,0,0,2.508-3.74q4.835-8.551,5.154-8.939a1.973,1.973,0,0,1,1.494-.981,4.663,4.663,0,0,1,1.334.171,2.962,2.962,0,0,1,.98.491q.958.707.616,1.414-5.565,11.607-6,14.594-.114,1.028-.114,1.414,0,1.734,1.049,1.733A3.316,3.316,0,0,0,84.1,41.4,2.394,2.394,0,0,1,84.963,41.047Z" style="fill: none"/>
    </clipPath>
    <clipPath id="clip-path-3" transform="translate(-12.658 -3.025)">
      <path d="M88.429,41.526a2.844,2.844,0,0,1,.308-1.311A3.456,3.456,0,0,1,89.5,39.2a2.929,2.929,0,0,1,2.007-.889.817.817,0,0,1,.912.935,3.523,3.523,0,0,0,1.573,3.306,2.275,2.275,0,0,0,1.186.343,3.484,3.484,0,0,0,1.05-.137,2.4,2.4,0,0,0,.8-.433,1.969,1.969,0,0,0,.821-1.574,3.5,3.5,0,0,0-.411-1.676,13.985,13.985,0,0,0-1.026-1.608l-1.3-1.824q-2.736-3.648-2.736-6.728a6.293,6.293,0,0,1,2.166-4.629,8.78,8.78,0,0,1,6.317-2.349,7.709,7.709,0,0,1,5.268,1.665,4,4,0,0,1,1.55,3.079,3.461,3.461,0,0,1-1.368,2.873,2.96,2.96,0,0,1-2.463.707A1.285,1.285,0,0,1,103,29.7a1.121,1.121,0,0,1-.114-1.015,3.873,3.873,0,0,0,.182-1.185,2.833,2.833,0,0,0-.228-1.141,2.66,2.66,0,0,0-.616-.889,2.43,2.43,0,0,0-1.676-.752,4.549,4.549,0,0,0-1.448.194,3.074,3.074,0,0,0-1,.558,2.641,2.641,0,0,0-.89,2.019,4.774,4.774,0,0,0,.411,2.063,11.838,11.838,0,0,0,1.015,1.734q.6.867,1.311,1.756a18.134,18.134,0,0,1,1.3,1.87,7.953,7.953,0,0,1,1.436,4.048,5.43,5.43,0,0,1-.729,2.919A7.159,7.159,0,0,1,100.06,43.9,9.114,9.114,0,0,1,94.5,45.747a7.087,7.087,0,0,1-4.652-1.414A3.566,3.566,0,0,1,88.429,41.526Z" style="fill: none"/>
    </clipPath>
    <clipPath id="clip-path-4" transform="translate(-12.658 -3.025)">
      <path d="M116.935,41.276q.593,0,.593.775a3.323,3.323,0,0,1-.935,2.121,4.589,4.589,0,0,1-3.672,1.6,3.626,3.626,0,0,1-3.626-2.144,4.154,4.154,0,0,1-.365-1.824,8.719,8.719,0,0,1,.376-2.384q.377-1.311.935-2.759t1.22-2.93l1.209-2.874a15.043,15.043,0,0,0,1.323-4.241,2.79,2.79,0,0,0-.217-1.357,1.924,1.924,0,0,0-.468-.513l-.456-.319a.634.634,0,0,1-.228-.559,1.173,1.173,0,0,1,.308-.764,2.8,2.8,0,0,1,.81-.638,5.208,5.208,0,0,1,2.394-.525q3.352,0,3.352,1.756a12.662,12.662,0,0,1-1.071,4.687q-1.073,2.633-1.824,4.251l-1.369,3.147a14.818,14.818,0,0,0-1.505,4.994.888.888,0,0,0,1,1,3.431,3.431,0,0,0,1.482-.251A1.915,1.915,0,0,1,116.935,41.276ZM121.61,16.59a4.2,4.2,0,0,1-1.141.867,3.829,3.829,0,0,1-1.345.411,2.433,2.433,0,0,1-1.334-.217,3.146,3.146,0,0,1-1.084-.844,3.533,3.533,0,0,1-.98-2.3,3.25,3.25,0,0,1,.376-1.745,3.116,3.116,0,0,1,.946-.946,3.848,3.848,0,0,1,2.064-.707,6.384,6.384,0,0,1,1.5.137,3.019,3.019,0,0,1,.993.456,2.182,2.182,0,0,1,1.117,1.836,4.6,4.6,0,0,1-.308,1.8,4.3,4.3,0,0,1-.808,1.254Z" style="fill: none"/>
    </clipPath>
    <clipPath id="clip-path-5" transform="translate(-12.658 -3.025)">
      <path d="M122.567,37.672a15.2,15.2,0,0,1,.627-3.956,18.573,18.573,0,0,1,1.551-3.729,17.368,17.368,0,0,1,2.3-3.238,16.1,16.1,0,0,1,2.907-2.554,12.007,12.007,0,0,1,6.91-2.258q3.739,0,5.085,2.988a5.545,5.545,0,0,1,.445,2.428,7.772,7.772,0,0,1-.445,2.486,8.824,8.824,0,0,1-1.026,2.019q-1.391,2.007-2.805,2.006A2.918,2.918,0,0,1,135.794,33a1.839,1.839,0,0,1-.41-1.757.931.931,0,0,1,.41-.535,6.92,6.92,0,0,0,.867-.764,5.348,5.348,0,0,0,1.551-3.626q.045-1.413-1.733-1.414a5.876,5.876,0,0,0-4.014,2.144,17.365,17.365,0,0,0-4.31,8q-1.095,4.242.411,6.2a2.9,2.9,0,0,0,2.417,1.14,8.1,8.1,0,0,0,4.971-1.824,6.629,6.629,0,0,0,1.186-1.163q.456-.592.844-.593a.774.774,0,0,1,.65.376,1.66,1.66,0,0,1,.262.969,3.9,3.9,0,0,1-1.209,2.645,10.4,10.4,0,0,1-7.457,2.965,7.577,7.577,0,0,1-5.746-2.121A8.012,8.012,0,0,1,122.567,37.672Z" style="fill: none"/>
    </clipPath>
  </defs>
  <title>title</title>
  <g style="clip-path: url(#clip-path)">
    <path id="m-path" d="M13.2,44.119c.815.11,4.2.365,5.1-.255a5.127,5.127,0,0,0,1.53-2.295,25.382,25.382,0,0,1,2.549-3.825c3.125-4.7,5.291-11.537,10.773-19.442.579-.834,4.34-9.674,5.419-9.243,1.912.765,4.717,4.462,4.079,5.355C39.114,19.368,38.382,27.1,38.382,27.1c-1.529,8.287-9.284,19.248-7.458,19.952.867.335,9.007-8.35,10.008-9.5,2.932-5.354,3.783-5.546,4.526-8.223C48.34,18.943,57.232,6.284,58.845,7.147c1.393.745.061,11.782-1.4,15.681C55.1,29.07,51.951,33.607,52.47,37.872c.066.54.468,6.017,2.932,6.5,1.775.349,4.5-3.234,4.845-3.7" transform="translate(-12.658 -3.025)" style="fill: none;stroke: #000;stroke-miterlimit: 10;stroke-width: 8.159396404900827px"/>
  </g>
  <g style="clip-path: url(#clip-path-2)">
    <path id="u-path" d="M70.638,17.92c.1-.087-1.271,4.052.318,4.781a2.689,2.689,0,0,1,1.275,1.4c.52,1.219.291,2.933-3.06,8.287-2.1,3.362-3.448,4.979-4.079,8.032-.33,1.6-.228,2.439.255,2.932,1.227,1.253,4.514-.259,4.781-.574,2.8-3.314,7.8-16.8,9.561-19.888,4.328-7.579,5.794-.716,6.056-.574s-1.527,8.94-5.163,14.853c0,0-1.7.884-1.4,4.334.043.494-.17,1.721.319,2.1,1.162.909,3.525-.463,3.825-.637.933-.543,2.762-.377,3.123-.829" transform="translate(-12.658 -3.025)" style="fill: none;stroke: #000;stroke-miterlimit: 10;stroke-width: 7.776924698421099px"/>
  </g>
  <g style="clip-path: url(#clip-path-3)">
    <path id="s-path" d="M103.849,30.86c.764-1.324.894-5.135.765-5.355-1.03-1.754-3.605-1.976-5.482-1.657-2.47.42-3.545,1.989-4.08,4.08-.822,3.209,1.444,6.384,3.06,7.649a6.781,6.781,0,0,1,.892.765c.281.3,2.129,2.23,1.658,4.462a4.708,4.708,0,0,1-2.168,2.805c-.261.178-3.3,2.376-5.864.637-.931-.63-1.81-5.139-1.02-6.374" transform="translate(-12.658 -3.025)" style="fill: none;stroke: #000;stroke-miterlimit: 10;stroke-width: 11.729132332044937px"/>
  </g>
  <g style="clip-path: url(#clip-path-4)">
    <g>
      <path id="iDot-path" d="M121.952,11.991a7,7,0,0,0-3.7-.765c-1.53.255-2.55,2.3-2.422,3.953.082,1.064,2.24,3.282,3.442,2.549,4.267-2.6,4.328-5.641-.637-3.059" transform="translate(-12.658 -3.025)" style="fill: none;stroke: #000;stroke-miterlimit: 10;stroke-width: 5.609585028369318px"/>
      <path id="i-path" d="M112.454,23.784c.6-.046,4.257-1.085,4.4-.956,1.759,1.6-2.824,10.654-4.207,13.387-.455.9-5.167,4.064-4.654,6.693.29,1.484,4.395,1.012,4.526,1.083,1.051.576,3.608-.945,5.291-2.868" transform="translate(-12.658 -3.025)" style="fill: none;stroke: #000;stroke-miterlimit: 10;stroke-width: 8.541868111380554px"/>
    </g>
  </g>
  <g style="clip-path: url(#clip-path-5)">
    <path id="c-path" d="M135.721,33.665a16.42,16.42,0,0,0,2.805-2.8c.849-1.173,2.171-3,1.53-4.845a3.919,3.919,0,0,0-2.167-2.167,5.123,5.123,0,0,0-3.952.382,11.4,11.4,0,0,0-4.718,3.825,16.708,16.708,0,0,0-3.442,8.032c-.3,2.4-.655,5.291,1.148,6.885,1.706,1.507,4.344.97,5.354.764,3.452-.7,6.309-4.793,6.885-5.609" transform="translate(-12.658 -3.025)" style="fill: none;stroke: #000;stroke-miterlimit: 10;stroke-width: 7.904415267247675px"/>
  </g>
</svg>
